<?xml version="1.0" standalone="no"?>
<!DOCTYPE svg PUBLIC "-//W3C//DTD SVG 1.1//EN" "http://www.w3.org/Graphics/SVG/1.1/DTD/svg11.dtd" >
<svg xmlns="http://www.w3.org/2000/svg" xmlns:xlink="http://www.w3.org/1999/xlink" version="1.1">
<metadata>
Created by FontForge 20170731 at Wed Jul 17 01:55:45 2019
 By Aleksey,,,
Copyright (c) 2019 by Eko Bimantara. All rights reserved.
</metadata>
<defs>
<font id="MollenPersonalUse-Bold" horiz-adv-x="664" >
  <font-face 
    font-family="Mollen Personal Use"
    font-weight="700"
    font-stretch="normal"
    units-per-em="1000"
    panose-1="0 0 0 0 0 0 0 0 0 0"
    ascent="750"
    descent="-250"
    x-height="498"
    cap-height="680"
    bbox="-43 -199 1341 911"
    underline-thickness="50"
    underline-position="-225"
    unicode-range="U+000D-FB02"
  />
<missing-glyph horiz-adv-x="0" 
 />
    <glyph glyph-name="fi" unicode="fi" horiz-adv-x="606" 
d="M188 0h-133v467q0 107 57.5 164.5t162.5 57.5q64 0 141 -11h134v-129h-134l-2 4q-1 4 -3 5q-58 12 -112 12q-50 0 -81 -22t-31 -69v-36h152v-114h-152zM417 498h133v-498h-133v498z" />
    <glyph glyph-name="fl" unicode="fl" horiz-adv-x="607" 
d="M188 0h-133v467q0 107 57.5 164.5t162.5 57.5q67 0 144 -11h132v-678h-133v558q-81 12 -119 12q-50 0 -81 -22t-31 -69v-36h152v-114h-152z" />
    <glyph glyph-name=".notdef" horiz-adv-x="0" 
 />
    <glyph glyph-name="uni0000" horiz-adv-x="0" 
 />
    <glyph glyph-name="uni0000" horiz-adv-x="0" 
 />
    <glyph glyph-name="uni000D" unicode="&#xd;" horiz-adv-x="0" 
 />
    <glyph glyph-name="space" unicode=" " horiz-adv-x="250" 
 />
    <glyph glyph-name="exclam" unicode="!" horiz-adv-x="324" 
d="M220 188h-115l-18 492h151zM229 0h-133v129h133v-129z" />
    <glyph glyph-name="quotedbl" unicode="&#x22;" horiz-adv-x="367" 
d="M228 453l-19 227h126l-19 -227h-88zM52 453l-19 227h126l-19 -227h-88z" />
    <glyph glyph-name="numbersign" unicode="#" horiz-adv-x="698" 
d="M107 155h-80l34 106h80l42 131h-84l34 106h84l58 182h114l-56 -182h134l59 182h114l-56 -182h87l-34 -106h-85l-41 -131h88l-34 -106h-86l-47 -155h-124l50 155h-129l-48 -155h-123zM261 261h131l41 131h-132z" />
    <glyph glyph-name="dollar" unicode="$" horiz-adv-x="576" 
d="M233 284q-43 15 -72.5 30t-61 39t-48 59.5t-16.5 80.5q0 78 51 128t147 64v85h121v-83q102 -11 156 -49v-130q-99 53 -195 53q-19 0 -39 -3t-41.5 -10.5t-35.5 -22t-14 -34.5q0 -31 48 -56q14 -7 33 -14.5t46 -16.5t42 -15q41 -15 69.5 -30.5t58 -39t45 -57t15.5 -76.5
t-15 -79t-59 -68t-114 -43v-119h-121v115q-116 7 -189 41v143q114 -56 228 -56q18 0 35.5 2t38.5 8t33.5 19t12.5 32q0 31 -38 54q-11 7 -26 13.5t-27.5 11t-34.5 12.5z" />
    <glyph glyph-name="percent" unicode="%" horiz-adv-x="993" 
d="M302 0l268 680h124l-268 -680h-124zM230 263q-88 0 -132 61t-44 154q0 92 44 151.5t132 59.5q87 0 131 -59.5t44 -151.5q0 -93 -44 -154t-131 -61zM230 375q60 0 60 103q0 101 -60 101t-60 -101q0 -103 60 -103zM763 -10q-87 0 -131 60.5t-44 153.5q0 92 44 152t131 60
q88 0 132 -60t44 -152q0 -93 -44 -153.5t-132 -60.5zM763 102q61 0 61 102t-61 102q-59 0 -59 -102t59 -102z" />
    <glyph glyph-name="ampersand" unicode="&#x26;" horiz-adv-x="670" 
d="M44 206q0 91 78 142q-40 52 -40 129q0 98 58 153.5t154 55.5h124v-129h-99q-39 0 -63 -20.5t-24 -55.5q0 -91 120 -91h72v72h130v-72h72v-129h-72v-261h-222q-139 0 -213.5 54.5t-74.5 151.5zM190 226q0 -29 16 -49.5t42.5 -30t51.5 -13.5t52 -4h72v132h-80
q-76 0 -134 23q-20 -26 -20 -58z" />
    <glyph glyph-name="quotesingle" unicode="'" horiz-adv-x="191" 
d="M52 453l-19 227h126l-19 -227h-88z" />
    <glyph glyph-name="parenleft" unicode="(" horiz-adv-x="309" 
d="M65 340q-2 190 104 360h97q-35 -86 -55 -188.5t-20 -171.5q0 -71 19.5 -172.5t55.5 -187.5h-97q-106 170 -104 360z" />
    <glyph glyph-name="parenright" unicode=")" horiz-adv-x="309" 
d="M244 340q2 -190 -104 -360h-97q36 86 55.5 187.5t19.5 172.5q0 69 -20 171.5t-55 188.5h97q106 -170 104 -360z" />
    <glyph glyph-name="asterisk" unicode="*" horiz-adv-x="450" 
d="M170 506l-127 32l62 108l94 -95l-36 129h124l-35 -129l93 95l62 -108l-127 -32l127 -31l-62 -109l-93 97l35 -130h-124l36 130l-94 -97l-62 109z" />
    <glyph glyph-name="plus" unicode="+" horiz-adv-x="590" 
d="M242 219h-177v106h177v173h106v-173h176v-106h-176v-174h-106v174z" />
    <glyph glyph-name="comma" unicode="," horiz-adv-x="277" 
d="M65 -71l20 217h126l-59 -217h-87z" />
    <glyph glyph-name="hyphen" unicode="-" horiz-adv-x="439" 
d="M65 316h308v-106h-308v106z" />
    <glyph glyph-name="period" unicode="." horiz-adv-x="257" 
d="M65 0v129h126v-129h-126z" />
    <glyph glyph-name="slash" unicode="/" horiz-adv-x="387" 
d="M3 0l259 680h122l-258 -680h-123z" />
    <glyph glyph-name="zero" unicode="0" horiz-adv-x="668" 
d="M334 -13q-74 0 -131 28t-91 77.5t-51 111.5t-17 135q0 72 17 134t51 111t91 77t131 28q98 0 165 -49.5t96 -126t29 -174.5q0 -73 -17 -135t-51 -111.5t-91 -77.5t-131 -28zM334 116q51 0 83.5 33.5t44 80.5t11.5 109q0 61 -11.5 108t-44 80.5t-83.5 33.5t-83.5 -33.5
t-44 -80.5t-11.5 -108q0 -62 11.5 -109t44 -80.5t83.5 -33.5z" />
    <glyph glyph-name="one" unicode="1" horiz-adv-x="443" 
d="M44 640l148 40h142v-680h-142v554l-148 -32v118z" />
    <glyph glyph-name="two" unicode="2" horiz-adv-x="578" 
d="M527 0h-483v137q72 49 111.5 77t88.5 66.5t73.5 65t42 57.5t17.5 59q0 46 -31.5 72.5t-89.5 26.5q-12 0 -24 -1.5t-22.5 -4t-22.5 -7l-20 -7.5t-20 -9.5t-18 -10t-16.5 -11t-14.5 -10t-14 -9.5t-11 -8v142q102 64 214 64q128 0 186.5 -59t58.5 -150q0 -57 -22.5 -108.5
t-66.5 -95t-83 -73t-97 -66.5h264v-137z" />
    <glyph glyph-name="three" unicode="3" horiz-adv-x="565" 
d="M262 -9q-117 0 -218 48v143q33 -22 87.5 -42.5t104.5 -20.5q130 0 130 83q0 31 -18.5 48.5t-70.5 27t-146 9.5v102q130 0 177 20t47 65q0 37 -34.5 62t-81.5 25q-77 0 -175 -68v141q100 56 204 56q123 0 182.5 -56.5t59.5 -137.5q0 -99 -84 -150q52 -24 73.5 -61
t21.5 -91q0 -100 -65.5 -151.5t-193.5 -51.5z" />
    <glyph glyph-name="four" unicode="4" horiz-adv-x="650" 
d="M22 141v123l307 416h180v-416h97v-123h-97v-141h-142v141h-345zM367 519l-190 -255h190v255z" />
    <glyph glyph-name="five" unicode="5" horiz-adv-x="574" 
d="M261 -10q-120 0 -217 47v141q85 -59 193 -59q59 0 99 21.5t40 67.5q0 117 -303 89q-6 0 -28 -2l32 385h415v-123h-289l-11 -137q339 18 339 -207q0 -104 -69.5 -163.5t-200.5 -59.5z" />
    <glyph glyph-name="six" unicode="6" horiz-adv-x="621" 
d="M322 -13q-119 0 -198.5 80t-79.5 243q0 94 28.5 169t83 126.5t140 72t194.5 2.5v-131q-250 42 -288 -162q0 -1 -1 -4t-1 -5q61 61 154 61q99 0 161 -61.5t62 -159.5q0 -107 -73 -169t-182 -62zM323 306q-39 0 -70.5 -23.5t-50.5 -55.5q24 -111 115 -111q48 0 76.5 28
t28.5 68q0 41 -28.5 67.5t-70.5 26.5z" />
    <glyph glyph-name="seven" unicode="7" horiz-adv-x="520" 
d="M22 557v123h476v-123l-232 -557h-154l236 557h-326z" />
    <glyph glyph-name="eight" unicode="8" horiz-adv-x="634" 
d="M44 199q0 99 88 157q-67 48 -67 134q0 89 61.5 144t190.5 55t190.5 -55t61.5 -144q0 -86 -67 -134q88 -58 88 -157q0 -93 -72.5 -152.5t-200.5 -59.5t-200.5 59.5t-72.5 152.5zM317 305q-61 0 -89.5 -28.5t-28.5 -68.5t32.5 -66t85.5 -26t85.5 26t32.5 66q0 39 -29.5 68
t-88.5 29zM220 482q0 -34 23.5 -57t73.5 -23t73.5 23t23.5 57q0 36 -26.5 57.5t-70.5 21.5t-70.5 -21.5t-26.5 -57.5z" />
    <glyph glyph-name="nine" unicode="9" horiz-adv-x="621" 
d="M267 238q-100 0 -161.5 61t-61.5 160q0 107 72.5 168.5t181.5 61.5q57 0 106 -18.5t88.5 -55.5t62 -101t22.5 -148q0 -93 -28.5 -168t-82.5 -126.5t-140.5 -72.5t-194.5 -3v131q252 -41 288 164q2 6 2 8q-61 -61 -154 -61zM304 561q-49 0 -77.5 -28t-28.5 -69t28.5 -67
t71.5 -26q72 0 120 78q-24 112 -114 112z" />
    <glyph glyph-name="colon" unicode=":" horiz-adv-x="255" 
d="M65 0v131h125v-131h-125zM65 498h125v-131h-125v131z" />
    <glyph glyph-name="semicolon" unicode=";" horiz-adv-x="277" 
d="M85 367v131h125v-131h-125zM65 -71l20 217h126l-59 -217h-87z" />
    <glyph glyph-name="less" unicode="&#x3c;" horiz-adv-x="577" 
d="M511 72l-446 159v109l446 158v-109l-306 -104l306 -103v-110z" />
    <glyph glyph-name="equal" unicode="=" horiz-adv-x="581" 
d="M65 221h451v-106h-451v106zM516 305h-451v106h451v-106z" />
    <glyph glyph-name="greater" unicode="&#x3e;" horiz-adv-x="577" 
d="M65 498l446 -158v-109l-446 -159v110l307 103l-307 104v109z" />
    <glyph glyph-name="question" unicode="?" horiz-adv-x="509" 
d="M43 629q87 60 203 60q111 0 165 -51t54 -137q0 -73 -41.5 -128.5t-133.5 -113.5v-90h-133v145q79 42 116 79.5t37 84.5q0 42 -26.5 62.5t-68.5 20.5q-78 0 -172 -71v139zM156 0v120h134v-120h-134z" />
    <glyph glyph-name="at" unicode="@" horiz-adv-x="940" 
d="M65 286q0 181 111.5 292t293.5 111t293 -110.5t111 -292.5q0 -44 -12 -85.5t-35 -76.5t-63 -56t-90 -21q-110 0 -131 85q-44 -47 -113 -47q-84 0 -140.5 59t-56.5 144q0 83 56.5 142t140.5 59q66 0 107 -41v33h105v-257q0 -84 55 -84q23 0 39 15t23 39.5t10 46.5t3 45
q0 136 -83.5 219t-219.5 83t-219 -83t-83 -219t83 -219t219 -83q75 0 163 20v-101q-72 -21 -162 -21q-182 0 -293.5 111t-111.5 293zM438 396q-46 0 -71.5 -33t-25.5 -75q0 -43 25.5 -76.5t71.5 -33.5q33 0 59 21.5t40 51.5v75q-13 28 -39 49t-60 21z" />
    <glyph glyph-name="A" unicode="A" 
d="M145 0h-141l239 680h177l240 -680h-141l-47 132h-281zM332 539l-100 -287h200z" />
    <glyph glyph-name="B" unicode="B" horiz-adv-x="640" 
d="M60 0v680h286q106 0 167 -45.5t61 -126.5q0 -109 -105 -154q67 -18 102.5 -62t35.5 -110q0 -87 -61 -134.5t-170 -47.5h-316zM202 124h158q52 0 76 24t24 61q0 35 -24 58.5t-76 23.5h-158v-167zM202 397h125q50 0 75 23t25 57t-24.5 56.5t-74.5 22.5h-126v-159z" />
    <glyph glyph-name="C" unicode="C" horiz-adv-x="684" 
d="M364 -10q-148 0 -239.5 102.5t-91.5 248.5t91 247.5t240 101.5q198 0 292 -176l-123 -77q-70 124 -169 124q-84 0 -132 -65t-48 -155t48.5 -156t131.5 -66q52 0 97 32t72 84l123 -78q-89 -167 -292 -167z" />
    <glyph glyph-name="D" unicode="D" horiz-adv-x="686" 
d="M322 0h-262v680h262q150 0 240.5 -93t90.5 -246q0 -152 -91 -246.5t-240 -94.5zM322 551h-120v-422h120q80 0 129.5 57.5t49.5 154.5t-49.5 153.5t-129.5 56.5z" />
    <glyph glyph-name="E" unicode="E" horiz-adv-x="590" 
d="M60 680h491v-123h-349v-164h289v-123h-289v-147h349v-123h-491v680z" />
    <glyph glyph-name="F" unicode="F" horiz-adv-x="566" 
d="M60 680h485v-123h-343v-166h283v-123h-283v-268h-142v680z" />
    <glyph glyph-name="G" unicode="G" horiz-adv-x="707" 
d="M379 -10q-107 0 -187 49t-119.5 128t-39.5 174q0 146 91.5 247.5t240.5 101.5q109 0 176.5 -41.5t112.5 -115.5l-122 -76q-63 104 -167 104q-84 0 -132.5 -65t-48.5 -155q0 -95 48 -160.5t146 -65.5q48 0 87.5 14.5t58.5 36.5v96h-145v105h273v-261q-97 -116 -273 -116z
" />
    <glyph glyph-name="H" unicode="H" horiz-adv-x="689" 
d="M202 0h-142v680h142v-282h285v282h142v-680h-142v274h-285v-274z" />
    <glyph glyph-name="I" unicode="I" horiz-adv-x="262" 
d="M60 0v680h143v-680h-143z" />
    <glyph glyph-name="J" unicode="J" horiz-adv-x="416" 
d="M115 -10q-42 0 -92 10v127q26 -7 94 -7q55 0 76 26t21 76v458h142v-463q0 -226 -241 -227z" />
    <glyph glyph-name="K" unicode="K" horiz-adv-x="648" 
d="M202 0h-142v680h142v-300l238 300h186l-259 -321l283 -359h-194l-185 239l-69 -85v-154z" />
    <glyph glyph-name="L" unicode="L" horiz-adv-x="533" 
d="M60 0v680h142v-557h304v-123h-446z" />
    <glyph glyph-name="M" unicode="M" horiz-adv-x="868" 
d="M60 680h217l158 -487l157 487h216v-680h-142v473l-156 -473h-151l-157 476v-476h-142v680z" />
    <glyph glyph-name="N" unicode="N" horiz-adv-x="708" 
d="M60 680h192l253 -484v484h143v-680h-200l-246 470v-470h-142v680z" />
    <glyph glyph-name="O" unicode="O" horiz-adv-x="747" 
d="M374 -10q-150 0 -245.5 100t-95.5 250q0 149 96 249.5t245 100.5t245 -100.5t96 -249.5t-96 -249.5t-245 -100.5zM374 118q85 0 137 63t52 159t-51.5 158.5t-137.5 62.5t-138 -63t-52 -158q0 -96 52 -159t138 -63z" />
    <glyph glyph-name="P" unicode="P" horiz-adv-x="631" 
d="M202 0h-142v680h276q133 0 200 -65t67 -168q0 -104 -67 -170t-200 -66h-134v-211zM202 339h129q63 0 91.5 30.5t28.5 77.5q0 104 -120 104h-129v-212z" />
    <glyph glyph-name="Q" unicode="Q" horiz-adv-x="740" 
d="M33 341q0 152 94 252t242 100q149 0 242.5 -100t93.5 -252q0 -100 -42.5 -180.5t-118.5 -125.5l182 -42v-116l-423 116q-122 22 -196 118.5t-74 229.5zM369 115q85 0 135 64t50 162t-50 161t-135 63t-135 -63t-50 -161t50 -162t135 -64z" />
    <glyph glyph-name="R" unicode="R" horiz-adv-x="645" 
d="M60 0v680h287q133 0 200 -64.5t67 -166.5q0 -165 -163 -204l163 -245h-156l-147 233h-109v-233h-142zM202 348h140q120 0 120 101q0 102 -120 102h-140v-203z" />
    <glyph glyph-name="S" unicode="S" horiz-adv-x="576" 
d="M277 -10q-128 0 -233 43v143q112 -56 228 -56q53 0 86.5 15.5t33.5 45.5q0 29 -37 51t-89 40t-104.5 41.5t-89.5 69t-37 110.5q0 92 69.5 144.5t197.5 52.5q136 0 208 -52v-130q-102 53 -195 53q-60 0 -95 -20.5t-35 -49.5q0 -27 37 -48t89.5 -38.5t104.5 -41t89 -68.5
t37 -109q0 -37 -12 -69t-40 -62t-82.5 -47.5t-130.5 -17.5z" />
    <glyph glyph-name="T" unicode="T" horiz-adv-x="656" 
d="M14 680h628v-123h-242v-557h-143v557h-243v123z" />
    <glyph glyph-name="U" unicode="U" horiz-adv-x="686" 
d="M60 680h142v-421q0 -62 35 -103.5t106 -41.5t105.5 41t34.5 104v421h143v-420q0 -123 -67 -196.5t-216 -73.5t-216 73.5t-67 196.5v420z" />
    <glyph glyph-name="V" unicode="V" horiz-adv-x="679" 
d="M4 680h150l185 -520l185 520h150l-246 -680h-177z" />
    <glyph glyph-name="W" unicode="W" horiz-adv-x="931" 
d="M182 0l-178 680h149l118 -469l121 469h147l120 -469l119 469h149l-178 -680h-160l-123 472l-125 -472h-159z" />
    <glyph glyph-name="X" unicode="X" horiz-adv-x="663" 
d="M4 680h163l168 -236l164 236h163l-248 -348l236 -332h-164l-159 225l-156 -225h-164l240 338z" />
    <glyph glyph-name="Y" unicode="Y" 
d="M261 245l-257 435h160l168 -296l167 296h160l-256 -434v-246h-142v245z" />
    <glyph glyph-name="Z" unicode="Z" horiz-adv-x="588" 
d="M29 557v123h530v-123l-344 -434h344v-123h-530v123l344 434h-344z" />
    <glyph glyph-name="bracketleft" unicode="[" horiz-adv-x="326" 
d="M65 699h218v-90h-89v-537h89v-90h-218v717z" />
    <glyph glyph-name="backslash" unicode="\" horiz-adv-x="387" 
d="M3 680h122l259 -680h-123z" />
    <glyph glyph-name="bracketright" unicode="]" horiz-adv-x="326" 
d="M261 -18h-218v90h89v537h-89v90h218v-717z" />
    <glyph glyph-name="asciicircum" unicode="^" horiz-adv-x="513" 
d="M43 324l158 356h111l157 -356h-118l-95 224l-94 -224h-119z" />
    <glyph glyph-name="underscore" unicode="_" horiz-adv-x="568" 
d="M38 0h492v-106h-492v106z" />
    <glyph glyph-name="grave" unicode="`" horiz-adv-x="302" 
d="M33 680h154l82 -137h-115z" />
    <glyph glyph-name="a" unicode="a" horiz-adv-x="515" 
d="M17 142q0 76 55 115.5t143 39.5l112 1v16q0 42 -27.5 62.5t-68.5 20.5q-63 0 -128 -58l-61 86q77 82 215 82q86 0 144.5 -47.5t58.5 -124.5v-335h-133v40q-55 -49 -138 -49q-74 0 -123 38.5t-49 112.5zM231 206q-76 0 -76 -54q0 -29 20.5 -43t52.5 -14q60 0 99 54v57h-96
z" />
    <glyph glyph-name="b" unicode="b" horiz-adv-x="586" 
d="M55 0v680h133v-234q54 61 140 61q102 0 166 -74.5t64 -182.5q0 -110 -64 -184.5t-166 -74.5q-87 0 -140 61v-52h-133zM188 311v-123q17 -29 51.5 -51.5t69.5 -22.5q55 0 83.5 40.5t28.5 95.5t-28.5 94.5t-83.5 39.5q-35 0 -69.5 -22t-51.5 -51z" />
    <glyph glyph-name="c" unicode="c" horiz-adv-x="535" 
d="M286 -9q-108 0 -183 75.5t-75 183.5q0 106 75.5 181.5t182.5 75.5q79 0 137.5 -37.5t86.5 -101.5l-105 -63q-16 35 -46.5 59t-71.5 24q-58 0 -90 -41.5t-32 -96.5q0 -56 32 -98t90 -42q42 0 73.5 26.5t47.5 63.5l104 -63q-27 -68 -85.5 -107t-140.5 -39z" />
    <glyph glyph-name="d" unicode="d" horiz-adv-x="586" 
d="M258 -9q-102 0 -166 74.5t-64 184.5q0 108 64 182.5t166 74.5q86 0 140 -61v234h133v-680h-133v51q-53 -60 -140 -60zM165 250q0 -55 28.5 -95t83.5 -40q35 0 69.5 22t51.5 51v123q-16 29 -51 50.5t-70 21.5q-55 0 -83.5 -39t-28.5 -94z" />
    <glyph glyph-name="e" unicode="e" horiz-adv-x="566" 
d="M28 250q0 105 75.5 181t177.5 76q111 0 179.5 -68.5t76.5 -190.5q1 -15 1 -55h-364q10 -37 43 -62.5t76 -25.5q37 0 69 18.5t49 46.5l105 -52q-75 -127 -224 -127q-123 0 -193.5 74t-70.5 185zM172 291h223q-4 41 -33.5 71t-74.5 30q-46 0 -76 -28.5t-39 -72.5z" />
    <glyph glyph-name="f" unicode="f" horiz-adv-x="366" 
d="M188 0h-133v467q0 107 50 164.5t144 57.5q69 0 124 -13v-119q-50 13 -96 13q-90 0 -90 -91v-63h152v-114h-152z" />
    <glyph glyph-name="g" unicode="g" horiz-adv-x="585" 
d="M28 270q0 99 64 168t166 69q85 0 139 -57v48h133v-418q0 -119 -66.5 -189.5t-193.5 -70.5q-96 0 -173 32v123q91 -35 157 -35q71 0 107 32t36 90v25q-54 -56 -139 -57q-102 0 -166 69.5t-64 170.5zM277 383q-54 0 -83 -33t-29 -80q0 -48 29 -82t83 -34q35 0 67.5 19
t52.5 42v100q-19 28 -51.5 48t-68.5 20z" />
    <glyph glyph-name="h" unicode="h" horiz-adv-x="565" 
d="M56 0v680h132v-237q61 64 155 64q72 0 119.5 -47t47.5 -116v-344h-138v290q0 92 -76 92q-58 0 -108 -60v-322h-132z" />
    <glyph glyph-name="i" unicode="i" horiz-adv-x="244" 
d="M55 0v498h133v-498h-133zM189 550h-134v130h134v-130z" />
    <glyph glyph-name="j" unicode="j" horiz-adv-x="283" 
d="M-18 -170v119q22 -6 57 -6q36 0 46 23.5t10 77.5v454h133v-453q0 -112 -40 -167.5t-133 -56.5q-28 0 -73 9zM229 680v-130h-134v130h134z" />
    <glyph glyph-name="k" unicode="k" horiz-adv-x="528" 
d="M56 680h132v-375l163 193h156l-194 -225l215 -273h-152l-143 180l-45 -54v-126h-132v680z" />
    <glyph glyph-name="l" unicode="l" horiz-adv-x="244" 
d="M55 0v680h133v-680h-133z" />
    <glyph glyph-name="m" unicode="m" horiz-adv-x="841" 
d="M188 0h-133v498h133v-56q60 65 144 65q92 0 135 -82q68 82 164 82q65 0 110 -47t45 -116v-344h-138v299q0 82 -64 82q-53 0 -97 -41v-340h-137v299q0 82 -64 82q-53 0 -98 -47v-334z" />
    <glyph glyph-name="n" unicode="n" horiz-adv-x="565" 
d="M55 0v498h133v-56q62 65 156 65q70 0 117.5 -47.5t47.5 -116.5v-343h-137v290q0 91 -77 91q-59 0 -107 -60v-321h-133z" />
    <glyph glyph-name="o" unicode="o" horiz-adv-x="571" 
d="M28 250q0 105 76 181t183 76q105 0 181 -76t76 -181q0 -108 -76 -184t-181 -76q-107 0 -183 76t-76 184zM165 250q0 -56 32.5 -98.5t90.5 -42.5q57 0 87.5 42.5t30.5 98.5q0 54 -30.5 96t-87.5 42q-58 0 -90.5 -42t-32.5 -96z" />
    <glyph glyph-name="p" unicode="p" horiz-adv-x="586" 
d="M55 -181v679h133v-52q54 61 140 61q102 0 166 -74.5t64 -182.5q0 -110 -64 -184.5t-166 -74.5q-88 0 -140 60v-232h-133zM188 311v-123q17 -29 51.5 -51t69.5 -22q55 0 83.5 40t28.5 95t-28.5 94t-83.5 39q-35 0 -69.5 -22t-51.5 -50z" />
    <glyph glyph-name="q" unicode="q" horiz-adv-x="586" 
d="M258 -9q-102 0 -166 74.5t-64 184.5q0 108 64 182.5t166 74.5q86 0 140 -61v52h133v-679h-133v232q-52 -60 -140 -60zM165 250q0 -55 28.5 -95t83.5 -40q35 0 69.5 22t51.5 51v123q-17 28 -51.5 50t-69.5 22q-55 0 -83.5 -39t-28.5 -94z" />
    <glyph glyph-name="r" unicode="r" horiz-adv-x="399" 
d="M55 498h133v-63q58 70 139 70q25 0 55 -8v-129q-26 6 -49 6q-46 0 -84.5 -20t-60.5 -56v-298h-133v498z" />
    <glyph glyph-name="s" unicode="s" horiz-adv-x="457" 
d="M429 156q0 -82 -60 -123.5t-165 -41.5q-73 0 -165 29v119q93 -34 167 -34q43 0 65.5 11.5t22.5 29.5q0 17 -27.5 28t-66.5 21.5t-78 26t-66.5 49.5t-27.5 84q0 69 60 111t143 42q98 0 165 -30v-114q-72 35 -145 35q-37 0 -61.5 -12.5t-24.5 -34.5q0 -16 27 -26.5t66 -20
t78 -24t66 -46.5t27 -79z" />
    <glyph glyph-name="t" unicode="t" horiz-adv-x="376" 
d="M55 216v464h133v-182h152v-114h-152v-169q0 -51 14.5 -76.5t52.5 -25.5q59 0 85 6v-119q-43 -9 -101 -9q-184 1 -184 225z" />
    <glyph glyph-name="u" unicode="u" horiz-adv-x="565" 
d="M55 498h138v-290q0 -92 74 -92q66 0 109 52v330h133v-498h-133v62q-62 -71 -155 -71q-71 0 -118.5 47t-47.5 116v344z" />
    <glyph glyph-name="v" unicode="v" horiz-adv-x="539" 
d="M4 498h153l113 -352l112 352h153l-181 -498h-170z" />
    <glyph glyph-name="w" unicode="w" horiz-adv-x="714" 
d="M4 498h146l62 -300l73 300h144l73 -300l62 300h147l-131 -498h-150l-72 296l-73 -296h-150z" />
    <glyph glyph-name="x" unicode="x" horiz-adv-x="527" 
d="M185 248l-181 250h158l106 -147l99 147h151l-177 -247l182 -251h-158l-108 148l-100 -148h-151z" />
    <glyph glyph-name="y" unicode="y" horiz-adv-x="543" 
d="M209 11l-205 487h147l121 -325l127 325h141l-266 -679h-140z" />
    <glyph glyph-name="z" unicode="z" horiz-adv-x="459" 
d="M24 384v114h411v-114l-240 -270h240v-114h-411v114l240 270h-240z" />
    <glyph glyph-name="braceleft" unicode="{" horiz-adv-x="376" 
d="M65 384q17 0 26.5 1.5t21.5 6.5t17.5 18t5.5 34v152q0 56 24.5 79.5t81.5 23.5h91v-90h-49q-33 0 -33 -40v-145q0 -58 -57 -84q57 -26 57 -84v-146q0 -39 33 -39h49v-90h-91q-57 0 -81.5 23.5t-24.5 79.5v152q0 21 -5.5 34t-17.5 18t-21.5 6.5t-26.5 1.5v88z" />
    <glyph glyph-name="bar" unicode="|" horiz-adv-x="303" 
d="M87 -199v989h129v-989h-129z" />
    <glyph glyph-name="braceright" unicode="}" horiz-adv-x="376" 
d="M43 609v90h91q57 0 81.5 -23.5t24.5 -79.5v-152q0 -21 5.5 -34t17.5 -18t21.5 -6.5t26.5 -1.5v-88q-17 0 -26.5 -1.5t-21.5 -6.5t-17.5 -18t-5.5 -34v-152q0 -56 -24.5 -79.5t-81.5 -23.5h-91v90h49q33 0 33 39v146q0 58 57 84q-57 26 -57 84v145q0 40 -33 40h-49z" />
    <glyph glyph-name="asciitilde" unicode="~" horiz-adv-x="581" 
d="M279 261q-55 31 -86.5 22t-32.5 -52h-114q0 115 80 160.5t177 -10.5q55 -31 86.5 -22t32.5 52h114q0 -115 -80 -161.5t-177 11.5z" />
    <glyph glyph-name="exclamdown" unicode="&#xa1;" horiz-adv-x="324" 
d="M104 492h115l18 -492h-151zM95 680h133v-129h-133v129z" />
    <glyph glyph-name="cent" unicode="&#xa2;" horiz-adv-x="551" 
d="M33 250q0 93 60.5 164.5t151.5 88.5v101h88v-100q133 -20 183 -136l-105 -63q-17 34 -50 58.5t-69 24.5q-56 0 -89 -40t-33 -98q0 -57 33.5 -98.5t88.5 -41.5q37 0 71.5 27t49.5 63l105 -63q-24 -58 -71.5 -95.5t-113.5 -48.5v-126h-88v128q-91 17 -151.5 88.5
t-60.5 166.5z" />
    <glyph glyph-name="sterling" unicode="&#xa3;" horiz-adv-x="573" 
d="M64 382h72v116q0 200 187 200q107 0 187 -20v-108q-70 20 -145 20q-42 0 -64 -24.5t-22 -70.5v-113h174v-87h-174v-36q0 -91 -25 -145h256v-114h-446v114q72 4 72 117v64h-72v87z" />
    <glyph glyph-name="currency" unicode="&#xa4;" horiz-adv-x="568" 
d="M129 414l-64 64l68 67l63 -63q41 23 89 23q46 0 87 -23l63 63l68 -67l-64 -64q24 -40 24 -88q0 -45 -24 -88l64 -63l-68 -67l-63 63q-41 -23 -87 -23q-48 0 -89 23l-63 -63l-68 67l64 64q-23 38 -23 87q0 50 23 88zM209 334v-8v-7q2 -27 21 -46t46 -22q3 -1 9 -1h8
q29 3 48.5 24.5t19.5 51.5q0 6 -1 9q-3 27 -22 46t-46 21q-33 0 -56 -17.5t-27 -50.5z" />
    <glyph glyph-name="yen" unicode="&#xa5;" horiz-adv-x="624" 
d="M220 286l-217 394h150l159 -295l159 295h150l-212 -387l-5 -7h97v-70h-117v-52h117v-70h-117v-94h-143v94h-129v70h129v52h-129v70h108z" />
    <glyph glyph-name="brokenbar" unicode="&#xa6;" horiz-adv-x="289" 
d="M87 429v361h115v-361h-115zM87 162h115v-361h-115v361z" />
    <glyph glyph-name="section" unicode="&#xa7;" horiz-adv-x="492" 
d="M327 53q0 24 -29 41t-70.5 30.5t-83.5 31.5t-71 53.5t-29 86.5q0 82 70 122q-70 44 -70 119q0 73 56.5 114.5t157.5 41.5q109 0 163 -41v-103q-81 45 -154 45q-48 0 -78 -16t-30 -42q0 -20 21.5 -34.5t53.5 -23t69.5 -22.5t69.5 -30.5t53.5 -48.5t21.5 -75
q0 -82 -68 -123q69 -43 69 -119q0 -64 -48 -108.5t-162 -44.5q-113 0 -187 36v110q30 -18 83 -32t103 -14q89 0 89 46zM327 298q0 25 -23 40t-69 30q-35 -8 -55.5 -26.5t-20.5 -42.5q0 -25 22 -39.5t67 -29.5q37 5 58 24.5t21 43.5z" />
    <glyph glyph-name="dieresis" unicode="&#xa8;" horiz-adv-x="326" 
d="M186 549v131h107v-131h-107zM139 549h-106v131h106v-131z" />
    <glyph glyph-name="copyright" unicode="&#xa9;" horiz-adv-x="864" 
d="M60 340q0 153 109.5 262.5t262.5 109.5t262.5 -109.5t109.5 -262.5t-109.5 -262.5t-262.5 -109.5t-262.5 109.5t-109.5 262.5zM154 341q0 -115 82 -197t197 -82q114 0 195.5 82t81.5 197q0 114 -81.5 195.5t-195.5 81.5q-115 0 -197 -81.5t-82 -195.5zM431 127
q68 0 117 33t71 89l-86 52q-13 -30 -41 -52.5t-60 -22.5q-48 0 -75 35.5t-27 80.5t27 79.5t75 34.5q31 0 58.5 -20.5t40.5 -48.5l86 52q-22 53 -70.5 84.5t-115.5 31.5q-88 0 -151 -63t-63 -150q0 -89 63 -152t151 -63z" />
    <glyph glyph-name="ordfeminine" unicode="&#xaa;" horiz-adv-x="366" 
d="M33 443q0 50 36 76.5t91 26.5h74v3q0 56 -59 56q-43 0 -85 -38l-41 69q53 53 134 53q69 0 110 -30.5t41 -84.5v-227h-100v29q-31 -36 -89 -36q-51 0 -81.5 26t-30.5 77zM176 486q-49 0 -49 -36q0 -38 47 -38q39 0 60 34v40h-58z" />
    <glyph glyph-name="guillemotleft" unicode="&#xab;" horiz-adv-x="571" 
d="M65 249v106l203 121v-129l-102 -45l102 -46v-128zM506 128l-203 121v106l203 121v-129l-103 -45l103 -46v-128z" />
    <glyph glyph-name="logicalnot" unicode="&#xac;" horiz-adv-x="660" 
d="M488 229h-423v106h529v-268h-106v162z" />
    <glyph glyph-name="registered" unicode="&#xae;" horiz-adv-x="864" 
d="M60 340q0 153 109.5 262.5t262.5 109.5t262.5 -109.5t109.5 -262.5t-109.5 -262.5t-262.5 -109.5t-262.5 109.5t-109.5 262.5zM154 341q0 -115 82 -197t197 -82q114 0 195.5 82t81.5 197q0 114 -81.5 195.5t-195.5 81.5q-115 0 -197 -81.5t-82 -195.5zM277 531h168
q75 0 112 -35.5t37 -98.5q0 -96 -77 -125l71 -123h-105l-62 111h-43v-111h-101v382zM378 439v-87h46q35 0 50.5 10.5t15.5 34.5q0 23 -16 32.5t-50 9.5h-46z" />
    <glyph glyph-name="macron" unicode="&#xaf;" horiz-adv-x="301" 
d="M33 676h235v-88h-235v88z" />
    <glyph glyph-name="degree" unicode="&#xb0;" horiz-adv-x="379" 
d="M33 534q0 64 46.5 110.5t110.5 46.5t110.5 -46.5t46.5 -110.5t-46.5 -110.5t-110.5 -46.5t-110.5 46.5t-46.5 110.5zM135 534q0 -23 16.5 -40t40.5 -17t40.5 17t16.5 40q0 24 -16.5 41t-40.5 17t-40.5 -17t-16.5 -41z" />
    <glyph glyph-name="plusminus" unicode="&#xb1;" horiz-adv-x="594" 
d="M65 300v106h179v134h106v-134h178v-106h-178v-131h-106v131h-179zM528 0h-463v106h463v-106z" />
    <glyph glyph-name="twosuperior" unicode="&#xb2;" horiz-adv-x="408" 
d="M349 279h-295v111q13 7 36 19.5t36 20t31.5 18.5t29 20t21 19.5t15 21.5t4.5 23q0 46 -56 46q-27 0 -55 -13t-45 -28v114q62 38 131 38q78 0 114.5 -35t36.5 -90q0 -116 -147 -174h143v-111z" />
    <glyph glyph-name="threesuperior" unicode="&#xb3;" horiz-adv-x="401" 
d="M193 268q-73 0 -139 32v103q17 -13 50 -24t60 -11q31 0 48.5 9.5t17.5 25.5q0 37 -125 37v78q113 0 113 41q0 32 -59 32q-36 0 -93 -37v103q54 32 124 32q73 0 110.5 -33.5t37.5 -80.5q0 -54 -46 -89q54 -31 54 -91q0 -58 -41 -92.5t-112 -34.5z" />
    <glyph glyph-name="acute" unicode="&#xb4;" horiz-adv-x="302" 
d="M33 543l82 137h154l-121 -137h-115z" />
    <glyph glyph-name="mu" unicode="&#xb5;" horiz-adv-x="565" 
d="M55 -190v688h138v-290q0 -92 74 -92q65 0 109 51v331h133v-498h-133v62q-61 -71 -155 -71q-19 0 -28 4v-185h-138z" />
    <glyph glyph-name="paragraph" unicode="&#xb6;" horiz-adv-x="707" 
d="M273 208q-104 2 -166.5 66.5t-62.5 169.5q0 106 65 171t171 65h340v-870h-119v732h-109v-732h-119v398z" />
    <glyph glyph-name="periodcentered" unicode="&#xb7;" horiz-adv-x="259" 
d="M65 300v125h129v-125h-129z" />
    <glyph glyph-name="cedilla" unicode="&#xb8;" horiz-adv-x="229" 
d="M33 -185v59q34 0 47 12.5t7 30.5t-25 37l14 46h86l-14 -46q49 -24 49 -66q0 -73 -164 -73z" />
    <glyph glyph-name="onesuperior" unicode="&#xb9;" horiz-adv-x="316" 
d="M141 577l-87 -16v96l87 23h120v-402h-120v299z" />
    <glyph glyph-name="ordmasculine" unicode="&#xba;" horiz-adv-x="414" 
d="M33 516q0 72 51.5 122.5t123.5 50.5t123 -50.5t51 -122.5t-51 -124t-123 -52t-123.5 52t-51.5 124zM136 516q0 -37 19 -64t53 -27t52.5 27t18.5 64q0 36 -18.5 62.5t-52.5 26.5t-53 -27t-19 -62z" />
    <glyph glyph-name="guillemotright" unicode="&#xbb;" horiz-adv-x="571" 
d="M303 347v129l203 -121v-106l-203 -121v128l102 46zM65 347v129l203 -121v-106l-203 -121v128l103 46z" />
    <glyph glyph-name="onequarter" unicode="&#xbc;" horiz-adv-x="946" 
d="M517 78v93l172 231h142v-231h60v-93h-60v-78h-110v78h-204zM241 0l259 680h123l-258 -680h-124zM54 561v96l87 23h120v-402h-120v299zM620 171h101v133z" />
    <glyph glyph-name="onehalf" unicode="&#xbd;" horiz-adv-x="921" 
d="M863 0h-296v111q13 7 37 19.5t36.5 19.5t31 18.5t29 20t21 19t15 21.5t4.5 23q0 46 -57 46q-52 0 -100 -40v114q64 38 131 38q79 0 115 -35t36 -91q0 -114 -146 -173h143v-111zM365 0h-124l259 680h123zM54 657l87 23h120v-402h-120v299l-87 -16v96z" />
    <glyph glyph-name="threequarters" unicode="&#xbe;" horiz-adv-x="994" 
d="M565 78v93l172 231h142v-231h60v-93h-60v-78h-110v78h-204zM194 268q-74 0 -140 32v103q17 -13 50 -24t60 -11q31 0 49 10t18 25q0 37 -126 37v78q113 0 113 41q0 32 -58 32q-37 0 -94 -37v103q54 32 124 32q75 0 111.5 -33.5t36.5 -80.5q0 -56 -46 -89q55 -31 55 -91
q0 -58 -41 -92.5t-112 -34.5zM290 0l259 680h123l-258 -680h-124zM668 171h101v133z" />
    <glyph glyph-name="questiondown" unicode="&#xbf;" horiz-adv-x="509" 
d="M43 179q0 73 41.5 128.5t133.5 113.5v90h133v-145q-79 -42 -116 -79.5t-37 -84.5q0 -42 26.5 -62.5t68.5 -20.5q78 0 172 71v-139q-87 -60 -203 -60q-111 0 -165 51t-54 137zM218 560v120h134v-120h-134z" />
    <glyph glyph-name="Agrave" unicode="&#xc0;" 
d="M4 0l239 680h177l240 -680h-141l-47 132h-281l-46 -132h-141zM332 539l-100 -287h200zM334 736l-121 137h154l82 -137h-115z" />
    <glyph glyph-name="Aacute" unicode="&#xc1;" 
d="M4 0l239 680h177l240 -680h-141l-47 132h-281l-46 -132h-141zM332 539l-100 -287h200zM328 736h-115l82 137h154z" />
    <glyph glyph-name="Acircumflex" unicode="&#xc2;" 
d="M4 0l239 680h177l240 -680h-141l-47 132h-281l-46 -132h-141zM332 539l-100 -287h200zM276 737h-110l112 136h106l113 -136h-111l-55 53z" />
    <glyph glyph-name="Atilde" unicode="&#xc3;" 
d="M145 0h-141l239 680h177l240 -680h-141l-47 132h-281zM186 738q0 125 82 125q33 0 73 -20q24 -12 33 -12q20 0 20 40h82q0 -64 -22 -95.5t-60 -31.5q-32 0 -73 22q-24 12 -33 12q-20 0 -20 -40h-82zM232 252h200l-100 287z" />
    <glyph glyph-name="Adieresis" unicode="&#xc4;" 
d="M4 0l239 680h177l240 -680h-141l-47 132h-281l-46 -132h-141zM332 539l-100 -287h200zM461 742h-107v131h107v-131zM201 742v131h106v-131h-106z" />
    <glyph glyph-name="Aring" unicode="&#xc5;" 
d="M145 0h-141l239 680h177l240 -680h-141l-47 132h-281zM227 807q0 44 30.5 74t73.5 30q44 0 74 -30t30 -74q0 -43 -30 -73.5t-74 -30.5q-43 0 -73.5 30.5t-30.5 73.5zM332 539l-100 -287h200zM331 837q-12 0 -21 -9t-9 -22q0 -12 9 -21t21 -9t21 9t9 21q0 13 -9 22t-21 9z
" />
    <glyph glyph-name="AE" unicode="&#xc6;" horiz-adv-x="898" 
d="M6 0l361 680h487v-123h-278v-157h218v-123h-218v-154h278v-123h-420v132h-217l-70 -132h-141zM279 252h155v293z" />
    <glyph glyph-name="Ccedilla" unicode="&#xc7;" horiz-adv-x="684" 
d="M33 341q0 146 91 247.5t240 101.5q198 0 292 -176l-123 -77q-70 124 -169 124q-84 0 -132 -65t-48 -155t48.5 -156t131.5 -66q52 0 97 32t72 84l123 -78q-84 -156 -270 -166l-11 -37q49 -24 49 -66q0 -73 -164 -73v59q34 0 47 12.5t7 30.5t-25 37l13 42
q-122 21 -195.5 118.5t-73.5 226.5z" />
    <glyph glyph-name="Egrave" unicode="&#xc8;" horiz-adv-x="590" 
d="M60 680h491v-123h-349v-164h289v-123h-289v-147h349v-123h-491v680zM297 736l-121 137h154l82 -137h-115z" />
    <glyph glyph-name="Eacute" unicode="&#xc9;" horiz-adv-x="590" 
d="M60 680h491v-123h-349v-164h289v-123h-289v-147h349v-123h-491v680zM291 736h-115l82 137h154z" />
    <glyph glyph-name="Ecircumflex" unicode="&#xca;" horiz-adv-x="590" 
d="M60 680h491v-123h-349v-164h289v-123h-289v-147h349v-123h-491v680zM239 737h-110l112 136h106l113 -136h-111l-55 53z" />
    <glyph glyph-name="Edieresis" unicode="&#xcb;" horiz-adv-x="590" 
d="M60 0v680h491v-123h-349v-164h289v-123h-289v-147h349v-123h-491zM317 742v131h107v-131h-107zM270 742h-106v131h106v-131z" />
    <glyph glyph-name="Igrave" unicode="&#xcc;" horiz-adv-x="262" 
d="M60 0v680h143v-680h-143zM14 873h154l82 -137h-115z" />
    <glyph glyph-name="Iacute" unicode="&#xcd;" horiz-adv-x="262" 
d="M60 0v680h143v-680h-143zM14 736l82 137h154l-121 -137h-115z" />
    <glyph glyph-name="Icircumflex" unicode="&#xce;" horiz-adv-x="262" 
d="M60 0v680h143v-680h-143zM76 737h-110l112 136h106l113 -136h-111l-55 53z" />
    <glyph glyph-name="Idieresis" unicode="&#xcf;" horiz-adv-x="262" 
d="M60 0v680h143v-680h-143zM155 742v131h107v-131h-107zM2 873h106v-131h-106v131z" />
    <glyph glyph-name="Eth" unicode="&#xd0;" 
d="M5 269v106h51v305h262q150 0 240.5 -93t90.5 -246q0 -152 -91 -246.5t-240 -94.5h-262v269h-51zM198 269v-140h120q79 0 129.5 58t50.5 154q0 97 -50 153.5t-130 56.5h-120v-176h115v-106h-115z" />
    <glyph glyph-name="Ntilde" unicode="&#xd1;" horiz-adv-x="708" 
d="M202 0h-142v680h192l253 -484v484h143v-680h-200l-246 470v-470zM290 738h-82q0 125 82 125q33 0 73 -20q24 -12 33 -12q20 0 20 40h82q0 -64 -22 -95.5t-60 -31.5q-32 0 -73 22q-24 12 -33 12q-20 0 -20 -40z" />
    <glyph glyph-name="Ograve" unicode="&#xd2;" horiz-adv-x="747" 
d="M374 -10q-150 0 -245.5 100t-95.5 250q0 149 96 249.5t245 100.5t245 -100.5t96 -249.5t-96 -249.5t-245 -100.5zM374 118q85 0 137 63t52 159t-51.5 158.5t-137.5 62.5t-138 -63t-52 -158q0 -96 52 -159t138 -63zM255 873h154l82 -137h-115z" />
    <glyph glyph-name="Oacute" unicode="&#xd3;" horiz-adv-x="747" 
d="M374 -10q-150 0 -245.5 100t-95.5 250q0 149 96 249.5t245 100.5t245 -100.5t96 -249.5t-96 -249.5t-245 -100.5zM374 118q85 0 137 63t52 159t-51.5 158.5t-137.5 62.5t-138 -63t-52 -158q0 -96 52 -159t138 -63zM255 736l82 137h154l-121 -137h-115z" />
    <glyph glyph-name="Ocircumflex" unicode="&#xd4;" horiz-adv-x="747" 
d="M33 340q0 149 96 249.5t245 100.5t245 -100.5t96 -249.5t-96 -249.5t-245 -100.5q-150 0 -245.5 100t-95.5 250zM184 340q0 -96 52 -159t138 -63q85 0 137 63t52 159t-51.5 158.5t-137.5 62.5t-138 -63t-52 -158zM208 737l112 136h106l113 -136h-111l-55 53l-55 -53h-110
z" />
    <glyph glyph-name="Otilde" unicode="&#xd5;" horiz-adv-x="747" 
d="M374 -10q-150 0 -245.5 100t-95.5 250q0 149 96 249.5t245 100.5t245 -100.5t96 -249.5t-96 -249.5t-245 -100.5zM374 118q85 0 137 63t52 159t-51.5 158.5t-137.5 62.5t-138 -63t-52 -158q0 -96 52 -159t138 -63zM363 766q-21 15 -37 11.5t-16 -39.5h-82q0 62 21 94
t55.5 31.5t78.5 -20.5q21 -15 37 -11.5t16 39.5h82q0 -91 -45 -117t-110 12z" />
    <glyph glyph-name="Odieresis" unicode="&#xd6;" horiz-adv-x="747" 
d="M374 -10q-150 0 -245.5 100t-95.5 250q0 149 96 249.5t245 100.5t245 -100.5t96 -249.5t-96 -249.5t-245 -100.5zM184 340q0 -96 52 -159t138 -63q85 0 137 63t52 159t-51.5 158.5t-137.5 62.5t-138 -63t-52 -158zM396 742v131h107v-131h-107zM243 742v131h106v-131h-106
z" />
    <glyph glyph-name="multiply" unicode="&#xd7;" horiz-adv-x="533" 
d="M65 144l127 127l-127 126l76 75l126 -126l126 126l75 -76l-125 -125l125 -126l-75 -76l-126 127l-126 -127z" />
    <glyph glyph-name="Oslash" unicode="&#xd8;" horiz-adv-x="738" 
d="M298 -6l-24 -64h-123l39 106q-73 45 -115 126t-42 179q0 151 94.5 251.5t241.5 100.5q34 0 67 -6l20 53h122l-35 -93q76 -45 119 -126t43 -180q0 -152 -94 -253.5t-242 -101.5q-31 0 -71 8zM369 115q84 0 134.5 64.5t50.5 161.5q0 107 -62 169l-147 -392q7 -3 24 -3z
M242 173l147 390q-14 2 -20 2q-84 0 -134.5 -64t-50.5 -160q0 -105 58 -168z" />
    <glyph glyph-name="Ugrave" unicode="&#xd9;" horiz-adv-x="686" 
d="M60 260v420h142v-421q0 -62 35 -103.5t106 -41.5t105.5 41t34.5 104v421h143v-420q0 -123 -67 -196.5t-216 -73.5t-216 73.5t-67 196.5zM345 736l-121 137h154l82 -137h-115z" />
    <glyph glyph-name="Uacute" unicode="&#xda;" horiz-adv-x="686" 
d="M60 260v420h142v-421q0 -62 35 -103.5t106 -41.5t105.5 41t34.5 104v421h143v-420q0 -123 -67 -196.5t-216 -73.5t-216 73.5t-67 196.5zM339 736h-115l82 137h154z" />
    <glyph glyph-name="Ucircumflex" unicode="&#xdb;" horiz-adv-x="686" 
d="M343 -10q-149 0 -216 73.5t-67 196.5v420h142v-421q0 -62 35 -103.5t106 -41.5t105.5 41t34.5 104v421h143v-420q0 -123 -67 -196.5t-216 -73.5zM177 737l112 136h106l113 -136h-111l-55 53l-55 -53h-110z" />
    <glyph glyph-name="Udieresis" unicode="&#xdc;" horiz-adv-x="686" 
d="M343 -10q-149 0 -216 73.5t-67 196.5v420h142v-421q0 -62 35 -103.5t106 -41.5t105.5 41t34.5 104v421h143v-420q0 -123 -67 -196.5t-216 -73.5zM365 873h107v-131h-107v131zM212 742v131h106v-131h-106z" />
    <glyph glyph-name="Yacute" unicode="&#xdd;" 
d="M4 680h160l168 -296l167 296h160l-256 -434v-246h-142v245zM328 736h-115l82 137h154z" />
    <glyph glyph-name="Thorn" unicode="&#xde;" horiz-adv-x="622" 
d="M202 0h-142v680h142v-105h124q134 0 201 -65t67 -169q0 -105 -67 -170.5t-201 -65.5h-124v-105zM202 233h119q64 0 92.5 30.5t28.5 77.5q0 106 -121 106h-119v-214z" />
    <glyph glyph-name="germandbls" unicode="&#xdf;" horiz-adv-x="592" 
d="M198 0h-143v424q0 141 60 203t177 62q98 0 152.5 -44.5t54.5 -126.5q0 -36 -10.5 -63t-25 -41.5t-29 -24.5t-25 -19t-10.5 -19t16.5 -22t40 -27t47 -34.5t40 -53t16.5 -75.5q0 -62 -37.5 -105t-111.5 -43q-37 0 -81.5 10.5t-67.5 21.5v119q47 -32 94 -32q31 0 46.5 13.5
t15.5 34.5q0 23 -23 48t-51 43.5t-51 46t-23 55.5q0 23 12.5 40t27 26.5t27 28t12.5 44.5q0 36 -19.5 53.5t-50.5 17.5q-43 0 -61.5 -34t-18.5 -103v-424z" />
    <glyph glyph-name="agrave" unicode="&#xe0;" horiz-adv-x="515" 
d="M17 142q0 76 55 115.5t143 39.5l112 1v16q0 42 -27.5 62.5t-68.5 20.5q-63 0 -128 -58l-61 86q77 82 215 82q86 0 144.5 -47.5t58.5 -124.5v-335h-133v40q-55 -49 -138 -49q-74 0 -123 38.5t-49 112.5zM250 543l-121 137h154l82 -137h-115zM231 206q-76 0 -76 -54
q0 -29 20.5 -43t52.5 -14q60 0 99 54v57h-96z" />
    <glyph glyph-name="aacute" unicode="&#xe1;" horiz-adv-x="515" 
d="M17 142q0 76 55 115.5t143 39.5l112 1v16q0 42 -27.5 62.5t-68.5 20.5q-63 0 -128 -58l-61 86q77 82 215 82q86 0 144.5 -47.5t58.5 -124.5v-335h-133v40q-55 -49 -138 -49q-74 0 -123 38.5t-49 112.5zM254 543h-115l82 137h154zM231 206q-76 0 -76 -54q0 -29 20.5 -43
t52.5 -14q60 0 99 54v57h-96z" />
    <glyph glyph-name="acircumflex" unicode="&#xe2;" horiz-adv-x="515" 
d="M17 142q0 76 55 115.5t143 39.5l112 1v16q0 42 -27.5 62.5t-68.5 20.5q-63 0 -128 -58l-61 86q77 82 215 82q86 0 144.5 -47.5t58.5 -124.5v-335h-133v40q-55 -49 -138 -49q-74 0 -123 38.5t-49 112.5zM192 544h-110l112 136h106l113 -136h-111l-55 53zM231 206
q-76 0 -76 -54q0 -29 20.5 -43t52.5 -14q60 0 99 54v57h-96z" />
    <glyph glyph-name="atilde" unicode="&#xe3;" horiz-adv-x="515" 
d="M17 142q0 76 55 115.5t143 39.5l112 1v16q0 42 -27.5 62.5t-68.5 20.5q-63 0 -128 -58l-61 86q77 82 215 82q86 0 144.5 -47.5t58.5 -124.5v-335h-133v40q-55 -49 -138 -49q-74 0 -123 38.5t-49 112.5zM102 545q0 125 82 125q33 0 73 -20q24 -12 33 -12q20 0 20 40h82
q0 -64 -22 -95.5t-60 -31.5q-32 0 -73 22q-24 12 -33 12q-20 0 -20 -40h-82zM231 206q-76 0 -76 -54q0 -29 20.5 -43t52.5 -14q60 0 99 54v57h-96z" />
    <glyph glyph-name="adieresis" unicode="&#xe4;" horiz-adv-x="515" 
d="M17 142q0 76 55 115.5t143 39.5l112 1v16q0 42 -27.5 62.5t-68.5 20.5q-63 0 -128 -58l-61 86q77 82 215 82q86 0 144.5 -47.5t58.5 -124.5v-335h-133v40q-55 -49 -138 -49q-74 0 -123 38.5t-49 112.5zM231 206q-76 0 -76 -54q0 -29 20.5 -43t52.5 -14q60 0 99 54v57h-96
zM386 549h-107v131h107v-131zM126 680h106v-131h-106v131z" />
    <glyph glyph-name="aring" unicode="&#xe5;" horiz-adv-x="515" 
d="M17 142q0 76 55 115.5t143 39.5l112 1v16q0 42 -27.5 62.5t-68.5 20.5q-63 0 -128 -58l-61 86q77 82 215 82q86 0 144.5 -47.5t58.5 -124.5v-335h-133v40q-55 -49 -138 -49q-74 0 -123 38.5t-49 112.5zM247 510q-43 0 -73.5 30.5t-30.5 73.5q0 44 30.5 74t73.5 30
q44 0 74 -30t30 -74q0 -43 -30 -73.5t-74 -30.5zM231 206q-76 0 -76 -54q0 -29 20.5 -43t52.5 -14q60 0 99 54v57h-96zM217 613q0 -12 9 -21t21 -9t21 9t9 21q0 13 -9 22t-21 9t-21 -9t-9 -22z" />
    <glyph glyph-name="ae" unicode="&#xe6;" horiz-adv-x="867" 
d="M23 142q0 76 54 113.5t138 37.5q8 0 56.5 0.5t57.5 0.5v20q0 42 -27.5 62.5t-68.5 20.5q-63 0 -128 -58l-61 86q77 82 203 82q112 0 173 -62q68 62 161 62q130 0 193.5 -84.5t63.5 -218.5h-365q6 -40 39 -69.5t77 -29.5q38 0 71.5 19t49.5 46l106 -52q-79 -127 -224 -127
q-136 0 -210 94q-48 -94 -175 -94q-77 0 -130.5 39t-53.5 112zM588 392q-46 0 -76 -28.5t-39 -72.5h224q-7 42 -34.5 71.5t-74.5 29.5zM224 206q-76 0 -76 -54q0 -57 71 -57q70 0 110 69v42h-105z" />
    <glyph glyph-name="ccedilla" unicode="&#xe7;" horiz-adv-x="535" 
d="M28 250q0 106 75.5 181.5t182.5 75.5q79 0 137.5 -37.5t86.5 -101.5l-105 -63q-16 35 -46.5 59t-71.5 24q-58 0 -90 -41.5t-32 -96.5q0 -56 32 -98t90 -42q42 0 73.5 26.5t47.5 63.5l104 -63q-24 -62 -76.5 -101t-125.5 -44l-11 -38q49 -24 49 -66q0 -73 -164 -73v59
q34 0 47 12.5t7 30.5t-25 37l13 44q-86 21 -142 91t-56 161z" />
    <glyph glyph-name="egrave" unicode="&#xe8;" horiz-adv-x="566" 
d="M28 250q0 105 75.5 181t177.5 76q111 0 179.5 -68.5t76.5 -190.5q1 -15 1 -55h-364q10 -37 43 -62.5t76 -25.5q37 0 69 18.5t49 46.5l105 -52q-75 -127 -224 -127q-123 0 -193.5 74t-70.5 185zM172 291h223q-4 41 -33.5 71t-74.5 30q-46 0 -76 -28.5t-39 -72.5zM164 680
h154l82 -137h-115z" />
    <glyph glyph-name="eacute" unicode="&#xe9;" horiz-adv-x="566" 
d="M28 250q0 105 75.5 181t177.5 76q111 0 179.5 -68.5t76.5 -190.5q1 -15 1 -55h-364q10 -37 43 -62.5t76 -25.5q37 0 69 18.5t49 46.5l105 -52q-75 -127 -224 -127q-123 0 -193.5 74t-70.5 185zM172 291h223q-4 41 -33.5 71t-74.5 30q-46 0 -76 -28.5t-39 -72.5zM164 543
l82 137h154l-121 -137h-115z" />
    <glyph glyph-name="ecircumflex" unicode="&#xea;" horiz-adv-x="566" 
d="M292 -9q-123 0 -193.5 74t-70.5 185q0 105 75.5 181t177.5 76q111 0 179.5 -68.5t76.5 -190.5q1 -15 1 -55h-364q10 -37 43 -62.5t76 -25.5q37 0 69 18.5t49 46.5l105 -52q-75 -127 -224 -127zM227 544h-110l112 136h106l113 -136h-111l-55 53zM172 291h223
q-4 41 -33.5 71t-74.5 30q-46 0 -76 -28.5t-39 -72.5z" />
    <glyph glyph-name="edieresis" unicode="&#xeb;" horiz-adv-x="566" 
d="M28 250q0 105 75.5 181t177.5 76q111 0 179.5 -68.5t76.5 -190.5q1 -15 1 -55h-364q10 -37 43 -62.5t76 -25.5q37 0 69 18.5t49 46.5l105 -52q-75 -127 -224 -127q-123 0 -193.5 74t-70.5 185zM287 392q-46 0 -76 -28.5t-39 -72.5h223q-4 41 -33.5 71t-74.5 30zM413 549
h-107v131h107v-131zM153 549v131h106v-131h-106z" />
    <glyph glyph-name="igrave" unicode="&#xec;" horiz-adv-x="244" 
d="M55 0v498h133v-498h-133zM4 680h154l82 -137h-115z" />
    <glyph glyph-name="iacute" unicode="&#xed;" horiz-adv-x="244" 
d="M55 0v498h133v-498h-133zM4 543l82 137h154l-121 -137h-115z" />
    <glyph glyph-name="icircumflex" unicode="&#xee;" horiz-adv-x="244" 
d="M55 0v498h133v-498h-133zM67 544h-110l112 136h106l113 -136h-111l-55 53z" />
    <glyph glyph-name="idieresis" unicode="&#xef;" horiz-adv-x="244" 
d="M55 0v498h133v-498h-133zM146 549v131h107v-131h-107zM-7 680h106v-131h-106v131z" />
    <glyph glyph-name="eth" unicode="&#xf0;" horiz-adv-x="599" 
d="M247 440q90 0 162 -66q-15 96 -75 151l-116 -61l-47 80l69 36q-58 23 -139 23l81 122q123 -12 212 -63l96 50l47 -81l-65 -34q93 -103 93 -283q0 -88 -22.5 -153.5t-62 -102t-86.5 -53.5t-102 -17q-111 0 -185 63.5t-74 171.5q0 97 60 157t154 60zM188 225
q0 -44 29.5 -76t77.5 -32q52 0 81.5 39t36.5 106q-48 67 -118 67q-47 0 -77 -30t-30 -74z" />
    <glyph glyph-name="ntilde" unicode="&#xf1;" horiz-adv-x="565" 
d="M55 0v498h133v-56q62 65 156 65q70 0 117.5 -47.5t47.5 -116.5v-343h-137v290q0 91 -77 91q-59 0 -107 -60v-321h-133zM137 545q0 125 82 125q33 0 73 -20q24 -12 33 -12q20 0 20 40h82q0 -64 -22 -95.5t-60 -31.5q-32 0 -73 22q-24 12 -33 12q-20 0 -20 -40h-82z" />
    <glyph glyph-name="ograve" unicode="&#xf2;" horiz-adv-x="571" 
d="M28 250q0 105 76 181t183 76q105 0 181 -76t76 -181q0 -108 -76 -184t-181 -76q-107 0 -183 76t-76 184zM165 250q0 -56 32.5 -98.5t90.5 -42.5q57 0 87.5 42.5t30.5 98.5q0 54 -30.5 96t-87.5 42q-58 0 -90.5 -42t-32.5 -96zM167 680h154l82 -137h-115z" />
    <glyph glyph-name="oacute" unicode="&#xf3;" horiz-adv-x="571" 
d="M28 250q0 105 76 181t183 76q105 0 181 -76t76 -181q0 -108 -76 -184t-181 -76q-107 0 -183 76t-76 184zM165 250q0 -56 32.5 -98.5t90.5 -42.5q57 0 87.5 42.5t30.5 98.5q0 54 -30.5 96t-87.5 42q-58 0 -90.5 -42t-32.5 -96zM167 543l82 137h154l-121 -137h-115z" />
    <glyph glyph-name="ocircumflex" unicode="&#xf4;" horiz-adv-x="571" 
d="M287 -10q-107 0 -183 76t-76 184q0 105 76 181t183 76q105 0 181 -76t76 -181q0 -108 -76 -184t-181 -76zM165 250q0 -56 32.5 -98.5t90.5 -42.5q57 0 87.5 42.5t30.5 98.5q0 54 -30.5 96t-87.5 42q-58 0 -90.5 -42t-32.5 -96zM230 544h-110l112 136h106l113 -136h-111
l-55 53z" />
    <glyph glyph-name="otilde" unicode="&#xf5;" horiz-adv-x="571" 
d="M28 250q0 105 76 181t183 76q105 0 181 -76t76 -181q0 -108 -76 -184t-181 -76q-107 0 -183 76t-76 184zM165 250q0 -56 32.5 -98.5t90.5 -42.5q57 0 87.5 42.5t30.5 98.5q0 54 -30.5 96t-87.5 42q-58 0 -90.5 -42t-32.5 -96zM275 573q-21 15 -37 11.5t-16 -39.5h-82
q0 62 21 94t55.5 31.5t78.5 -20.5q21 -15 37 -11.5t16 39.5h82q0 -91 -45 -117t-110 12z" />
    <glyph glyph-name="odieresis" unicode="&#xf6;" horiz-adv-x="571" 
d="M287 -10q-107 0 -183 76t-76 184q0 105 76 181t183 76q105 0 181 -76t76 -181q0 -108 -76 -184t-181 -76zM165 250q0 -56 32.5 -98.5t90.5 -42.5q57 0 87.5 42.5t30.5 98.5q0 54 -30.5 96t-87.5 42q-58 0 -90.5 -42t-32.5 -96zM415 549h-107v131h107v-131zM261 549h-106
v131h106v-131z" />
    <glyph glyph-name="divide" unicode="&#xf7;" horiz-adv-x="594" 
d="M65 209v106h463v-106h-463zM235 368v131h125v-131h-125zM235 24v131h124v-131h-124z" />
    <glyph glyph-name="oslash" unicode="&#xf8;" horiz-adv-x="571" 
d="M287 507q17 0 35 -3q3 14 22 64h104q-3 -6 -16.5 -46.5t-17.5 -49.5q59 -34 94.5 -93t35.5 -129q0 -108 -76 -184t-181 -76q-26 0 -43 4q-3 -7 -11 -31l-9 -27h-105q2 6 15.5 44t16.5 48q-56 36 -89.5 94.5t-33.5 127.5q0 105 76 181t183 76zM286 111l5 -1q5 -1 9 0
q51 6 78.5 47t27.5 93q0 60 -36 98q-6 -15 -84 -237zM280 386h-9q-50 -6 -78 -46t-28 -90q0 -53 32 -93q6 18 23 65.5t37 101t23 62.5z" />
    <glyph glyph-name="ugrave" unicode="&#xf9;" horiz-adv-x="565" 
d="M55 154v344h138v-290q0 -92 74 -92q66 0 109 52v330h133v-498h-133v62q-62 -71 -155 -71q-71 0 -118.5 47t-47.5 116zM285 543l-121 137h154l82 -137h-115z" />
    <glyph glyph-name="uacute" unicode="&#xfa;" horiz-adv-x="565" 
d="M55 154v344h138v-290q0 -92 74 -92q66 0 109 52v330h133v-498h-133v62q-62 -71 -155 -71q-71 0 -118.5 47t-47.5 116zM279 543h-115l82 137h154z" />
    <glyph glyph-name="ucircumflex" unicode="&#xfb;" horiz-adv-x="565" 
d="M55 154v344h138v-290q0 -92 74 -92q66 0 109 52v330h133v-498h-133v62q-62 -71 -155 -71q-71 0 -118.5 47t-47.5 116zM227 544h-110l112 136h106l113 -136h-111l-55 53z" />
    <glyph glyph-name="udieresis" unicode="&#xfc;" horiz-adv-x="565" 
d="M55 154v344h138v-290q0 -92 74 -92q66 0 109 52v330h133v-498h-133v62q-62 -71 -155 -71q-71 0 -118.5 47t-47.5 116zM412 549h-107v131h107v-131zM152 680h106v-131h-106v131z" />
    <glyph glyph-name="yacute" unicode="&#xfd;" horiz-adv-x="543" 
d="M209 11l-205 487h147l121 -325l127 325h141l-266 -679h-140zM268 543h-115l82 137h154z" />
    <glyph glyph-name="thorn" unicode="&#xfe;" horiz-adv-x="586" 
d="M55 -190v870h133v-234q54 61 140 61q102 0 166.5 -74.5t64.5 -182.5q0 -110 -64.5 -184.5t-166.5 -74.5q-88 0 -140 60v-241h-133zM188 311v-123q17 -29 51.5 -51t69.5 -22q55 0 83.5 40t28.5 95t-28.5 94t-83.5 39q-35 0 -69.5 -22t-51.5 -50z" />
    <glyph glyph-name="ydieresis" unicode="&#xff;" horiz-adv-x="543" 
d="M4 498h147l121 -325l127 325h141l-266 -679h-140l75 192zM401 549h-107v131h107v-131zM141 680h106v-131h-106v131z" />
    <glyph glyph-name="Dcroat" unicode="&#x110;" 
d="M4 269v106h52v305h262q150 0 240.5 -93t90.5 -246q0 -152 -91 -246.5t-240 -94.5h-262v269h-52zM198 269v-140h120q79 0 129.5 58t50.5 154q0 97 -50 153.5t-130 56.5h-120v-176h115v-106h-115z" />
    <glyph glyph-name="dcroat" unicode="&#x111;" horiz-adv-x="586" 
d="M28 250q0 108 64 182.5t166 74.5q86 0 140 -61v104h-69v88h69v42h133v-42h41v-88h-41v-550h-133v51q-53 -60 -140 -60q-102 0 -166 74.5t-64 184.5zM277 383q-55 0 -83.5 -39t-28.5 -94t28.5 -95t83.5 -40q35 0 69.5 22t51.5 51v123q-16 29 -51 50.5t-70 21.5z" />
    <glyph glyph-name="dotlessi" unicode="&#x131;" horiz-adv-x="244" 
d="M55 0v498h133v-498h-133z" />
    <glyph glyph-name="Lslash" unicode="&#x141;" horiz-adv-x="533" 
d="M8 359l52 18v303h143v-255l115 38v-86l-115 -39v-215h303v-123h-446v290l-52 -17v86z" />
    <glyph glyph-name="lslash" unicode="&#x142;" horiz-adv-x="244" 
d="M-8 352l63 26v302h133v-250l64 26v-87l-64 -26v-343h-133v291l-63 -26v87z" />
    <glyph glyph-name="OE" unicode="&#x152;" horiz-adv-x="885" 
d="M359 -9q-149 0 -240 99t-91 251t91.5 249t239.5 97q9 0 18 -0.5t16 -1.5t12.5 -2.5t8.5 -2.5h2h430v-123h-288v-157h228v-123h-228v-154h288v-123h-430q-8 -4 -15 -5q-15 -4 -42 -4zM179 341q0 -98 47.5 -160t132.5 -62q25 0 43 6q10 4 14 7v416q-5 1 -17 5q-18 5 -40 5
q-85 0 -132.5 -60t-47.5 -157z" />
    <glyph glyph-name="oe" unicode="&#x153;" horiz-adv-x="932" 
d="M281 507q111 0 188 -84q77 84 184 84q113 0 182.5 -73t73.5 -200v-30h-365q6 -40 39.5 -69.5t77.5 -29.5q37 0 71 19t50 46l105 -52q-75 -127 -224 -127q-127 0 -197 81q-76 -82 -185 -82q-106 0 -182 76t-76 184q0 105 76 181t182 76zM282 109q57 0 87.5 42.5t30.5 98.5
q0 55 -30.5 96.5t-87.5 41.5t-89 -42t-32 -96q0 -56 32 -98.5t89 -42.5zM544 291h224q-7 42 -34.5 71.5t-74.5 29.5q-46 0 -76 -28.5t-39 -72.5z" />
    <glyph glyph-name="Scaron" unicode="&#x160;" horiz-adv-x="576" 
d="M35 493q0 92 69.5 144.5t197.5 52.5q136 0 208 -52v-130q-102 53 -195 53q-60 0 -95 -20.5t-35 -49.5q0 -27 37 -48t89.5 -38.5t104.5 -41t89 -68.5t37 -109q0 -37 -12 -69t-40 -62t-82.5 -47.5t-130.5 -17.5q-128 0 -233 43v143q112 -56 228 -56q53 0 86.5 15.5
t33.5 45.5q0 29 -37 51t-89 40t-104.5 41.5t-89.5 69t-37 110.5zM234 737l-112 136h110l55 -53l55 53h111l-113 -136h-106z" />
    <glyph glyph-name="scaron" unicode="&#x161;" horiz-adv-x="457" 
d="M28 355q0 69 60 111t143 42q98 0 165 -30v-114q-72 35 -145 35q-37 0 -61.5 -12.5t-24.5 -34.5q0 -16 27 -26.5t66 -20t78 -24t66 -46.5t27 -79q0 -82 -60 -123.5t-165 -41.5q-73 0 -165 29v119q93 -34 167 -34q43 0 65.5 11.5t22.5 29.5q0 17 -27.5 28t-66.5 21.5
t-78 26t-66.5 49.5t-27.5 84zM63 680h110l55 -53l55 53h111l-113 -136h-106z" />
    <glyph glyph-name="Ydieresis" unicode="&#x178;" 
d="M261 245l-257 435h160l168 -296l167 296h160l-256 -434v-246h-142v245zM355 742v131h107v-131h-107zM202 742v131h106v-131h-106z" />
    <glyph glyph-name="Zcaron" unicode="&#x17d;" horiz-adv-x="588" 
d="M29 123l344 434h-344v123h530v-123l-344 -434h344v-123h-530v123zM129 873h110l55 -53l55 53h111l-113 -136h-106z" />
    <glyph glyph-name="zcaron" unicode="&#x17e;" horiz-adv-x="459" 
d="M24 114l240 270h-240v114h411v-114l-240 -270h240v-114h-411v114zM64 680h110l55 -53l55 53h111l-113 -136h-106z" />
    <glyph glyph-name="florin" unicode="&#x192;" horiz-adv-x="498" 
d="M1 110h35q82 0 97 91l36 265q15 108 71 166t149 58q56 0 108 -13v-119q-46 13 -96 13q-83 0 -98 -92l-4 -34h134v-114h-150l-16 -117q-15 -108 -71 -166t-148 -58q-17 0 -47 2v118z" />
    <glyph glyph-name="circumflex" unicode="&#x2c6;" horiz-adv-x="396" 
d="M33 544l112 136h106l113 -136h-111l-55 53l-55 -53h-110z" />
    <glyph glyph-name="caron" unicode="&#x2c7;" horiz-adv-x="396" 
d="M145 544l-112 136h110l55 -53l55 53h111l-113 -136h-106z" />
    <glyph glyph-name="breve" unicode="&#x2d8;" horiz-adv-x="359" 
d="M180 548q-42 0 -73 13.5t-46 35t-21.5 42t-6.5 41.5h102q0 -17 11 -30.5t34 -13.5q22 0 33 13.5t11 30.5h103q0 -21 -6.5 -41.5t-21.5 -42t-46 -35t-73 -13.5z" />
    <glyph glyph-name="dotaccent" unicode="&#x2d9;" horiz-adv-x="199" 
d="M33 549v131h134v-131h-134z" />
    <glyph glyph-name="ring" unicode="&#x2da;" horiz-adv-x="274" 
d="M33 614q0 44 30.5 74t73.5 30t73.5 -30t30.5 -74q0 -43 -30 -73.5t-74 -30.5q-43 0 -73.5 30.5t-30.5 73.5zM107 613q0 -12 9 -21t21 -9t21 9t9 21q0 13 -9 22t-21 9t-21 -9t-9 -22z" />
    <glyph glyph-name="ogonek" unicode="&#x2db;" horiz-adv-x="229" 
d="M196 -127v-59q-163 0 -163 84q0 35 23.5 62t46.5 40h65q-14 -23 -22 -44t-8.5 -40.5t14 -31t44.5 -11.5z" />
    <glyph glyph-name="tilde" unicode="&#x2dc;" horiz-adv-x="376" 
d="M178 573q-21 15 -37 11.5t-16 -39.5h-82q0 62 21 94t55.5 31.5t78.5 -20.5q21 -15 37 -11.5t16 39.5h82q0 -91 -45.5 -117t-109.5 12z" />
    <glyph glyph-name="hungarumlaut" unicode="&#x2dd;" horiz-adv-x="404" 
d="M193 544l43 136h136l-81 -136h-98zM33 544l42 136h136l-81 -136h-97z" />
    <glyph glyph-name="endash" unicode="&#x2013;" horiz-adv-x="771" 
d="M65 316h640v-106h-640v106z" />
    <glyph glyph-name="emdash" unicode="&#x2014;" horiz-adv-x="1282" 
d="M65 316h1151v-106h-1151v106z" />
    <glyph glyph-name="quoteleft" unicode="&#x2018;" horiz-adv-x="190" 
d="M158 680v-227h-125l45 227h80z" />
    <glyph glyph-name="quoteright" unicode="&#x2019;" horiz-adv-x="190" 
d="M33 453v227h125l-46 -227h-79z" />
    <glyph glyph-name="quotesinglbase" unicode="&#x201a;" horiz-adv-x="256" 
d="M65 -81v227h125l-45 -227h-80z" />
    <glyph glyph-name="quotedblleft" unicode="&#x201c;" horiz-adv-x="359" 
d="M326 453h-125l45 227h80v-227zM33 453l45 227h80v-227h-125z" />
    <glyph glyph-name="quotedblright" unicode="&#x201d;" horiz-adv-x="359" 
d="M201 453v227h125l-46 -227h-79zM33 453v227h125l-46 -227h-79z" />
    <glyph glyph-name="quotedblbase" unicode="&#x201e;" horiz-adv-x="424" 
d="M65 146h125l-45 -227h-80v227zM234 146h125l-46 -227h-79v227z" />
    <glyph glyph-name="dagger" unicode="&#x2020;" horiz-adv-x="458" 
d="M172 382h-128v88h128v210h115v-210h128v-88h-128v-481h-115v481z" />
    <glyph glyph-name="daggerdbl" unicode="&#x2021;" horiz-adv-x="457" 
d="M171 372h-127v88h127v220h116v-220h127v-88h-127v-169h127v-88h-127v-214h-116v214h-127v88h127v169z" />
    <glyph glyph-name="bullet" unicode="&#x2022;" horiz-adv-x="361" 
d="M65 301q0 48 34 81.5t82 33.5q47 0 81 -34t34 -81q0 -48 -34 -81.5t-81 -33.5q-48 0 -82 33.5t-34 81.5z" />
    <glyph glyph-name="ellipsis" unicode="&#x2026;" horiz-adv-x="767" 
d="M701 0h-126v129h126v-129zM320 0v129h126v-129h-126zM65 129h126v-129h-126v129z" />
    <glyph glyph-name="perthousand" unicode="&#x2030;" horiz-adv-x="1396" 
d="M302 0l268 680h124l-268 -680h-124zM230 263q-88 0 -132 61t-44 154q0 92 44 151.5t132 59.5q87 0 131 -59.5t44 -151.5q0 -93 -44 -154t-131 -61zM230 375q60 0 60 103q0 101 -60 101t-60 -101q0 -103 60 -103zM763 -10q-87 0 -131 60.5t-44 153.5q0 92 44 152t131 60
q88 0 132 -60t44 -152q0 -93 -44 -153.5t-132 -60.5zM763 102q61 0 61 102t-61 102q-59 0 -59 -102t59 -102zM1166 -10q-88 0 -131.5 60.5t-43.5 153.5q0 92 43.5 152t131.5 60t131.5 -60t43.5 -152q0 -93 -43.5 -153.5t-131.5 -60.5zM1166 102q60 0 60 102t-60 102
q-59 0 -59 -102t59 -102z" />
    <glyph glyph-name="guilsinglleft" unicode="&#x2039;" horiz-adv-x="334" 
d="M268 128l-203 121v106l203 121v-129l-102 -45l102 -46v-128z" />
    <glyph glyph-name="guilsinglright" unicode="&#x203a;" horiz-adv-x="334" 
d="M168 302l-103 45v129l203 -121v-106l-203 -121v128z" />
    <glyph glyph-name="fraction" unicode="&#x2044;" horiz-adv-x="387" 
d="M3 0l259 680h122l-258 -680h-123z" />
    <glyph glyph-name="Euro" unicode="&#x20ac;" horiz-adv-x="730" 
d="M20 314h47q-1 9 -1 27t1 27h-47v69h57q27 113 111 184.5t204 71.5q192 0 287 -179l-122 -77q-66 128 -165 128q-58 0 -99.5 -35.5t-59.5 -92.5h223v-69h-238q-1 -9 -1 -27t1 -27h238v-70h-224q20 -58 61 -93.5t99 -35.5q51 0 94.5 32.5t70.5 87.5l123 -78
q-86 -170 -288 -170q-120 0 -204 72.5t-111 184.5h-57v70z" />
    <glyph glyph-name="trademark" unicode="&#x2122;" horiz-adv-x="761" 
d="M357 333v347h129l56 -209l58 209h128v-347h-91v185l-52 -185h-84l-53 186v-186h-91zM33 599v81h302v-81h-96v-266h-91v266h-115z" />
    <glyph glyph-name="minus" unicode="&#x2212;" horiz-adv-x="439" 
d="M65 316h309v-105h-309v105z" />
    </font>
</defs>
</svg>
