<?xml version="1.0" standalone="no"?>
<!DOCTYPE svg PUBLIC "-//W3C//DTD SVG 1.1//EN" "http://www.w3.org/Graphics/SVG/1.1/DTD/svg11.dtd" >
<svg xmlns="http://www.w3.org/2000/svg" xmlns:xlink="http://www.w3.org/1999/xlink" version="1.1">
<metadata>
Created by FontForge 20170731 at Mon Dec 12 02:00:37 2016
 By Aleksey,,,
Copyright (c) 2016 by Mathieu Desjardins. All rights reserved.
</metadata>
<defs>
<font id="Supply-Regular" horiz-adv-x="600" >
  <font-face 
    font-family="Supply"
    font-weight="400"
    font-stretch="normal"
    units-per-em="1000"
    panose-1="0 0 5 0 0 0 0 0 0 0"
    ascent="800"
    descent="-200"
    x-height="510"
    cap-height="700"
    bbox="-590 -310 885 1042"
    underline-thickness="30"
    underline-position="-160"
    unicode-range="U+0020-25CA"
  />
<missing-glyph horiz-adv-x="460" 
d="M377 710v-920h-291v920h291zM306 648h-151v-30h59v-34h-60v-30h152v30h-60v34h60v30zM246 530h-92v-96h152v31h-60v65zM214 498v-33h-30v33h30zM306 409h-152v-30h60v-34h-60v-31h92v65h60v30zM306 354h-30v-61h-122v-31h152v92zM306 242h-92v-52h32v21h30v-43h-92v74
h-30v-104h152v104zM306 83h-152v-104h152v104zM276 52v-43h-92v43h92zM306 -43h-152v-30h64l-64 -43v-31h152v31h-93l64 43h29v30z" />
    <glyph glyph-name=".notdef" horiz-adv-x="460" 
d="M377 710v-920h-291v920h291zM306 648h-151v-30h59v-34h-60v-30h152v30h-60v34h60v30zM246 530h-92v-96h152v31h-60v65zM214 498v-33h-30v33h30zM306 409h-152v-30h60v-34h-60v-31h92v65h60v30zM306 354h-30v-61h-122v-31h152v92zM306 242h-92v-52h32v21h30v-43h-92v74
h-30v-104h152v104zM306 83h-152v-104h152v104zM276 52v-43h-92v43h92zM306 -43h-152v-30h64l-64 -43v-31h152v31h-93l64 43h29v30z" />
    <glyph glyph-name=".null" horiz-adv-x="0" 
 />
    <glyph glyph-name="nonmarkingreturn" horiz-adv-x="333" 
 />
    <glyph glyph-name="space" unicode=" " 
 />
    <glyph glyph-name="exclam" unicode="!" 
d="M250 700h100v-368l-20 -109h-60l-20 109v368zM245 100h110v-100h-110v100z" />
    <glyph glyph-name="quotedbl" unicode="&#x22;" 
d="M170 710h100v-101l-20 -109h-60l-20 109v101zM330 710h100v-101l-20 -109h-60l-20 109v101z" />
    <glyph glyph-name="numbersign" unicode="#" 
d="M510 410h-69l-17 -120h76l-10 -100h-80l-27 -190h-100l26 190h-62l-27 -190h-100l26 190h-66l10 100h70l17 120h-77l10 100h81l26 190h102l-27 -190h62l26 190h102l-27 -190h65zM323 290l17 120h-62l-17 -120h62z" />
    <glyph glyph-name="dollar" unicode="$" 
d="M520 176q0 -70 -48 -120t-122 -55v-101h-100v101q-72 6 -121 59.5t-49 125.5v40h100v-40q0 -31 20 -55t50 -30v238q-76 44 -118 88t-42 107q0 67 44 112t116 53v101h100v-102q69 -10 114.5 -62t45.5 -122v-30h-100v30q0 28 -17 51t-43 31v-198q79 -48 124.5 -98.5
t45.5 -123.5zM190 534q0 -37 60 -77v141q-60 -11 -60 -64zM350 101q32 5 51 25.5t19 49.5q0 52 -70 102v-177z" />
    <glyph glyph-name="percent" unicode="%" 
d="M153 434q-55 0 -94 39t-39 94t39 94t94 39t93.5 -39t38.5 -94t-38.5 -94t-93.5 -39zM180 0h-100v160l340 416v124h100v-160l-340 -416v-124zM153 534q13 0 22.5 9.5t9.5 23.5t-9.5 23.5t-22.5 9.5t-23 -10t-10 -23t10 -23t23 -10zM448 0q-56 0 -94.5 39t-38.5 94t38.5 94
t94.5 39q55 0 93.5 -39t38.5 -94t-38.5 -94t-93.5 -39zM448 100q13 0 22.5 9.5t9.5 23.5t-9.5 23.5t-22.5 9.5q-14 0 -23.5 -10t-9.5 -23t9.5 -23t23.5 -10z" />
    <glyph glyph-name="ampersand" unicode="&#x26;" 
d="M546 310v-10q0 -92 -50 -169q50 -77 50 -131h-100q0 22 -19 57q-74 -57 -167 -57q-98 0 -152 64.5t-54 173.5l130 122q-63 90 -63 150q0 83 48.5 136.5t123.5 53.5q80 0 129 -61t42 -152l-146 -137q18 -22 56 -65.5t56 -64.5q16 38 16 80v10h100zM221 510q0 -29 35 -82
l108 102q-5 33 -24 51.5t-47 18.5q-33 0 -52.5 -24t-19.5 -66zM260 100q59 0 108 38q-15 17 -57.5 66t-65.5 77l-91 -86q9 -95 106 -95z" />
    <glyph glyph-name="quotesingle" unicode="'" 
d="M250 710h100v-101l-20 -109h-60l-20 109v101z" />
    <glyph glyph-name="parenleft" unicode="(" 
d="M440 -101h-100q-74 0 -127 53.5t-53 127.5v540q0 75 53 127.5t127 52.5h100v-100h-100q-34 0 -57 -23.5t-23 -56.5v-540q0 -33 23.5 -56.5t56.5 -23.5h100v-101z" />
    <glyph glyph-name="parenright" unicode=")" 
d="M160 -101v101h100q33 0 56.5 23.5t23.5 56.5v540q0 33 -23 56.5t-57 23.5h-100v100h100q74 0 127 -52.5t53 -127.5v-540q0 -74 -53 -127.5t-127 -53.5h-100z" />
    <glyph glyph-name="asterisk" unicode="*" 
d="M348 550l81 -17l35 -20l-50 -86l-35 20l-55 62l26 -79v-40h-100v40l26 79l-55 -62l-35 -20l-50 86l35 20l81 17l-81 17l-35 20l50 86l35 -20l55 -62l-26 79v40h100v-40l-26 -79l55 62l35 20l50 -86l-35 -20z" />
    <glyph glyph-name="plus" unicode="+" 
d="M480 317v-100h-130v-130h-100v130h-130v100h130v130h100v-130h130z" />
    <glyph glyph-name="comma" unicode="," 
d="M248 -110h-44l72 210h100l-24 -73z" />
    <glyph glyph-name="hyphen" unicode="-" 
d="M120 317h360v-100h-360v100z" />
    <glyph glyph-name="period" unicode="." 
d="M245 100h110v-100h-110v100z" />
    <glyph glyph-name="slash" unicode="/" 
d="M180 0h-100v160l340 416v124h100v-160l-340 -416v-124z" />
    <glyph glyph-name="zero" unicode="0" 
d="M340 700q75 0 127.5 -52.5t52.5 -127.5v-339q0 -75 -52.5 -128t-127.5 -53h-80q-74 0 -127 53.5t-53 127.5v339q0 75 53 127.5t127 52.5h80zM340 600h-80q-26 0 -46 -14l206 -335v269q0 34 -23 57t-57 23zM260 101h80q25 0 45 14l-205 334v-268q0 -33 23.5 -56.5
t56.5 -23.5z" />
    <glyph glyph-name="one" unicode="1" 
d="M350 100h170v-100h-270h-170v100h170v484l-170 -100v116l170 100h100v-600z" />
    <glyph glyph-name="two" unicode="2" 
d="M520 100v-100h-440v231l340 191v98q0 34 -23 57t-57 23h-80q-33 0 -56.5 -23.5t-23.5 -56.5v-35h-100v35q0 75 53 127.5t127 52.5h80q75 0 127.5 -52.5t52.5 -127.5v-157l-340 -191v-72h340z" />
    <glyph glyph-name="three" unicode="3" 
d="M520 480q0 -77 -55 -130q55 -53 55 -130v-40q0 -75 -52.5 -127.5t-127.5 -52.5h-80q-74 0 -127 52.5t-53 127.5v35h100v-35q0 -33 23.5 -56.5t56.5 -23.5h80q34 0 57 23t23 57v40q0 34 -23 57t-57 23h-70v100h70q34 0 57 23t23 57v40q0 34 -23 57t-57 23h-80
q-33 0 -56.5 -23.5t-23.5 -56.5v-35h-100v35q0 75 53 127.5t127 52.5h80q75 0 127.5 -52.5t52.5 -127.5v-40z" />
    <glyph glyph-name="four" unicode="4" 
d="M520 390v-100h-100v-290h-100v290h-240v410h100v-310h140v250h100v-250h100z" />
    <glyph glyph-name="five" unicode="5" 
d="M340 474q74 0 127 -52.5t53 -127.5v-114q0 -75 -52.5 -127.5t-127.5 -52.5h-80q-74 0 -127 52.5t-53 127.5v10h100v-10q0 -33 23.5 -56.5t56.5 -23.5h80q34 0 57 23t23 57v114q0 33 -23.5 56.5t-56.5 23.5h-46l-114 -77h-100v403h100h280v-100h-280v-182l83 56h77z" />
    <glyph glyph-name="six" unicode="6" 
d="M520 490h-100v30q0 34 -23 57t-57 23h-80q-34 0 -57 -23t-23 -57v-132l83 56h77q74 0 127 -52.5t53 -127.5v-84q0 -75 -52.5 -127.5t-127.5 -52.5h-80q-74 0 -127 52.5t-53 127.5v340q0 75 52.5 127.5t127.5 52.5h80q75 0 127.5 -52.5t52.5 -127.5v-30zM294 344l-114 -77
v-87q0 -33 23.5 -56.5t56.5 -23.5h80q34 0 57 23t23 57v84q0 33 -23.5 56.5t-56.5 23.5h-46z" />
    <glyph glyph-name="seven" unicode="7" 
d="M220 0h-100v195l300 310v95h-240v-110h-100v210h440v-235l-300 -310v-155z" />
    <glyph glyph-name="eight" unicode="8" 
d="M459 365q61 -53 61 -135v-49q0 -75 -52.5 -128t-127.5 -53h-80q-74 0 -127 53.5t-53 127.5v49q0 81 61 135q-51 54 -51 126v29q0 75 53 127.5t127 52.5h60q75 0 127.5 -52.5t52.5 -127.5v-29q0 -73 -51 -126zM190 520v-29q0 -33 22.5 -56.5t54.5 -24.5h63q33 0 56.5 23.5
t23.5 57.5v29q0 34 -23 57t-57 23h-60q-34 0 -57 -23.5t-23 -56.5zM420 181v49q0 34 -23 57t-57 23h-70h-10q-34 0 -57 -23.5t-23 -56.5v-49q0 -34 23.5 -58t56.5 -23h80q33 0 56.5 23.5t23.5 57.5z" />
    <glyph glyph-name="nine" unicode="9" 
d="M340 700q74 0 127 -52.5t53 -127.5v-340q0 -75 -52.5 -127.5t-127.5 -52.5h-80q-75 0 -127.5 52.5t-52.5 127.5v30h100v-30q0 -34 23 -57t57 -23h80q34 0 57 23t23 57v132l-83 -56h-77q-74 0 -127 52.5t-53 127.5v84q0 75 52.5 127.5t127.5 52.5h80zM306 356l114 77v87
q0 33 -23.5 56.5t-56.5 23.5h-80q-34 0 -57 -23t-23 -57v-84q0 -33 23.5 -56.5t56.5 -23.5h46z" />
    <glyph glyph-name="colon" unicode=":" 
d="M245 380h110v-100h-110v100zM245 100h110v-100h-110v100z" />
    <glyph glyph-name="semicolon" unicode=";" 
d="M278 380h110v-100h-110v100zM255 -110h-44l72 210h100l-24 -73z" />
    <glyph glyph-name="less" unicode="&#x3c;" 
d="M445 135v-100h-90l-200 170v100l200 170h90v-100h-53l-140 -119v-2l140 -119h53z" />
    <glyph glyph-name="equal" unicode="=" 
d="M120 423h360v-100h-360v100zM120 232h360v-100h-360v100z" />
    <glyph glyph-name="greater" unicode="&#x3e;" 
d="M155 135h53l140 119v2l-140 119h-53v100h90l200 -170v-100l-200 -170h-90v100z" />
    <glyph glyph-name="question" unicode="?" 
d="M250 223v118l170 107v72q0 34 -23 57t-57 23h-80q-33 0 -56.5 -23.5t-23.5 -56.5v-35h-100v35q0 75 53 127.5t127 52.5h80q75 0 127.5 -52.5t52.5 -127.5v-127l-170 -107v-63h-100zM245 100h110v-100h-110v100z" />
    <glyph glyph-name="at" unicode="@" 
d="M370 700q75 0 127.5 -52.5t52.5 -127.5v-481h-100v36l-53 -36h-31q-74 0 -127 53t-53 127v90q0 75 53 127.5t127 52.5h31l53 -36v67q0 34 -23 57t-57 23h-140q-34 0 -57 -23.5t-23 -56.5v-512q0 -33 23.5 -56.5t56.5 -23.5h189v-101h-189q-74 0 -127 53.5t-53 127.5v512
q0 75 53 127.5t127 52.5h140zM366 139l84 56v138l-84 56q-33 0 -56.5 -23.5t-23.5 -56.5v-90q0 -33 23.5 -56.5t56.5 -23.5z" />
    <glyph glyph-name="A" unicode="A" 
d="M350 700l170 -470v-230h-100v162h-240v-162h-100v230l170 470h100zM299 542l-101 -280h204l-101 280h-2z" />
    <glyph glyph-name="B" unicode="B" 
d="M454 360q66 -54 66 -140v-40q0 -75 -52.5 -127.5t-127.5 -52.5h-194h-66v700h100h140q75 0 127.5 -52.5t52.5 -127.5v-40q0 -71 -46 -120zM320 600h-140v-200h140q34 0 57 23t23 57v40q0 34 -23 57t-57 23zM420 180v40q0 34 -23 57t-57 23h-160v-200h160q34 0 57 23
t23 57z" />
    <glyph glyph-name="C" unicode="C" 
d="M420 465v55q0 34 -23 57t-57 23h-80q-34 0 -57 -23.5t-23 -56.5v-339q0 -33 23.5 -56.5t56.5 -23.5h80q33 0 56.5 23.5t23.5 56.5v55h100v-55q0 -75 -52.5 -128t-127.5 -53h-80q-74 0 -127 53.5t-53 127.5v339q0 75 53 127.5t127 52.5h80q75 0 127.5 -52.5t52.5 -127.5
v-55h-100z" />
    <glyph glyph-name="D" unicode="D" 
d="M340 700q74 0 127 -52.5t53 -127.5v-339q0 -74 -53 -127.5t-127 -53.5h-190h-70v700h100h160zM420 181v339q0 33 -23 56.5t-57 23.5h-160v-499h160q33 0 56.5 23.5t23.5 56.5z" />
    <glyph glyph-name="E" unicode="E" 
d="M520 600h-340v-183h300v-100h-300v-217h340v-100h-440v317v283v100h440v-100z" />
    <glyph glyph-name="F" unicode="F" 
d="M520 600h-340v-213h300v-100h-300v-287h-100v387v313h440v-100z" />
    <glyph glyph-name="G" unicode="G" 
d="M520 465h-100v55q0 34 -23 57t-57 23h-80q-34 0 -57 -23.5t-23 -56.5v-339q0 -33 23.5 -56.5t56.5 -23.5h80q33 0 56.5 23.5t23.5 56.5v55v41h-150v100h250v-141v-55q0 -75 -52.5 -128t-127.5 -53h-80q-74 0 -127 53.5t-53 127.5v339q0 75 53 127.5t127 52.5h80
q75 0 127.5 -52.5t52.5 -127.5v-55z" />
    <glyph glyph-name="H" unicode="H" 
d="M420 700h100v-380v-320h-100v320h-240v-320h-100v420v280h100v-280h240v280z" />
    <glyph glyph-name="I" unicode="I" 
d="M520 600h-170v-500h170v-100h-270h-170v100h170v500h-170v100h270h170v-100z" />
    <glyph glyph-name="J" unicode="J" 
d="M170 700h350v-100v-419q0 -74 -53 -127.5t-127 -53.5h-80q-75 0 -127.5 53t-52.5 128v85h100v-85q0 -33 23.5 -56.5t56.5 -23.5h80q33 0 56.5 23.5t23.5 56.5v419h-250v100z" />
    <glyph glyph-name="K" unicode="K" 
d="M520 700l-215 -350l215 -350h-118l-184 300h-38v-300h-100v700h100v-300h38l184 300h118z" />
    <glyph glyph-name="L" unicode="L" 
d="M180 100h340v-100h-440v700h100v-600z" />
    <glyph glyph-name="M" unicode="M" 
d="M420 700h100v-700h-100v480l-93 -198h-54l-93 198v-480h-100v700h100l120 -261z" />
    <glyph glyph-name="N" unicode="N" 
d="M420 700h100v-700h-145l-195 532v-532h-100v700h145l195 -532v532z" />
    <glyph glyph-name="O" unicode="O" 
d="M340 0h-80q-74 0 -127 53.5t-53 127.5v339q0 75 53 127.5t127 52.5h80q75 0 127.5 -52.5t52.5 -127.5v-339q0 -75 -52.5 -128t-127.5 -53zM340 101q33 0 56.5 23.5t23.5 56.5v339q0 34 -23 57t-57 23h-80q-34 0 -57 -23.5t-23 -56.5v-339q0 -33 23.5 -56.5t56.5 -23.5h80
z" />
    <glyph glyph-name="P" unicode="P" 
d="M340 700q75 0 127.5 -52.5t52.5 -127.5v-60q0 -75 -52.5 -127.5t-127.5 -52.5h-160v-280h-100v700h100h160zM420 460v60q0 34 -23 57t-57 23h-160v-220h160q34 0 57 23t23 57z" />
    <glyph glyph-name="Q" unicode="Q" 
d="M520 181q0 -91 -72 -145l72 -118l-88 -49l-81 131h-11h-80q-74 0 -127 53.5t-53 127.5v339q0 75 53 127.5t127 52.5h80q75 0 127.5 -52.5t52.5 -127.5v-339zM180 181q0 -33 23.5 -56.5t56.5 -23.5h80q33 0 56.5 23.5t23.5 56.5v339q0 34 -23 57t-57 23h-80
q-34 0 -57 -23.5t-23 -56.5v-339z" />
    <glyph glyph-name="R" unicode="R" 
d="M520 460q0 -62 -36.5 -109.5t-94.5 -63.5l131 -287h-110l-127 280h-103v-280h-100v700h100h160q75 0 127.5 -52.5t52.5 -127.5v-60zM420 460v60q0 34 -23 57t-57 23h-160v-220h160q34 0 57 23t23 57z" />
    <glyph glyph-name="S" unicode="S" 
d="M80 226h100v-40q0 -35 25.5 -60.5t60.5 -25.5h67q38 0 62.5 21.5t24.5 54.5q0 32 -24.5 61.5t-61 50.5t-79.5 47.5t-79.5 52t-61 64t-24.5 82.5q0 73 52 119.5t134 46.5h47q77 0 132 -54.5t55 -131.5v-30h-100v30q0 36 -25.5 61t-61.5 25h-47q-40 0 -63 -17.5t-23 -48.5
q0 -29 34 -57t82.5 -55t97 -58.5t82.5 -80t34 -107.5q0 -75 -53.5 -125.5t-133.5 -50.5h-67q-77 0 -131.5 54.5t-54.5 131.5v40z" />
    <glyph glyph-name="T" unicode="T" 
d="M520 700v-100h-170v-600h-100v600h-170v100h270h170z" />
    <glyph glyph-name="U" unicode="U" 
d="M520 700v-519q0 -74 -53 -127.5t-127 -53.5h-80q-75 0 -127.5 53t-52.5 128v519h100v-519q0 -33 23.5 -56.5t56.5 -23.5h80q33 0 56.5 23.5t23.5 56.5v519h100z" />
    <glyph glyph-name="V" unicode="V" 
d="M420 700h100v-230l-170 -470h-100l-170 470v230h100v-212l119 -330h2l119 330v212z" />
    <glyph glyph-name="W" unicode="W" 
d="M420 700h100v-230l-60 -470h-80l-80 299l-80 -299h-80l-60 470v230h100v-200l24 -295l55 315h82l55 -315l24 295v200z" />
    <glyph glyph-name="X" unicode="X" 
d="M520 700l-165 -350l165 -350h-110l-110 233l-110 -233h-110l165 350l-165 350h110l110 -233l110 233h110z" />
    <glyph glyph-name="Y" unicode="Y" 
d="M420 700h100v-228l-170 -223v-249h-100v249l-170 211v240h100v-204l118 -147h2l120 157v194z" />
    <glyph glyph-name="Z" unicode="Z" 
d="M520 700v-100l-321 -500h321v-100h-440v100l322 500h-322v100h440z" />
    <glyph glyph-name="bracketleft" unicode="[" 
d="M440 700h-180v-700h180v-100h-280v800v100h280v-100z" />
    <glyph glyph-name="backslash" unicode="\" 
d="M420 0v124l-340 416v160h100v-124l340 -416v-160h-100z" />
    <glyph glyph-name="bracketright" unicode="]" 
d="M440 800v-800v-100h-280v100h180v700h-180v100h280z" />
    <glyph glyph-name="asciicircum" unicode="^" 
d="M380 350v67l-79 166h-2l-79 -166v-67h-100v90l130 270h100l130 -270v-90h-100z" />
    <glyph glyph-name="underscore" unicode="_" 
d="M10 -33v-100h580v100h-580z" />
    <glyph glyph-name="grave" unicode="`" 
d="M233 752l140 -152h-116l-160 152h136z" />
    <glyph glyph-name="a" unicode="a" 
d="M420 510h100v-510h-100v56l-83 -56h-77q-74 0 -127 53t-53 127v150q0 75 53 127.5t127 52.5h77l83 -56v56zM306 100l114 77v156l-114 77h-46q-33 0 -56.5 -23.5t-23.5 -56.5v-150q0 -33 23.5 -56.5t56.5 -23.5h46z" />
    <glyph glyph-name="b" unicode="b" 
d="M340 510q74 0 127 -52.5t53 -127.5v-150q0 -74 -53 -127t-127 -53h-77l-83 56v-56h-100v710h100v-256l83 56h77zM420 180v150q0 33 -23.5 56.5t-56.5 23.5h-46l-114 -77v-156l114 -77h46q33 0 56.5 23.5t23.5 56.5z" />
    <glyph glyph-name="c" unicode="c" 
d="M420 330q0 34 -23 57t-57 23h-80q-34 0 -57 -23.5t-23 -56.5v-149q0 -33 23.5 -56.5t56.5 -23.5h80q33 0 56.5 23.5t23.5 56.5v10h100v-10q0 -75 -52.5 -128t-127.5 -53h-80q-74 0 -127 53.5t-53 127.5v149q0 75 53 127.5t127 52.5h80q75 0 127.5 -52.5t52.5 -127.5v-10
h-100v10z" />
    <glyph glyph-name="d" unicode="d" 
d="M420 710h100v-710h-100v56l-83 -56h-77q-74 0 -127 53t-53 127v150q0 75 53 127.5t127 52.5h77l83 -56v256zM306 100l114 77v156l-114 77h-46q-33 0 -56.5 -23.5t-23.5 -56.5v-150q0 -33 23.5 -56.5t56.5 -23.5h46z" />
    <glyph glyph-name="e" unicode="e" 
d="M520 340v-20v-77v-11h-340v-51q0 -33 23.5 -56.5t56.5 -23.5h80q33 0 56.5 23.5t23.5 56.5v10h100v-10q0 -75 -52.5 -128t-127.5 -53h-80q-74 0 -127 53.5t-53 127.5v149q0 75 53 127.5t127 52.5h80q73 0 124.5 -49.5t55.5 -120.5zM420 312v18q0 34 -23 57t-57 23h-80
q-34 0 -57 -23.5t-23 -56.5v-18h240z" />
    <glyph glyph-name="f" unicode="f" 
d="M425 610q-34 0 -57 -23t-23 -57v-50h175v-100h-175v-380h-100v380h-165v100h165v50q0 75 52.5 127.5t127.5 52.5h95v-100h-95z" />
    <glyph glyph-name="g" unicode="g" 
d="M420 510h100v-539q0 -75 -52.5 -128t-127.5 -53h-80q-74 0 -127 53.5t-53 127.5h100q0 -33 23.5 -56.5t56.5 -23.5h80q33 0 56.5 23.5t23.5 56.5v85l-83 -56h-77q-74 0 -127 53t-53 127v150q0 75 53 127.5t127 52.5h77l83 -56v56zM306 100l114 77v156l-114 77h-46
q-33 0 -56.5 -23.5t-23.5 -56.5v-150q0 -33 23.5 -56.5t56.5 -23.5h46z" />
    <glyph glyph-name="h" unicode="h" 
d="M340 510q74 0 127 -52.5t53 -127.5v-330h-100v330q0 33 -23.5 56.5t-56.5 23.5h-46l-114 -77v-333h-100v710h100v-256l83 56h77z" />
    <glyph glyph-name="i" unicode="i" 
d="M345 700v-100h-110v100h110zM345 100h175v-100h-275h-165v100h165v310h-165v100h265v-410z" />
    <glyph glyph-name="j" unicode="j" 
d="M410 700h110v-100h-110v100zM205 510h315v-539q0 -74 -53 -127.5t-127 -53.5h-80q-75 0 -127.5 53t-52.5 128v29h100v-29q0 -33 23.5 -56.5t56.5 -23.5h80q33 0 56.5 23.5t23.5 56.5v439h-215v100z" />
    <glyph glyph-name="k" unicode="k" 
d="M520 510l-160 -255l160 -255h-118l-129 205h-93v-205h-100v710h100v-405h93l129 205h118z" />
    <glyph glyph-name="l" unicode="l" 
d="M345 100h175v-100h-275h-165v100h165v510h-165v100h265v-610z" />
    <glyph glyph-name="m" unicode="m" 
d="M418 510q122 0 122 -160v-350h-100v350q0 35 -2 46l-88 -84v-312h-100v350q0 35 -2 46l-88 -84v-312h-100v510h100v-58l60 58h8q81 0 109 -71l73 71h8zM223 426h-6h6zM413 426h-6h6z" />
    <glyph glyph-name="n" unicode="n" 
d="M340 510q74 0 127 -52.5t53 -127.5v-330h-100v330q0 33 -23.5 56.5t-56.5 23.5h-46l-114 -77v-333h-100v510h100v-56l83 56h77z" />
    <glyph glyph-name="o" unicode="o" 
d="M340 0h-80q-75 0 -127.5 52t-52.5 127v151q0 75 52.5 127.5t127.5 52.5h80q75 0 127.5 -52.5t52.5 -127.5v-151q0 -75 -52.5 -127t-127.5 -52zM340 100q34 0 57 22.5t23 56.5v151q0 34 -23 57t-57 23h-80q-34 0 -57 -23t-23 -57v-151q0 -33 23 -55.5t57 -23.5h80z" />
    <glyph glyph-name="p" unicode="p" 
d="M340 510q74 0 127 -53t53 -127v-150q0 -75 -53 -127.5t-127 -52.5h-77l-83 56v-266h-100v720h100v-56l83 56h77zM420 180v150q0 33 -23.5 56.5t-56.5 23.5h-46l-114 -77v-156l114 -77h46q33 0 56.5 23.5t23.5 56.5z" />
    <glyph glyph-name="q" unicode="q" 
d="M420 510h100v-720h-100v266l-83 -56h-77q-74 0 -127 52.5t-53 127.5v150q0 74 53 127t127 53h77l83 -56v56zM306 100l114 77v156l-114 77h-46q-33 0 -56.5 -23.5t-23.5 -56.5v-150q0 -33 23.5 -56.5t56.5 -23.5h46z" />
    <glyph glyph-name="r" unicode="r" 
d="M340 510q74 0 127 -52.5t53 -127.5v-40h-100v40q0 33 -23.5 56.5t-56.5 23.5h-10l-150 -101v-309h-100v510h100v-80l119 80h41z" />
    <glyph glyph-name="s" unicode="s" 
d="M80 168h100v-20q0 -21 18.5 -34.5t50.5 -13.5h101q70 0 70 41q0 31 -34.5 48.5t-83.5 27.5t-97.5 23.5t-83 47t-34.5 87.5q0 61 44.5 98t115.5 37h96q68 0 114 -43t46 -106v-9h-100v9q0 21 -17 35t-43 14h-96q-60 0 -60 -35q0 -22 34.5 -35.5t83.5 -24t97.5 -26.5
t83 -53.5t34.5 -94.5q0 -63 -47 -102t-123 -39h-101q-73 0 -121 42t-48 106v20z" />
    <glyph glyph-name="t" unicode="t" 
d="M520 410h-185v-230q0 -34 23 -57t57 -23h105v-100h-105q-75 0 -127.5 52.5t-52.5 127.5v230h-155v100h155v130h100v-130h185v-100z" />
    <glyph glyph-name="u" unicode="u" 
d="M420 510h100v-510h-100v56l-83 -56h-77q-74 0 -127 52.5t-53 127.5v330h100v-330q0 -33 23.5 -56.5t56.5 -23.5h46l114 77v333z" />
    <glyph glyph-name="v" unicode="v" 
d="M420 510h100v-230l-170 -280h-100l-170 280v230h100v-202l119 -196h2l119 196v202z" />
    <glyph glyph-name="w" unicode="w" 
d="M420 510h100v-230l-60 -280h-80l-80 239l-80 -239h-80l-60 280v230h100v-200l18 -121l61 231h82l61 -231l18 121v200z" />
    <glyph glyph-name="x" unicode="x" 
d="M520 510l-161 -255l161 -255h-118l-102 162l-102 -162h-118l161 255l-161 255h118l102 -162l102 162h118z" />
    <glyph glyph-name="y" unicode="y" 
d="M413 510h107l-264 -720h-107l92 250l-161 470h106l109 -321z" />
    <glyph glyph-name="z" unicode="z" 
d="M520 510v-100l-301 -310h301v-100h-440v100l301 310h-301v100h440z" />
    <glyph glyph-name="braceleft" unicode="{" 
d="M340 480q0 -77 -55 -130q55 -53 55 -130v-140q0 -34 23 -57t57 -23h20v-100h-20q-75 0 -127.5 52.5t-52.5 127.5v140q0 34 -23 57t-57 23v100q34 0 57 23t23 57v140q0 75 52.5 127.5t127.5 52.5h20v-100h-20q-34 0 -57 -23t-23 -57v-140z" />
    <glyph glyph-name="bar" unicode="|" 
d="M350 800v-900h-100v900h100z" />
    <glyph glyph-name="braceright" unicode="}" horiz-adv-x="640" 
d="M380 480q0 -34 23 -57t57 -23v-100q-34 0 -57 -23t-23 -57v-140q0 -75 -52.5 -127.5t-127.5 -52.5h-20v100h20q34 0 57 23t23 57v140q0 77 55 130q-55 53 -55 130v140q0 34 -23 57t-57 23h-20v100h20q75 0 127.5 -52.5t52.5 -127.5v-140z" />
    <glyph glyph-name="asciitilde" unicode="~" 
d="M172 227l-94 32q19 54 57 78.5t99 22.5l109 -46q18 1 26 7.5t15 25.5l94 -32q-19 -54 -57 -78.5t-99 -22.5l-109 46q-18 -1 -26 -7.5t-15 -25.5z" />
    <glyph glyph-name="exclamdown" unicode="&#xa1;" 
d="M245 410v100h110v-100h-110zM250 -190v368l20 109h60l20 -109v-368h-100z" />
    <glyph glyph-name="cent" unicode="&#xa2;" 
d="M520 320h-100v10q0 31 -20 53.5t-50 25.5v-307q30 4 50 26.5t20 52.5v10h100v-10q0 -72 -49.5 -124t-120.5 -57v-100h-100v100q-71 5 -120.5 57t-49.5 124v149q0 72 49.5 124t120.5 56v100h100v-100q71 -4 120.5 -55.5t49.5 -124.5v-10zM180 181q0 -30 20 -52.5t50 -26.5
v307q-30 -3 -50 -25.5t-20 -53.5v-149z" />
    <glyph glyph-name="sterling" unicode="&#xa3;" 
d="M400 600q-34 0 -57 -23t-23 -57v-179h145v-100h-145v-61q0 -41 -18 -80h218v-100h-440v100h60q34 0 57 23t23 57v61h-110v100h110v179q0 75 52.5 127.5t127.5 52.5h120v-100h-120z" />
    <glyph glyph-name="currency" unicode="&#xa4;" 
d="M442 368q37 -71 0 -142l55 -56l-70 -70l-56 55q-71 -37 -142 0l-56 -55l-70 70l55 56q-37 71 0 142l-55 56l70 70l56 -55q71 37 142 0l56 55l70 -70zM258 255q17 -17 42 -17t42 17t17 42t-17 42t-42 17t-42 -17t-17 -42t17 -42z" />
    <glyph glyph-name="yen" unicode="&#xa5;" 
d="M520 700v-228l-119 -156h77v-100h-128v-50h128v-100h-128v-66h-100v66h-127v100h127v50h-127v100h73l-116 144v240h100v-204l118 -147h2l120 157v194h100z" />
    <glyph glyph-name="brokenbar" unicode="&#xa6;" 
d="M350 800v-307h-100v307h100zM350 207v-307h-100v307h100z" />
    <glyph glyph-name="section" unicode="&#xa7;" 
 />
    <glyph glyph-name="dieresis" unicode="&#xa8;" 
d="M155 700h110v-100h-110v100zM335 700h110v-100h-110v100z" />
    <glyph glyph-name="copyright" unicode="&#xa9;" 
d="M60 390q0 97 67 160t173 63t172.5 -63t66.5 -160v-167q0 -97 -66.5 -160t-172.5 -63q-107 0 -173.5 63t-66.5 160v167zM130 390v-167q0 -68 45.5 -110.5t124.5 -42.5q78 0 123.5 43t45.5 110v167q0 67 -45.5 110t-123.5 43t-124 -43t-46 -110zM345 281v1h70v-1
q0 -52 -33 -87t-82 -35t-82 35t-33 87v52q0 52 33 87t82 35t82 -35t33 -87v-1h-70v1q0 23 -12.5 37.5t-32.5 14.5t-32.5 -14.5t-12.5 -37.5v-52q0 -23 12.5 -37.5t32.5 -14.5t32.5 14.5t12.5 37.5z" />
    <glyph glyph-name="guillemotleft" unicode="&#xab;" 
d="M350 135v-100h-90l-200 170v100l200 170h90v-100h-53l-140 -119v-2l140 -119h53zM540 74h-57l-154 131v100l154 131h57v-100h-20l-94 -80v-2l94 -80h20v-100z" />
    <glyph glyph-name="logicalnot" unicode="&#xac;" 
d="M120 317h360v-100v-93h-100v93h-260v100z" />
    <glyph glyph-name="registered" unicode="&#xae;" 
d="M300 710q109 0 185.5 -76.5t76.5 -185.5t-76.5 -185.5t-185.5 -76.5t-185.5 76.5t-76.5 185.5t76.5 185.5t185.5 76.5zM300 256q80 0 136 56t56 136t-56 136t-136 56t-136 -56t-56 -136t56 -136t136 -56zM406 473q0 -48 -39 -77l36 -58h-82l-24 39h-18v-39h-70v231h70h30
q41 0 69 -28t28 -68zM309 499h-30v-52h30q11 0 19 7.5t8 18.5t-8 18.5t-19 7.5z" />
    <glyph glyph-name="macron" unicode="&#xaf;" 
d="M120 700h360v-100h-360v100z" />
    <glyph glyph-name="degree" unicode="&#xb0;" 
d="M300 444q-56 0 -94.5 39t-38.5 94t38.5 94t94.5 39q55 0 93.5 -39t38.5 -94t-38.5 -94t-93.5 -39zM300 544q13 0 22.5 9.5t9.5 23.5t-9.5 23.5t-22.5 9.5q-14 0 -23.5 -10t-9.5 -23t9.5 -23t23.5 -10z" />
    <glyph glyph-name="plusminus" unicode="&#xb1;" 
d="M350 460h130v-100h-130v-130h-100v130h-130v100h130v130h100v-130zM120 80v100h360v-100h-360z" />
    <glyph glyph-name="acute" unicode="&#xb4;" 
d="M377 752h136l-160 -152h-116z" />
    <glyph glyph-name="paragraph" unicode="&#xb6;" 
d="M390 700v-700h-100v280h-50q-75 0 -127.5 52.5t-52.5 127.5v60q0 75 52.5 127.5t127.5 52.5h150zM440 700h100v-700h-100v700z" />
    <glyph glyph-name="periodcentered" unicode="&#xb7;" 
d="M245 380h110v-100h-110v100z" />
    <glyph glyph-name="cedilla" unicode="&#xb8;" 
d="M357 -24q52 0 89 -38t37 -91q0 -52 -37 -89.5t-89 -37.5h-114v100h114q10 0 18 8.5t8 18.5q0 12 -7.5 20.5t-18.5 8.5h-76l-43 81l14 43v33h100v-33l-4 -24h9z" />
    <glyph glyph-name="guillemotright" unicode="&#xbb;" 
d="M250 135h53l140 119v2l-140 119h-53v100h90l200 -170v-100l-200 -170h-90v100zM60 74v100h20l94 80v2l-94 80h-20v100h57l154 -131v-100l-154 -131h-57z" />
    <glyph glyph-name="questiondown" unicode="&#xbf;" 
d="M355 410h-110v100h110v-100zM350 287v-118l-170 -107v-72q0 -34 23 -57t57 -23h80q33 0 56.5 23.5t23.5 56.5v35h100v-35q0 -75 -53 -127.5t-127 -52.5h-80q-75 0 -127.5 52.5t-52.5 127.5v127l170 107v63h100z" />
    <glyph glyph-name="Agrave" unicode="&#xc0;" 
d="M338 790h-116l-160 152h136zM350 700l170 -470v-230h-100v162h-240v-162h-100v230l170 470h100zM299 542l-101 -280h204l-101 280h-2z" />
    <glyph glyph-name="Aacute" unicode="&#xc1;" 
d="M528 942l-160 -152h-116l140 152h136zM250 700h100l170 -470v-230h-100v162h-240v-162h-100v230zM299 542l-101 -280h204l-101 280h-2z" />
    <glyph glyph-name="Acircumflex" unicode="&#xc2;" 
d="M300 859l-67 -69h-116l130 152h106l130 -152h-116zM350 700l170 -470v-230h-100v162h-240v-162h-100v230l170 470h100zM299 542l-101 -280h204l-101 280h-2z" />
    <glyph glyph-name="Atilde" unicode="&#xc3;" 
d="M257 810q-18 -1 -26 -7.5t-15 -25.5l-94 32q19 54 57 78.5t99 22.5l109 -46q18 1 26 7.5t15 25.5l94 -32q-19 -54 -57 -78.5t-99 -22.5zM250 700h100l170 -470v-230h-100v162h-240v-162h-100v230zM299 542l-101 -280h204l-101 280h-2z" />
    <glyph glyph-name="Adieresis" unicode="&#xc4;" 
d="M265 890v-100h-110v100h110zM445 890v-100h-110v100h110zM350 700l170 -470v-230h-100v162h-240v-162h-100v230l170 470h100zM299 542l-101 -280h204l-101 280h-2z" />
    <glyph glyph-name="Aring" unicode="&#xc5;" 
d="M300 790q-53 0 -90 36.5t-37 89.5t37 89.5t90 36.5q52 0 89 -37t37 -89t-37 -89t-89 -37zM300 942q-12 0 -19.5 -7.5t-7.5 -18.5t7.5 -18.5t19.5 -7.5q10 0 18 8t8 18q0 11 -7.5 18.5t-18.5 7.5zM350 700l170 -470v-230h-100v162h-240v-162h-100v230l170 470h100z
M299 542l-101 -280h204l-101 280h-2z" />
    <glyph glyph-name="AE" unicode="&#xc6;" 
d="M570 600h-181v-183h161v-100h-161v-217h181v-100h-281v162h-159v-162h-100v230l170 470h100h270v-100zM289 542h-40l-101 -280h141v280z" />
    <glyph glyph-name="Ccedilla" unicode="&#xc7;" 
d="M520 465h-100v55q0 34 -23 57t-57 23h-80q-34 0 -57 -23.5t-23 -56.5v-339q0 -33 23.5 -56.5t56.5 -23.5h80q33 0 56.5 23.5t23.5 56.5v55h100v-55q0 -71 -48.5 -123.5t-119.5 -57.5l-4 -24h9q52 0 89 -38t37 -91q0 -52 -37 -89.5t-89 -37.5h-114v100h114q10 0 18 8.5
t8 18.5q0 12 -7.5 20.5t-18.5 8.5h-76l-43 81l14 43q-71 3 -121.5 56t-50.5 125v339q0 75 53 127.5t127 52.5h80q75 0 127.5 -52.5t52.5 -127.5v-55z" />
    <glyph glyph-name="Egrave" unicode="&#xc8;" 
d="M338 790h-116l-160 152h136zM520 600h-340v-183h300v-100h-300v-217h340v-100h-440v317v283v100h440v-100z" />
    <glyph glyph-name="Eacute" unicode="&#xc9;" 
d="M528 942l-160 -152h-116l140 152h136zM80 700h440v-100h-340v-183h300v-100h-300v-217h340v-100h-440v317v283v100z" />
    <glyph glyph-name="Ecircumflex" unicode="&#xca;" 
d="M300 859l-67 -69h-116l130 152h106l130 -152h-116zM520 600h-340v-183h300v-100h-300v-217h340v-100h-440v317v283v100h440v-100z" />
    <glyph glyph-name="Edieresis" unicode="&#xcb;" 
d="M265 890v-100h-110v100h110zM445 890v-100h-110v100h110zM520 600h-340v-183h300v-100h-300v-217h340v-100h-440v317v283v100h440v-100z" />
    <glyph glyph-name="Igrave" unicode="&#xcc;" 
d="M338 790h-116l-160 152h136zM520 600h-170v-500h170v-100h-270h-170v100h170v500h-170v100h270h170v-100z" />
    <glyph glyph-name="Iacute" unicode="&#xcd;" 
d="M528 942l-160 -152h-116l140 152h136zM520 700v-100h-170v-500h170v-100h-270h-170v100h170v500h-170v100h440z" />
    <glyph glyph-name="Icircumflex" unicode="&#xce;" 
d="M300 859l-67 -69h-116l130 152h106l130 -152h-116zM520 600h-170v-500h170v-100h-270h-170v100h170v500h-170v100h270h170v-100z" />
    <glyph glyph-name="Idieresis" unicode="&#xcf;" 
d="M265 890v-100h-110v100h110zM445 890v-100h-110v100h110zM520 600h-170v-500h170v-100h-270h-170v100h170v500h-170v100h270h170v-100z" />
    <glyph glyph-name="Eth" unicode="&#xd0;" 
d="M340 700q74 0 127 -52.5t53 -127.5v-339q0 -74 -53 -127.5t-127 -53.5h-190h-70v342h-60v100h60v258h100h160zM420 181v339q0 33 -23 56.5t-57 23.5h-160v-158h130v-100h-130v-241h160q33 0 56.5 23.5t23.5 56.5z" />
    <glyph glyph-name="Ntilde" unicode="&#xd1;" 
d="M257 810q-18 -1 -26 -7.5t-15 -25.5l-94 32q19 54 57 78.5t99 22.5l109 -46q18 1 26 7.5t15 25.5l94 -32q-19 -54 -57 -78.5t-99 -22.5zM420 168v532h100v-700h-145l-195 532v-532h-100v700h145z" />
    <glyph glyph-name="Ograve" unicode="&#xd2;" 
d="M198 942l140 -152h-116l-160 152h136zM340 0h-80q-74 0 -127 53.5t-53 127.5v339q0 75 53 127.5t127 52.5h80q75 0 127.5 -52.5t52.5 -127.5v-339q0 -75 -52.5 -128t-127.5 -53zM340 101q33 0 56.5 23.5t23.5 56.5v339q0 34 -23 57t-57 23h-80q-34 0 -57 -23.5t-23 -56.5
v-339q0 -33 23.5 -56.5t56.5 -23.5h80z" />
    <glyph glyph-name="Oacute" unicode="&#xd3;" 
d="M392 942h136l-160 -152h-116zM340 0h-80q-74 0 -127 53.5t-53 127.5v339q0 75 53 127.5t127 52.5h80q75 0 127.5 -52.5t52.5 -127.5v-339q0 -75 -52.5 -128t-127.5 -53zM340 101q33 0 56.5 23.5t23.5 56.5v339q0 34 -23 57t-57 23h-80q-34 0 -57 -23.5t-23 -56.5v-339
q0 -33 23.5 -56.5t56.5 -23.5h80z" />
    <glyph glyph-name="Ocircumflex" unicode="&#xd4;" 
d="M300 859l-67 -69h-116l130 152h106l130 -152h-116zM340 700q75 0 127.5 -52.5t52.5 -127.5v-339q0 -75 -52.5 -128t-127.5 -53h-80q-74 0 -127 53.5t-53 127.5v339q0 75 53 127.5t127 52.5h80zM420 181v339q0 34 -23 57t-57 23h-80q-34 0 -57 -23.5t-23 -56.5v-339
q0 -33 23.5 -56.5t56.5 -23.5h80q33 0 56.5 23.5t23.5 56.5z" />
    <glyph glyph-name="Otilde" unicode="&#xd5;" 
d="M216 777l-94 32q19 54 57 78.5t99 22.5l109 -46q18 1 26 7.5t15 25.5l94 -32q-19 -54 -57 -78.5t-99 -22.5l-109 46q-18 -1 -26 -7.5t-15 -25.5zM340 0h-80q-74 0 -127 53.5t-53 127.5v339q0 75 53 127.5t127 52.5h80q75 0 127.5 -52.5t52.5 -127.5v-339
q0 -75 -52.5 -128t-127.5 -53zM340 101q33 0 56.5 23.5t23.5 56.5v339q0 34 -23 57t-57 23h-80q-34 0 -57 -23.5t-23 -56.5v-339q0 -33 23.5 -56.5t56.5 -23.5h80z" />
    <glyph glyph-name="Odieresis" unicode="&#xd6;" 
d="M155 890h110v-100h-110v100zM335 890h110v-100h-110v100zM340 0h-80q-74 0 -127 53.5t-53 127.5v339q0 75 53 127.5t127 52.5h80q75 0 127.5 -52.5t52.5 -127.5v-339q0 -75 -52.5 -128t-127.5 -53zM340 101q33 0 56.5 23.5t23.5 56.5v339q0 34 -23 57t-57 23h-80
q-34 0 -57 -23.5t-23 -56.5v-339q0 -33 23.5 -56.5t56.5 -23.5h80z" />
    <glyph glyph-name="multiply" unicode="&#xd7;" 
d="M462 361l-92 -92l92 -92l-70 -71l-92 93l-92 -92l-71 70l92 92l-92 92l71 70l92 -91l92 92z" />
    <glyph glyph-name="Oslash" unicode="&#xd8;" 
d="M466 649q54 -52 54 -129v-339q0 -75 -52.5 -128t-127.5 -53h-80q-21 0 -36 4l-41 -109h-107l59 157q-55 53 -55 129v339q0 75 53 127.5t127 52.5h80q21 0 36 -4l41 109h107zM180 181v-8l160 427h-80q-34 0 -57 -23.5t-23 -56.5v-339zM420 181v339v7l-160 -426h80
q33 0 56.5 23.5t23.5 56.5z" />
    <glyph glyph-name="Ugrave" unicode="&#xd9;" 
d="M198 942l140 -152h-116l-160 152h136zM520 700v-519q0 -74 -53 -127.5t-127 -53.5h-80q-75 0 -127.5 53t-52.5 128v519h100v-519q0 -33 23.5 -56.5t56.5 -23.5h80q33 0 56.5 23.5t23.5 56.5v519h100z" />
    <glyph glyph-name="Uacute" unicode="&#xda;" 
d="M392 942h136l-160 -152h-116zM520 700v-519q0 -74 -53 -127.5t-127 -53.5h-80q-75 0 -127.5 53t-52.5 128v519h100v-519q0 -33 23.5 -56.5t56.5 -23.5h80q33 0 56.5 23.5t23.5 56.5v519h100z" />
    <glyph glyph-name="Ucircumflex" unicode="&#xdb;" 
d="M300 859l-67 -69h-116l130 152h106l130 -152h-116zM420 700h100v-519q0 -74 -53 -127.5t-127 -53.5h-80q-75 0 -127.5 53t-52.5 128v519h100v-519q0 -33 23.5 -56.5t56.5 -23.5h80q33 0 56.5 23.5t23.5 56.5v519z" />
    <glyph glyph-name="Udieresis" unicode="&#xdc;" 
d="M155 890h110v-100h-110v100zM335 890h110v-100h-110v100zM520 700v-519q0 -74 -53 -127.5t-127 -53.5h-80q-75 0 -127.5 53t-52.5 128v519h100v-519q0 -33 23.5 -56.5t56.5 -23.5h80q33 0 56.5 23.5t23.5 56.5v519h100z" />
    <glyph glyph-name="Yacute" unicode="&#xdd;" 
d="M528 942l-160 -152h-116l140 152h136zM420 506v194h100v-228l-170 -223v-249h-100v249l-170 211v240h100v-204l118 -147h2z" />
    <glyph glyph-name="Thorn" unicode="&#xde;" 
d="M340 570q75 0 127.5 -52.5t52.5 -127.5v-60q0 -75 -52.5 -127.5t-127.5 -52.5h-160v-150h-100v700h100v-130h160zM420 330v60q0 34 -23 57t-57 23h-160v-220h160q34 0 57 23t23 57z" />
    <glyph glyph-name="germandbls" unicode="&#xdf;" 
d="M435 373q39 -25 62 -65t23 -88v-40q0 -75 -52.5 -127.5t-127.5 -52.5h-80v100h80q34 0 57 23t23 57v40q0 34 -23 57t-57 23h-80v100h30q34 0 57 23t23 57v40q0 34 -23 57t-57 23h-30q-33 0 -56.5 -23.5t-23.5 -56.5v-520h-100v520q0 75 53 127.5t127 52.5h30
q75 0 127.5 -52.5t52.5 -127.5v-40q0 -59 -35 -107z" />
    <glyph glyph-name="agrave" unicode="&#xe0;" 
d="M358 600h-116l-160 152h136zM420 510h100v-510h-100v56l-83 -56h-77q-74 0 -127 53t-53 127v150q0 75 53 127.5t127 52.5h77l83 -56v56zM306 100l114 77v156l-114 77h-46q-33 0 -56.5 -23.5t-23.5 -56.5v-150q0 -33 23.5 -56.5t56.5 -23.5h46z" />
    <glyph glyph-name="aacute" unicode="&#xe1;" 
d="M548 752l-160 -152h-116l140 152h136zM420 454v56h100v-510h-100v56l-83 -56h-77q-74 0 -127 53t-53 127v150q0 75 53 127.5t127 52.5h77zM306 100l114 77v156l-114 77h-46q-33 0 -56.5 -23.5t-23.5 -56.5v-150q0 -33 23.5 -56.5t56.5 -23.5h46z" />
    <glyph glyph-name="acircumflex" unicode="&#xe2;" 
d="M320 669l-67 -69h-116l130 152h106l130 -152h-116zM420 510h100v-510h-100v56l-83 -56h-77q-74 0 -127 53t-53 127v150q0 75 53 127.5t127 52.5h77l83 -56v56zM306 100l114 77v156l-114 77h-46q-33 0 -56.5 -23.5t-23.5 -56.5v-150q0 -33 23.5 -56.5t56.5 -23.5h46z" />
    <glyph glyph-name="atilde" unicode="&#xe3;" 
d="M277 620q-18 -1 -26 -7.5t-15 -25.5l-94 32q19 54 57 78.5t99 22.5l109 -46q18 1 26 7.5t15 25.5l94 -32q-19 -54 -57 -78.5t-99 -22.5zM420 454v56h100v-510h-100v56l-83 -56h-77q-74 0 -127 53t-53 127v150q0 75 53 127.5t127 52.5h77zM306 100l114 77v156l-114 77h-46
q-33 0 -56.5 -23.5t-23.5 -56.5v-150q0 -33 23.5 -56.5t56.5 -23.5h46z" />
    <glyph glyph-name="adieresis" unicode="&#xe4;" 
d="M285 700v-100h-110v100h110zM465 700v-100h-110v100h110zM420 510h100v-510h-100v56l-83 -56h-77q-74 0 -127 53t-53 127v150q0 75 53 127.5t127 52.5h77l83 -56v56zM306 100l114 77v156l-114 77h-46q-33 0 -56.5 -23.5t-23.5 -56.5v-150q0 -33 23.5 -56.5t56.5 -23.5h46
z" />
    <glyph glyph-name="aring" unicode="&#xe5;" 
d="M320 600q-53 0 -90 36.5t-37 89.5t37 89.5t90 36.5q52 0 89 -37t37 -89t-37 -89t-89 -37zM320 752q-12 0 -19.5 -7.5t-7.5 -18.5t7.5 -18.5t19.5 -7.5q10 0 18 8t8 18q0 11 -7.5 18.5t-18.5 7.5zM420 510h100v-510h-100v56l-83 -56h-77q-74 0 -127 53t-53 127v150
q0 75 53 127.5t127 52.5h77l83 -56v56zM306 100l114 77v156l-114 77h-46q-33 0 -56.5 -23.5t-23.5 -56.5v-150q0 -33 23.5 -56.5t56.5 -23.5h46z" />
    <glyph glyph-name="ae" unicode="&#xe6;" 
d="M415 510q75 0 120 -52t45 -128v-48v-50h-230v-51q0 -35 16.5 -57.5t48.5 -22.5t48.5 22.5t16.5 57.5h100q0 -76 -46 -128.5t-119 -52.5q-34 0 -65 13v-13h-100v33l-53 -33h-27q-69 0 -109.5 46.5t-40.5 133.5v150q0 88 40.5 134t109.5 46h27l53 -33v33h100v-13
q31 13 65 13zM168 100l82 52v178v28l-82 52h-6q-42 0 -42 -80v-150q0 -80 42 -80h6zM350 312h130v18q0 36 -16.5 58t-48.5 22t-48.5 -22.5t-16.5 -57.5v-18z" />
    <glyph glyph-name="ccedilla" unicode="&#xe7;" 
d="M520 320h-100v10q0 34 -23 57t-57 23h-80q-34 0 -57 -23.5t-23 -56.5v-149q0 -33 23.5 -56.5t56.5 -23.5h80q33 0 56.5 23.5t23.5 56.5v10h100v-10q0 -71 -48.5 -123.5t-119.5 -57.5l-4 -24h9q52 0 89 -38t37 -91q0 -52 -37 -89.5t-89 -37.5h-114v100h114q10 0 18 8.5
t8 18.5q0 12 -7.5 20.5t-18.5 8.5h-76l-43 81l14 43q-71 3 -121.5 56t-50.5 125v149q0 75 53 127.5t127 52.5h80q75 0 127.5 -52.5t52.5 -127.5v-10z" />
    <glyph glyph-name="egrave" unicode="&#xe8;" 
d="M373 600h-116l-160 152h136zM520 340v-20v-77v-11h-340v-51q0 -33 23.5 -56.5t56.5 -23.5h80q33 0 56.5 23.5t23.5 56.5v10h100v-10q0 -75 -52.5 -128t-127.5 -53h-80q-74 0 -127 53.5t-53 127.5v149q0 75 53 127.5t127 52.5h80q73 0 124.5 -49.5t55.5 -120.5zM420 312
v18q0 34 -23 57t-57 23h-80q-34 0 -57 -23.5t-23 -56.5v-18h240z" />
    <glyph glyph-name="eacute" unicode="&#xe9;" 
d="M513 752l-160 -152h-116l140 152h136zM520 340v-20v-77v-11h-340v-51q0 -33 23.5 -56.5t56.5 -23.5h80q33 0 56.5 23.5t23.5 56.5v10h100v-10q0 -75 -52.5 -128t-127.5 -53h-80q-74 0 -127 53.5t-53 127.5v149q0 75 53 127.5t127 52.5h80q73 0 124.5 -49.5t55.5 -120.5z
M420 312v18q0 34 -23 57t-57 23h-80q-34 0 -57 -23.5t-23 -56.5v-18h240z" />
    <glyph glyph-name="ecircumflex" unicode="&#xea;" 
d="M300 669l-67 -69h-116l130 152h106l130 -152h-116zM520 340v-20v-77v-11h-340v-51q0 -33 23.5 -56.5t56.5 -23.5h80q33 0 56.5 23.5t23.5 56.5v10h100v-10q0 -75 -52.5 -128t-127.5 -53h-80q-74 0 -127 53.5t-53 127.5v149q0 75 53 127.5t127 52.5h80q73 0 124.5 -49.5
t55.5 -120.5zM420 312v18q0 34 -23 57t-57 23h-80q-34 0 -57 -23.5t-23 -56.5v-18h240z" />
    <glyph glyph-name="edieresis" unicode="&#xeb;" 
d="M265 700v-100h-110v100h110zM445 700v-100h-110v100h110zM520 340v-20v-77v-11h-340v-51q0 -33 23.5 -56.5t56.5 -23.5h80q33 0 56.5 23.5t23.5 56.5v10h100v-10q0 -75 -52.5 -128t-127.5 -53h-80q-74 0 -127 53.5t-53 127.5v149q0 75 53 127.5t127 52.5h80
q73 0 124.5 -49.5t55.5 -120.5zM420 312v18q0 34 -23 57t-57 23h-80q-34 0 -57 -23.5t-23 -56.5v-18h240z" />
    <glyph glyph-name="igrave" unicode="&#xec;" 
d="M338 600h-116l-160 152h136zM345 100h175v-100h-275h-165v100h165v310h-165v100h265v-410z" />
    <glyph glyph-name="iacute" unicode="&#xed;" 
d="M528 752l-160 -152h-116l140 152h136zM345 100h175v-100h-275h-165v100h165v310h-165v100h265v-410z" />
    <glyph glyph-name="icircumflex" unicode="&#xee;" 
d="M300 669l-67 -69h-116l130 152h106l130 -152h-116zM345 100h175v-100h-275h-165v100h165v310h-165v100h265v-410z" />
    <glyph glyph-name="idieresis" unicode="&#xef;" 
d="M265 700v-100h-110v100h110zM445 700v-100h-110v100h110zM345 100h175v-100h-275h-165v100h165v310h-165v100h265v-410z" />
    <glyph glyph-name="ntilde" unicode="&#xf1;" 
d="M235 620q-18 -1 -26 -7.5t-15 -25.5l-94 32q19 54 57 78.5t99 22.5l109 -46q18 1 26 7.5t15 25.5l94 -32q-19 -54 -57 -78.5t-99 -22.5zM340 510q74 0 127 -52.5t53 -127.5v-330h-100v330q0 33 -23.5 56.5t-56.5 23.5h-46l-114 -77v-333h-100v510h100v-56l83 56h77z" />
    <glyph glyph-name="ograve" unicode="&#xf2;" 
d="M233 752l140 -152h-116l-160 152h136zM340 0h-80q-75 0 -127.5 52t-52.5 127v151q0 75 52.5 127.5t127.5 52.5h80q75 0 127.5 -52.5t52.5 -127.5v-151q0 -75 -52.5 -127t-127.5 -52zM340 100q34 0 57 22.5t23 56.5v151q0 34 -23 57t-57 23h-80q-34 0 -57 -23t-23 -57
v-151q0 -33 23 -55.5t57 -23.5h80z" />
    <glyph glyph-name="oacute" unicode="&#xf3;" 
d="M377 752h136l-160 -152h-116zM340 0h-80q-75 0 -127.5 52t-52.5 127v151q0 75 52.5 127.5t127.5 52.5h80q75 0 127.5 -52.5t52.5 -127.5v-151q0 -75 -52.5 -127t-127.5 -52zM340 100q34 0 57 22.5t23 56.5v151q0 34 -23 57t-57 23h-80q-34 0 -57 -23t-23 -57v-151
q0 -33 23 -55.5t57 -23.5h80z" />
    <glyph glyph-name="ocircumflex" unicode="&#xf4;" 
d="M300 669l-67 -69h-116l130 152h106l130 -152h-116zM340 510q75 0 127.5 -52.5t52.5 -127.5v-151q0 -75 -52.5 -127t-127.5 -52h-80q-75 0 -127.5 52t-52.5 127v151q0 75 52.5 127.5t127.5 52.5h80zM420 179v151q0 34 -23 57t-57 23h-80q-34 0 -57 -23t-23 -57v-151
q0 -33 23 -55.5t57 -23.5h80q34 0 57 22.5t23 56.5z" />
    <glyph glyph-name="otilde" unicode="&#xf5;" 
d="M194 587l-94 32q19 54 57 78.5t99 22.5l109 -46q18 1 26 7.5t15 25.5l94 -32q-19 -54 -57 -78.5t-99 -22.5l-109 46q-18 -1 -26 -7.5t-15 -25.5zM340 0h-80q-75 0 -127.5 52t-52.5 127v151q0 75 52.5 127.5t127.5 52.5h80q75 0 127.5 -52.5t52.5 -127.5v-151
q0 -75 -52.5 -127t-127.5 -52zM340 100q34 0 57 22.5t23 56.5v151q0 34 -23 57t-57 23h-80q-34 0 -57 -23t-23 -57v-151q0 -33 23 -55.5t57 -23.5h80z" />
    <glyph glyph-name="odieresis" unicode="&#xf6;" 
d="M155 700h110v-100h-110v100zM335 700h110v-100h-110v100zM340 0h-80q-75 0 -127.5 52t-52.5 127v151q0 75 52.5 127.5t127.5 52.5h80q75 0 127.5 -52.5t52.5 -127.5v-151q0 -75 -52.5 -127t-127.5 -52zM340 100q34 0 57 22.5t23 56.5v151q0 34 -23 57t-57 23h-80
q-34 0 -57 -23t-23 -57v-151q0 -33 23 -55.5t57 -23.5h80z" />
    <glyph glyph-name="divide" unicode="&#xf7;" 
d="M245 477h110v-100h-110v100zM120 317h360v-100h-360v100zM245 157h110v-100h-110v100z" />
    <glyph glyph-name="oslash" unicode="&#xf8;" 
d="M439 481q81 -53 81 -151v-151q0 -75 -52.5 -127t-127.5 -52h-80h-1l-36 -95h-107l46 123q-82 54 -82 151v151q0 75 52.5 127.5t127.5 52.5h80h2l36 95h107zM180 179q0 -30 19 -52l106 283h-45q-34 0 -57 -23t-23 -57v-151zM420 179v151q0 30 -19 52l-105 -282h44
q34 0 57 22.5t23 56.5z" />
    <glyph glyph-name="ugrave" unicode="&#xf9;" 
d="M373 600h-116l-160 152h136zM420 510h100v-510h-100v56l-83 -56h-77q-74 0 -127 52.5t-53 127.5v330h100v-330q0 -33 23.5 -56.5t56.5 -23.5h46l114 77v333z" />
    <glyph glyph-name="uacute" unicode="&#xfa;" 
d="M513 752l-160 -152h-116l140 152h136zM420 510h100v-510h-100v56l-83 -56h-77q-74 0 -127 52.5t-53 127.5v330h100v-330q0 -33 23.5 -56.5t56.5 -23.5h46l114 77v333z" />
    <glyph glyph-name="ucircumflex" unicode="&#xfb;" 
d="M300 669l-67 -69h-116l130 152h106l130 -152h-116zM420 510h100v-510h-100v56l-83 -56h-77q-74 0 -127 52.5t-53 127.5v330h100v-330q0 -33 23.5 -56.5t56.5 -23.5h46l114 77v333z" />
    <glyph glyph-name="udieresis" unicode="&#xfc;" 
d="M265 700v-100h-110v100h110zM445 700v-100h-110v100h110zM420 510h100v-510h-100v56l-83 -56h-77q-74 0 -127 52.5t-53 127.5v330h100v-330q0 -33 23.5 -56.5t56.5 -23.5h46l114 77v333z" />
    <glyph glyph-name="yacute" unicode="&#xfd;" 
d="M513 752l-160 -152h-116l140 152h136zM413 510h107l-264 -720h-107l92 250l-161 470h106l109 -321z" />
    <glyph glyph-name="thorn" unicode="&#xfe;" 
d="M340 510q74 0 127 -53t53 -127v-150q0 -75 -53 -127.5t-127 -52.5h-77l-83 56v-266h-100v920h100v-256l83 56h77zM420 180v150q0 33 -23.5 56.5t-56.5 23.5h-46l-114 -77v-156l114 -77h46q33 0 56.5 23.5t23.5 56.5z" />
    <glyph glyph-name="ydieresis" unicode="&#xff;" 
d="M265 700v-100h-110v100h110zM445 700v-100h-110v100h110zM413 510h107l-264 -720h-107l92 250l-161 470h106l109 -321z" />
    <glyph glyph-name="Amacron" unicode="&#x100;" 
d="M480 890v-100h-360v100h360zM350 700l170 -470v-230h-100v162h-240v-162h-100v230l170 470h100zM299 542l-101 -280h204l-101 280h-2z" />
    <glyph glyph-name="amacron" unicode="&#x101;" 
d="M500 700v-100h-360v100h360zM420 510h100v-510h-100v56l-83 -56h-77q-74 0 -127 53t-53 127v150q0 75 53 127.5t127 52.5h77l83 -56v56zM306 100l114 77v156l-114 77h-46q-33 0 -56.5 -23.5t-23.5 -56.5v-150q0 -33 23.5 -56.5t56.5 -23.5h46z" />
    <glyph glyph-name="Abreve" unicode="&#x102;" 
d="M300 790q-64 0 -109 45t-45 109v1h100v-1q0 -22 16 -38t38 -16t37.5 16t15.5 38v1h100v-1q0 -64 -45 -109t-108 -45zM350 700l170 -470v-230h-100v162h-240v-162h-100v230l170 470h100zM299 542l-101 -280h204l-101 280h-2z" />
    <glyph glyph-name="abreve" unicode="&#x103;" 
d="M320 600q-64 0 -109 45t-45 109v1h100v-1q0 -22 16 -38t38 -16t37.5 16t15.5 38v1h100v-1q0 -64 -45 -109t-108 -45zM420 510h100v-510h-100v56l-83 -56h-77q-74 0 -127 53t-53 127v150q0 75 53 127.5t127 52.5h77l83 -56v56zM306 100l114 77v156l-114 77h-46
q-33 0 -56.5 -23.5t-23.5 -56.5v-150q0 -33 23.5 -56.5t56.5 -23.5h46z" />
    <glyph glyph-name="Aogonek" unicode="&#x104;" 
d="M520 0q-32 -32 -45.5 -56.5t-11.5 -37.5t14 -21t25.5 -10.5t29.5 -2.5v-100h-64q-62 0 -94 40.5t-19.5 95.5t65.5 92v162h-240v-162h-100v230l170 470h100l170 -470v-230zM299 542l-101 -280h204l-101 280h-2z" />
    <glyph glyph-name="aogonek" unicode="&#x105;" 
d="M520 0q-32 -32 -45.5 -56.5t-11.5 -37.5t14 -21t25.5 -10.5t29.5 -2.5v-100h-64q-62 0 -94 40.5t-19.5 95.5t65.5 92v56l-83 -56h-77q-74 0 -127 53t-53 127v150q0 75 53 127.5t127 52.5h77l83 -56v56h100v-510zM306 100l114 77v156l-114 77h-46q-33 0 -56.5 -23.5
t-23.5 -56.5v-150q0 -33 23.5 -56.5t56.5 -23.5h46z" />
    <glyph glyph-name="Cacute" unicode="&#x106;" 
d="M392 942h136l-160 -152h-116zM420 465v55q0 34 -23 57t-57 23h-80q-34 0 -57 -23.5t-23 -56.5v-339q0 -33 23.5 -56.5t56.5 -23.5h80q33 0 56.5 23.5t23.5 56.5v55h100v-55q0 -75 -52.5 -128t-127.5 -53h-80q-74 0 -127 53.5t-53 127.5v339q0 75 53 127.5t127 52.5h80
q75 0 127.5 -52.5t52.5 -127.5v-55h-100z" />
    <glyph glyph-name="cacute" unicode="&#x107;" 
d="M392 752h136l-160 -152h-116zM420 330q0 34 -23 57t-57 23h-80q-34 0 -57 -23.5t-23 -56.5v-149q0 -33 23.5 -56.5t56.5 -23.5h80q33 0 56.5 23.5t23.5 56.5v10h100v-10q0 -75 -52.5 -128t-127.5 -53h-80q-74 0 -127 53.5t-53 127.5v149q0 75 53 127.5t127 52.5h80
q75 0 127.5 -52.5t52.5 -127.5v-10h-100v10z" />
    <glyph glyph-name="Cdotaccent" unicode="&#x10a;" 
d="M245 890h110v-100h-110v100zM420 465v55q0 34 -23 57t-57 23h-80q-34 0 -57 -23.5t-23 -56.5v-339q0 -33 23.5 -56.5t56.5 -23.5h80q33 0 56.5 23.5t23.5 56.5v55h100v-55q0 -75 -52.5 -128t-127.5 -53h-80q-74 0 -127 53.5t-53 127.5v339q0 75 53 127.5t127 52.5h80
q75 0 127.5 -52.5t52.5 -127.5v-55h-100z" />
    <glyph glyph-name="cdotaccent" unicode="&#x10b;" 
d="M245 700h110v-100h-110v100zM420 330q0 34 -23 57t-57 23h-80q-34 0 -57 -23.5t-23 -56.5v-149q0 -33 23.5 -56.5t56.5 -23.5h80q33 0 56.5 23.5t23.5 56.5v10h100v-10q0 -75 -52.5 -128t-127.5 -53h-80q-74 0 -127 53.5t-53 127.5v149q0 75 53 127.5t127 52.5h80
q75 0 127.5 -52.5t52.5 -127.5v-10h-100v10z" />
    <glyph glyph-name="Ccaron" unicode="&#x10c;" 
d="M353 790h-106l-130 152h116l67 -69l67 69h116zM520 465h-100v55q0 34 -23 57t-57 23h-80q-34 0 -57 -23.5t-23 -56.5v-339q0 -33 23.5 -56.5t56.5 -23.5h80q33 0 56.5 23.5t23.5 56.5v55h100v-55q0 -75 -52.5 -128t-127.5 -53h-80q-74 0 -127 53.5t-53 127.5v339
q0 75 53 127.5t127 52.5h80q75 0 127.5 -52.5t52.5 -127.5v-55z" />
    <glyph glyph-name="ccaron" unicode="&#x10d;" 
d="M353 600h-106l-130 152h116l67 -69l67 69h116zM520 320h-100v10q0 34 -23 57t-57 23h-80q-34 0 -57 -23.5t-23 -56.5v-149q0 -33 23.5 -56.5t56.5 -23.5h80q33 0 56.5 23.5t23.5 56.5v10h100v-10q0 -75 -52.5 -128t-127.5 -53h-80q-74 0 -127 53.5t-53 127.5v149
q0 75 53 127.5t127 52.5h80q75 0 127.5 -52.5t52.5 -127.5v-10z" />
    <glyph glyph-name="Dcaron" unicode="&#x10e;" 
d="M333 790h-106l-130 152h116l67 -69l67 69h116zM340 700q74 0 127 -52.5t53 -127.5v-339q0 -74 -53 -127.5t-127 -53.5h-190h-70v700h100h160zM420 181v339q0 33 -23 56.5t-57 23.5h-160v-499h160q33 0 56.5 23.5t23.5 56.5z" />
    <glyph glyph-name="dcaron" unicode="&#x10f;" 
d="M420 454v256h100v-710h-100v56l-83 -56h-77q-74 0 -127 53t-53 127v150q0 75 53 127.5t127 52.5h77zM600 710h100v-101l-20 -109h-60l-20 109v101zM306 100l114 77v156l-114 77h-46q-33 0 -56.5 -23.5t-23.5 -56.5v-150q0 -33 23.5 -56.5t56.5 -23.5h46z" />
    <glyph glyph-name="Dcroat" unicode="&#x110;" 
d="M340 700q74 0 127 -52.5t53 -127.5v-339q0 -74 -53 -127.5t-127 -53.5h-190h-70v342h-60v100h60v258h100h160zM420 181v339q0 33 -23 56.5t-57 23.5h-160v-158h130v-100h-130v-241h160q33 0 56.5 23.5t23.5 56.5z" />
    <glyph glyph-name="dcroat" unicode="&#x111;" 
d="M570 662v-100h-50v-562h-100v56l-83 -56h-77q-74 0 -127 53t-53 127v150q0 75 53 127.5t127 52.5h77l83 -56v108h-210v100h210v48h100v-48h50zM306 100l114 77v156l-114 77h-46q-33 0 -56.5 -23.5t-23.5 -56.5v-150q0 -33 23.5 -56.5t56.5 -23.5h46z" />
    <glyph glyph-name="Emacron" unicode="&#x112;" 
d="M480 881v-100h-360v100h360zM520 600h-340v-183h300v-100h-300v-217h340v-100h-440v317v283v100h440v-100z" />
    <glyph glyph-name="emacron" unicode="&#x113;" 
d="M480 700v-100h-360v100h360zM520 340v-20v-77v-11h-340v-51q0 -33 23.5 -56.5t56.5 -23.5h80q33 0 56.5 23.5t23.5 56.5v10h100v-10q0 -75 -52.5 -128t-127.5 -53h-80q-74 0 -127 53.5t-53 127.5v149q0 75 53 127.5t127 52.5h80q73 0 124.5 -49.5t55.5 -120.5zM420 312
v18q0 34 -23 57t-57 23h-80q-34 0 -57 -23.5t-23 -56.5v-18h240z" />
    <glyph glyph-name="Edotaccent" unicode="&#x116;" 
d="M355 890v-100h-110v100h110zM520 600h-340v-183h300v-100h-300v-217h340v-100h-440v317v283v100h440v-100z" />
    <glyph glyph-name="edotaccent" unicode="&#x117;" 
d="M355 700v-100h-110v100h110zM520 340v-20v-77v-11h-340v-51q0 -33 23.5 -56.5t56.5 -23.5h80q33 0 56.5 23.5t23.5 56.5v10h100v-10q0 -75 -52.5 -128t-127.5 -53h-80q-74 0 -127 53.5t-53 127.5v149q0 75 53 127.5t127 52.5h80q73 0 124.5 -49.5t55.5 -120.5zM420 312
v18q0 34 -23 57t-57 23h-80q-34 0 -57 -23.5t-23 -56.5v-18h240z" />
    <glyph glyph-name="Eogonek" unicode="&#x118;" 
d="M520 600h-340v-183h300v-100h-300v-217h340v-100h-143q-30 -34 -37.5 -57.5t5 -34t27 -14.5t34.5 -4v-100h-64q-57 0 -89 35.5t-27 85.5t46 89h-192v317v283v100h440v-100z" />
    <glyph glyph-name="eogonek" unicode="&#x119;" 
d="M520 340v-20v-77v-11h-340v-51q0 -33 23.5 -56.5t56.5 -23.5h80q33 0 56.5 23.5t23.5 56.5v10h100v-10q0 -63 -39 -112.5t-99 -63.5q-33 -36 -42 -60.5t3 -35.5t27.5 -15t35.5 -4v-100h-64q-57 0 -89 35.5t-27 85.5t46 89h-12q-74 0 -127 53.5t-53 127.5v149
q0 75 53 127.5t127 52.5h80q73 0 124.5 -49.5t55.5 -120.5zM420 312v18q0 34 -23 57t-57 23h-80q-34 0 -57 -23.5t-23 -56.5v-18h240z" />
    <glyph glyph-name="Ecaron" unicode="&#x11a;" 
d="M353 790h-106l-130 152h116l67 -69l67 69h116zM520 600h-340v-183h300v-100h-300v-217h340v-100h-440v317v283v100h440v-100z" />
    <glyph glyph-name="ecaron" unicode="&#x11b;" 
d="M353 600h-106l-130 152h116l67 -69l67 69h116zM520 340v-20v-77v-11h-340v-51q0 -33 23.5 -56.5t56.5 -23.5h80q33 0 56.5 23.5t23.5 56.5v10h100v-10q0 -75 -52.5 -128t-127.5 -53h-80q-74 0 -127 53.5t-53 127.5v149q0 75 53 127.5t127 52.5h80q73 0 124.5 -49.5
t55.5 -120.5zM420 312v18q0 34 -23 57t-57 23h-80q-34 0 -57 -23.5t-23 -56.5v-18h240z" />
    <glyph glyph-name="Gbreve" unicode="&#x11e;" 
d="M300 790q-64 0 -109 45t-45 109v1h100v-1q0 -22 16 -38t38 -16t37.5 16t15.5 38v1h100v-1q0 -64 -45 -109t-108 -45zM520 465h-100v55q0 34 -23 57t-57 23h-80q-34 0 -57 -23.5t-23 -56.5v-339q0 -33 23.5 -56.5t56.5 -23.5h80q33 0 56.5 23.5t23.5 56.5v55v41h-150v100
h250v-141v-55q0 -75 -52.5 -128t-127.5 -53h-80q-74 0 -127 53.5t-53 127.5v339q0 75 53 127.5t127 52.5h80q75 0 127.5 -52.5t52.5 -127.5v-55z" />
    <glyph glyph-name="gbreve" unicode="&#x11f;" 
d="M300 600q-64 0 -109 45t-45 109v1h100v-1q0 -22 16 -38t38 -16t37.5 16t15.5 38v1h100v-1q0 -64 -45 -109t-108 -45zM420 510h100v-539q0 -75 -52.5 -128t-127.5 -53h-80q-74 0 -127 53.5t-53 127.5h100q0 -33 23.5 -56.5t56.5 -23.5h80q33 0 56.5 23.5t23.5 56.5v85
l-83 -56h-77q-74 0 -127 53t-53 127v150q0 75 53 127.5t127 52.5h77l83 -56v56zM306 100l114 77v156l-114 77h-46q-33 0 -56.5 -23.5t-23.5 -56.5v-150q0 -33 23.5 -56.5t56.5 -23.5h46z" />
    <glyph glyph-name="Gdotaccent" unicode="&#x120;" 
d="M355 890v-100h-110v100h110zM520 465h-100v55q0 34 -23 57t-57 23h-80q-34 0 -57 -23.5t-23 -56.5v-339q0 -33 23.5 -56.5t56.5 -23.5h80q33 0 56.5 23.5t23.5 56.5v55v41h-150v100h250v-141v-55q0 -75 -52.5 -128t-127.5 -53h-80q-74 0 -127 53.5t-53 127.5v339
q0 75 53 127.5t127 52.5h80q75 0 127.5 -52.5t52.5 -127.5v-55z" />
    <glyph glyph-name="gdotaccent" unicode="&#x121;" 
d="M355 700v-100h-110v100h110zM420 510h100v-539q0 -75 -52.5 -128t-127.5 -53h-80q-74 0 -127 53.5t-53 127.5h100q0 -33 23.5 -56.5t56.5 -23.5h80q33 0 56.5 23.5t23.5 56.5v85l-83 -56h-77q-74 0 -127 53t-53 127v150q0 75 53 127.5t127 52.5h77l83 -56v56zM306 100
l114 77v156l-114 77h-46q-33 0 -56.5 -23.5t-23.5 -56.5v-150q0 -33 23.5 -56.5t56.5 -23.5h46z" />
    <glyph glyph-name="Gcommaaccent" unicode="&#x122;" 
d="M520 465h-100v55q0 34 -23 57t-57 23h-80q-34 0 -57 -23.5t-23 -56.5v-339q0 -33 23.5 -56.5t56.5 -23.5h80q33 0 56.5 23.5t23.5 56.5v55v41h-150v100h250v-141v-55q0 -75 -52.5 -128t-127.5 -53h-80q-74 0 -127 53.5t-53 127.5v339q0 75 53 127.5t127 52.5h80
q75 0 127.5 -52.5t52.5 -127.5v-55zM187 -310l72 210h100l-24 -73l-104 -137h-44z" />
    <glyph glyph-name="gcommaaccent" unicode="&#x123;" 
d="M412 810l-72 -210h-100l24 73l104 137h44zM420 510h100v-539q0 -75 -52.5 -128t-127.5 -53h-80q-74 0 -127 53.5t-53 127.5h100q0 -33 23.5 -56.5t56.5 -23.5h80q33 0 56.5 23.5t23.5 56.5v85l-83 -56h-77q-74 0 -127 53t-53 127v150q0 75 53 127.5t127 52.5h77l83 -56
v56zM306 100l114 77v156l-114 77h-46q-33 0 -56.5 -23.5t-23.5 -56.5v-150q0 -33 23.5 -56.5t56.5 -23.5h46z" />
    <glyph glyph-name="Hbar" unicode="&#x126;" 
d="M570 610v-100h-50v-190v-320h-100v320h-240v-320h-100v420v90h-50v100h50v90h100v-90h240v90h100v-90h50zM420 420v90h-240v-90h240z" />
    <glyph glyph-name="hbar" unicode="&#x127;" 
d="M340 510q74 0 127 -52.5t53 -127.5v-330h-100v330q0 33 -23.5 56.5t-56.5 23.5h-46l-114 -77v-333h-100v562h-50v100h50v48h100v-48h210v-100h-210v-108l83 56h77z" />
    <glyph glyph-name="Imacron" unicode="&#x12a;" 
d="M480 882v-100h-360v100h360zM520 600h-170v-500h170v-100h-270h-170v100h170v500h-170v100h270h170v-100z" />
    <glyph glyph-name="imacron" unicode="&#x12b;" 
d="M480 700v-100h-360v100h360zM345 100h175v-100h-275h-165v100h165v310h-165v100h265v-410z" />
    <glyph glyph-name="Iogonek" unicode="&#x12e;" 
d="M520 600h-170v-500h170v-100h-12q-32 -32 -45.5 -56.5t-11.5 -37.5t14 -21t25.5 -10.5t29.5 -2.5v-100h-64q-62 0 -94 40.5t-19.5 95.5t65.5 92h-158h-170v100h170v500h-170v100h270h170v-100z" />
    <glyph glyph-name="iogonek" unicode="&#x12f;" 
d="M355 700v-100h-110v100h110zM520 0h-143q-30 -34 -37.5 -57.5t5 -34t27 -14.5t34.5 -4v-100h-64q-57 0 -89 35.5t-27 85.5t46 89h-192v100h165v310h-165v100h265v-410h175v-100z" />
    <glyph glyph-name="Idotaccent" unicode="&#x130;" 
d="M355 890v-100h-110v100h110zM520 600h-170v-500h170v-100h-270h-170v100h170v500h-170v100h270h170v-100z" />
    <glyph glyph-name="dotlessi" unicode="&#x131;" 
d="M345 100h175v-100h-275h-165v100h165v310h-165v100h265v-410z" />
    <glyph glyph-name="Kcommaaccent" unicode="&#x136;" 
d="M520 700l-215 -350l215 -350h-118l-184 300h-38v-300h-100v700h100v-300h38l184 300h118zM187 -310l72 210h100l-24 -73l-104 -137h-44z" />
    <glyph glyph-name="kcommaaccent" unicode="&#x137;" 
d="M520 510l-160 -255l160 -255h-118l-129 205h-93v-205h-100v710h100v-405h93l129 205h118zM187 -310l72 210h100l-24 -73l-104 -137h-44z" />
    <glyph glyph-name="Lacute" unicode="&#x139;" 
d="M358 942l-160 -152h-116l140 152h136zM180 100h340v-100h-440v700h100v-600z" />
    <glyph glyph-name="lacute" unicode="&#x13a;" 
d="M513 942l-160 -152h-116l140 152h136zM345 100h175v-100h-275h-165v100h165v510h-165v100h265v-610z" />
    <glyph glyph-name="Lcommaaccent" unicode="&#x13b;" 
d="M180 100h340v-100h-440v700h100v-600zM187 -310l72 210h100l-24 -73l-104 -137h-44z" />
    <glyph glyph-name="lcommaaccent" unicode="&#x13c;" 
d="M345 100h175v-100h-275h-165v100h165v510h-165v100h265v-610zM187 -310l72 210h100l-24 -73l-104 -137h-44z" />
    <glyph glyph-name="Lcaron" unicode="&#x13d;" 
d="M449 637l-104 -137h-44l72 210h100zM180 100h340v-100h-440v700h100v-600z" />
    <glyph glyph-name="lcaron" unicode="&#x13e;" 
d="M345 100h175v-100h-275h-165v100h165v510h-165v100h265v-610zM425 710h100v-101l-20 -109h-60l-20 109v101z" />
    <glyph glyph-name="Lslash" unicode="&#x141;" 
d="M180 100h340v-100h-440v281l-60 -22l1 107l59 22v312h100v-275l189 71v-107l-189 -70v-219z" />
    <glyph glyph-name="lslash" unicode="&#x142;" 
d="M345 100h175v-100h-275h-165v100h165v203l-119 -44l1 107l118 44v200h-165v100h265v-263l130 49v-107l-130 -48v-241z" />
    <glyph glyph-name="Nacute" unicode="&#x143;" 
d="M528 942l-160 -152h-116l140 152h136zM420 168v532h100v-700h-145l-195 532v-532h-100v700h145z" />
    <glyph glyph-name="nacute" unicode="&#x144;" 
d="M528 752l-160 -152h-116l140 152h136zM340 510q74 0 127 -52.5t53 -127.5v-330h-100v330q0 33 -23.5 56.5t-56.5 23.5h-46l-114 -77v-333h-100v510h100v-56l83 56h77z" />
    <glyph glyph-name="Ncommaaccent" unicode="&#x145;" 
d="M420 700h100v-700h-145l-195 532v-532h-100v700h145l195 -532v532zM187 -310l72 210h100l-24 -73l-104 -137h-44z" />
    <glyph glyph-name="ncommaaccent" unicode="&#x146;" 
d="M340 510q74 0 127 -52.5t53 -127.5v-330h-100v330q0 33 -23.5 56.5t-56.5 23.5h-46l-114 -77v-333h-100v510h100v-56l83 56h77zM187 -310l72 210h100l-24 -73l-104 -137h-44z" />
    <glyph glyph-name="Ncaron" unicode="&#x147;" 
d="M353 790h-106l-130 152h116l67 -69l67 69h116zM420 700h100v-700h-145l-195 532v-532h-100v700h145l195 -532v532z" />
    <glyph glyph-name="ncaron" unicode="&#x148;" 
d="M353 600h-106l-130 152h116l67 -69l67 69h116zM340 510q74 0 127 -52.5t53 -127.5v-330h-100v330q0 33 -23.5 56.5t-56.5 23.5h-46l-114 -77v-333h-100v510h100v-56l83 56h77z" />
    <glyph glyph-name="Eng" unicode="&#x14a;" 
d="M420 700h100v-730q0 -75 -52.5 -127.5t-127.5 -52.5h-80v100h80q34 0 57 23t23 57v30h-45l-195 532v-532h-100v700h145l195 -532v532z" />
    <glyph glyph-name="eng" unicode="&#x14b;" 
d="M340 510q74 0 127 -52.5t53 -127.5v-360q0 -75 -52.5 -127.5t-127.5 -52.5h-80v100h80q34 0 57 23t23 57v360q0 33 -23.5 56.5t-56.5 23.5h-46l-114 -77v-333h-100v510h100v-56l83 56h77z" />
    <glyph glyph-name="Omacron" unicode="&#x14c;" 
d="M120 890h360v-100h-360v100zM340 0h-80q-74 0 -127 53.5t-53 127.5v339q0 75 53 127.5t127 52.5h80q75 0 127.5 -52.5t52.5 -127.5v-339q0 -75 -52.5 -128t-127.5 -53zM340 101q33 0 56.5 23.5t23.5 56.5v339q0 34 -23 57t-57 23h-80q-34 0 -57 -23.5t-23 -56.5v-339
q0 -33 23.5 -56.5t56.5 -23.5h80z" />
    <glyph glyph-name="omacron" unicode="&#x14d;" 
d="M120 700h360v-100h-360v100zM340 0h-80q-75 0 -127.5 52t-52.5 127v151q0 75 52.5 127.5t127.5 52.5h80q75 0 127.5 -52.5t52.5 -127.5v-151q0 -75 -52.5 -127t-127.5 -52zM340 100q34 0 57 22.5t23 56.5v151q0 34 -23 57t-57 23h-80q-34 0 -57 -23t-23 -57v-151
q0 -33 23 -55.5t57 -23.5h80z" />
    <glyph glyph-name="Ohungarumlaut" unicode="&#x150;" 
d="M272 942h136l-160 -152h-116zM472 942h136l-160 -152h-116zM340 0h-80q-74 0 -127 53.5t-53 127.5v339q0 75 53 127.5t127 52.5h80q75 0 127.5 -52.5t52.5 -127.5v-339q0 -75 -52.5 -128t-127.5 -53zM340 101q33 0 56.5 23.5t23.5 56.5v339q0 34 -23 57t-57 23h-80
q-34 0 -57 -23.5t-23 -56.5v-339q0 -33 23.5 -56.5t56.5 -23.5h80z" />
    <glyph glyph-name="ohungarumlaut" unicode="&#x151;" 
d="M277 752h136l-160 -152h-116zM477 752h136l-160 -152h-116zM340 0h-80q-75 0 -127.5 52t-52.5 127v151q0 75 52.5 127.5t127.5 52.5h80q75 0 127.5 -52.5t52.5 -127.5v-151q0 -75 -52.5 -127t-127.5 -52zM340 100q34 0 57 22.5t23 56.5v151q0 34 -23 57t-57 23h-80
q-34 0 -57 -23t-23 -57v-151q0 -33 23 -55.5t57 -23.5h80z" />
    <glyph glyph-name="OE" unicode="&#x152;" 
d="M390 600v-183h160v-100h-160v-217h180v-100h-280v19q-38 -19 -80 -19q-75 0 -127.5 54t-52.5 127v339q0 75 53 127.5t127 52.5q41 0 80 -18v18h280v-100h-180zM290 520q0 34 -23 57t-57 23t-57 -23.5t-23 -56.5v-339q0 -33 23.5 -56.5t56.5 -23.5t56.5 23.5t23.5 56.5
v339z" />
    <glyph glyph-name="oe" unicode="&#x153;" 
d="M415 510q75 0 120 -52t45 -128v-27v-71h-230v-51q0 -35 16.5 -57.5t48.5 -22.5t48.5 22.5t16.5 57.5h100q0 -76 -46 -128.5t-119 -52.5q-69 0 -115 48q-45 -48 -115 -48q-74 0 -119.5 53t-45.5 128v149q0 76 46 128t119 52q70 0 115 -47q47 47 115 47zM185 101
q32 0 48.5 22.5t16.5 57.5v149q0 36 -16.5 58t-48.5 22t-48.5 -22.5t-16.5 -57.5v-149q0 -35 16.5 -57.5t48.5 -22.5zM350 312h130v18q0 36 -16.5 58t-48.5 22t-48.5 -22.5t-16.5 -57.5v-18z" />
    <glyph glyph-name="Racute" unicode="&#x154;" 
d="M528 942l-160 -152h-116l140 152h136zM340 700q75 0 127.5 -52.5t52.5 -127.5v-60q0 -62 -36.5 -109.5t-94.5 -63.5l131 -287h-110l-127 280h-103v-280h-100v700h100h160zM420 460v60q0 34 -23 57t-57 23h-160v-220h160q34 0 57 23t23 57z" />
    <glyph glyph-name="racute" unicode="&#x155;" 
d="M528 752l-160 -152h-116l140 152h136zM340 510q74 0 127 -52.5t53 -127.5v-40h-100v40q0 33 -23.5 56.5t-56.5 23.5h-10l-150 -101v-309h-100v510h100v-80l119 80h41z" />
    <glyph glyph-name="Rcommaaccent" unicode="&#x156;" 
d="M520 460q0 -62 -36.5 -109.5t-94.5 -63.5l131 -287h-110l-127 280h-103v-280h-100v700h100h160q75 0 127.5 -52.5t52.5 -127.5v-60zM420 460v60q0 34 -23 57t-57 23h-160v-220h160q34 0 57 23t23 57zM187 -310l72 210h100l-24 -73l-104 -137h-44z" />
    <glyph glyph-name="rcommaaccent" unicode="&#x157;" 
d="M340 510q74 0 127 -52.5t53 -127.5v-40h-100v40q0 33 -23.5 56.5t-56.5 23.5h-10l-150 -101v-309h-100v510h100v-80l119 80h41zM17 -310l72 210h100l-24 -73l-104 -137h-44z" />
    <glyph glyph-name="Rcaron" unicode="&#x158;" 
d="M353 790h-106l-130 152h116l67 -69l67 69h116zM520 460q0 -62 -36.5 -109.5t-94.5 -63.5l131 -287h-110l-127 280h-103v-280h-100v700h100h160q75 0 127.5 -52.5t52.5 -127.5v-60zM420 460v60q0 34 -23 57t-57 23h-160v-220h160q34 0 57 23t23 57z" />
    <glyph glyph-name="rcaron" unicode="&#x159;" 
d="M353 600h-106l-130 152h116l67 -69l67 69h116zM340 510q74 0 127 -52.5t53 -127.5v-40h-100v40q0 33 -23.5 56.5t-56.5 23.5h-10l-150 -101v-309h-100v510h100v-80l119 80h41z" />
    <glyph glyph-name="Sacute" unicode="&#x15a;" 
d="M392 942h136l-160 -152h-116zM80 226h100v-40q0 -35 25.5 -60.5t60.5 -25.5h67q38 0 62.5 21.5t24.5 54.5q0 32 -24.5 61.5t-61 50.5t-79.5 47.5t-79.5 52t-61 64t-24.5 82.5q0 73 52 119.5t134 46.5h47q77 0 132 -54.5t55 -131.5v-30h-100v30q0 36 -25.5 61t-61.5 25
h-47q-40 0 -63 -17.5t-23 -48.5q0 -29 34 -57t82.5 -55t97 -58.5t82.5 -80t34 -107.5q0 -75 -53.5 -125.5t-133.5 -50.5h-67q-77 0 -131.5 54.5t-54.5 131.5v40z" />
    <glyph glyph-name="sacute" unicode="&#x15b;" 
d="M392 752h136l-160 -152h-116zM80 168h100v-20q0 -21 18.5 -34.5t50.5 -13.5h101q70 0 70 41q0 31 -34.5 48.5t-83.5 27.5t-97.5 23.5t-83 47t-34.5 87.5q0 61 44.5 98t115.5 37h96q68 0 114 -43t46 -106v-9h-100v9q0 21 -17 35t-43 14h-96q-60 0 -60 -35
q0 -22 34.5 -35.5t83.5 -24t97.5 -26.5t83 -53.5t34.5 -94.5q0 -63 -47 -102t-123 -39h-101q-73 0 -121 42t-48 106v20z" />
    <glyph glyph-name="Scedilla" unicode="&#x15e;" 
d="M355 -24q52 0 89 -38t37 -91q0 -52 -37 -89.5t-89 -37.5h-114v100h114q10 0 18 8.5t8 18.5q0 12 -7.5 20.5t-18.5 8.5h-76l-43 81l14 43v1q-72 6 -121 59.5t-49 125.5v40h100v-40q0 -35 25.5 -60.5t60.5 -25.5h67q38 0 62.5 21.5t24.5 54.5q0 32 -24.5 61.5t-61 50.5
t-79.5 47.5t-79.5 52t-61 64t-24.5 82.5q0 73 52 119.5t134 46.5h47q77 0 132 -54.5t55 -131.5v-30h-100v30q0 36 -25.5 61t-61.5 25h-47q-40 0 -63 -17.5t-23 -48.5q0 -29 34 -57t82.5 -55t97 -58.5t82.5 -80t34 -107.5q0 -70 -48 -120t-122 -55v-1l-4 -24h9z" />
    <glyph glyph-name="scedilla" unicode="&#x15f;" 
d="M520 141q0 -63 -47 -102t-123 -39l-4 -24h9q52 0 89 -38t37 -91q0 -52 -37 -89.5t-89 -37.5h-114v100h114q10 0 18 8.5t8 18.5q0 12 -7.5 20.5t-18.5 8.5h-76l-43 81l14 43h-1q-73 0 -121 42t-48 106v20h100v-20q0 -21 18.5 -34.5t50.5 -13.5h101q70 0 70 41
q0 31 -34.5 48.5t-83.5 27.5t-97.5 23.5t-83 47t-34.5 87.5q0 61 44.5 98t115.5 37h96q68 0 114 -43t46 -106v-9h-100v9q0 21 -17 35t-43 14h-96q-60 0 -60 -35q0 -22 34.5 -35.5t83.5 -24t97.5 -26.5t83 -53.5t34.5 -94.5z" />
    <glyph glyph-name="Scaron" unicode="&#x160;" 
d="M353 790h-106l-130 152h116l67 -69l67 69h116zM190 534q0 -29 34 -57t82.5 -55t97 -58.5t82.5 -80t34 -107.5q0 -75 -53.5 -125.5t-133.5 -50.5h-67q-77 0 -131.5 54.5t-54.5 131.5v40h100v-40q0 -35 25.5 -60.5t60.5 -25.5h67q38 0 62.5 21.5t24.5 54.5q0 32 -24.5 61.5
t-61 50.5t-79.5 47.5t-79.5 52t-61 64t-24.5 82.5q0 73 52 119.5t134 46.5h47q77 0 132 -54.5t55 -131.5v-30h-100v30q0 36 -25.5 61t-61.5 25h-47q-40 0 -63 -17.5t-23 -48.5z" />
    <glyph glyph-name="scaron" unicode="&#x161;" 
d="M353 600h-106l-130 152h116l67 -69l67 69h116zM187 375q0 -22 34.5 -35.5t83.5 -24t97.5 -26.5t83 -53.5t34.5 -94.5q0 -63 -47 -102t-123 -39h-101q-73 0 -121 42t-48 106v20h100v-20q0 -21 18.5 -34.5t50.5 -13.5h101q70 0 70 41q0 31 -34.5 48.5t-83.5 27.5
t-97.5 23.5t-83 47t-34.5 87.5q0 61 44.5 98t115.5 37h96q68 0 114 -43t46 -106v-9h-100v9q0 21 -17 35t-43 14h-96q-60 0 -60 -35z" />
    <glyph glyph-name="uni0162" unicode="&#x162;" 
d="M350 0l-4 -24h9q52 0 89 -38t37 -91q0 -52 -37 -89.5t-89 -37.5h-114v100h114q10 0 18 8.5t8 18.5q0 12 -7.5 20.5t-18.5 8.5h-76l-43 81l14 43v600h-170v100h270h170v-100h-170v-600z" />
    <glyph glyph-name="uni0163" unicode="&#x163;" 
d="M433 -24q52 0 89 -38t37 -91q0 -52 -37 -89.5t-89 -37.5h-114v100h114q10 0 18 8.5t8 18.5q0 12 -7.5 20.5t-18.5 8.5h-76l-43 81l14 43v22q-43 24 -68 66t-25 92v230h-155v100h155v130h100v-130h185v-100h-185v-230q0 -34 23 -57t57 -23h105v-100h-92l-4 -24h9z" />
    <glyph glyph-name="Tcaron" unicode="&#x164;" 
d="M353 790h-106l-130 152h116l67 -69l67 69h116zM520 700v-100h-170v-600h-100v600h-170v100h270h170z" />
    <glyph glyph-name="tcaron" unicode="&#x165;" 
d="M492 580h-60l-20 109v101h100v-101zM520 410h-185v-230q0 -34 23 -57t57 -23h105v-100h-105q-75 0 -127.5 52.5t-52.5 127.5v230h-155v100h155v130h100v-130h185v-100z" />
    <glyph glyph-name="Tbar" unicode="&#x166;" 
d="M520 600h-170v-283h130v-100h-130v-217h-100v217h-130v100h130v283h-170v100h270h170v-100z" />
    <glyph glyph-name="tbar" unicode="&#x167;" 
d="M520 410h-185v-93h145v-100h-145v-37q0 -34 23 -57t57 -23h105v-100h-105q-75 0 -127.5 52.5t-52.5 127.5v37h-115v100h115v93h-155v100h155v130h100v-130h185v-100z" />
    <glyph glyph-name="Umacron" unicode="&#x16a;" 
d="M120 890h360v-100h-360v100zM520 700v-519q0 -74 -53 -127.5t-127 -53.5h-80q-75 0 -127.5 53t-52.5 128v519h100v-519q0 -33 23.5 -56.5t56.5 -23.5h80q33 0 56.5 23.5t23.5 56.5v519h100z" />
    <glyph glyph-name="umacron" unicode="&#x16b;" 
d="M480 700v-100h-360v100h360zM420 510h100v-510h-100v56l-83 -56h-77q-74 0 -127 52.5t-53 127.5v330h100v-330q0 -33 23.5 -56.5t56.5 -23.5h46l114 77v333z" />
    <glyph glyph-name="Uring" unicode="&#x16e;" 
d="M300 790q-53 0 -90 36.5t-37 89.5t37 89.5t90 36.5q52 0 89 -37t37 -89t-37 -89t-89 -37zM300 890q10 0 18 8t8 18q0 11 -7.5 18.5t-18.5 7.5q-12 0 -19.5 -7.5t-7.5 -18.5t7.5 -18.5t19.5 -7.5zM520 700v-519q0 -74 -53 -127.5t-127 -53.5h-80q-75 0 -127.5 53
t-52.5 128v519h100v-519q0 -33 23.5 -56.5t56.5 -23.5h80q33 0 56.5 23.5t23.5 56.5v519h100z" />
    <glyph glyph-name="uring" unicode="&#x16f;" 
d="M300 600q-53 0 -90 36.5t-37 89.5t37 89.5t90 36.5q52 0 89 -37t37 -89t-37 -89t-89 -37zM300 752q-12 0 -19.5 -7.5t-7.5 -18.5t7.5 -18.5t19.5 -7.5q10 0 18 8t8 18q0 11 -7.5 18.5t-18.5 7.5zM420 510h100v-510h-100v56l-83 -56h-77q-74 0 -127 52.5t-53 127.5v330
h100v-330q0 -33 23.5 -56.5t56.5 -23.5h46l114 77v333z" />
    <glyph glyph-name="Uhungarumlaut" unicode="&#x170;" 
d="M272 942h136l-160 -152h-116zM472 942h136l-160 -152h-116zM520 700v-519q0 -74 -53 -127.5t-127 -53.5h-80q-75 0 -127.5 53t-52.5 128v519h100v-519q0 -33 23.5 -56.5t56.5 -23.5h80q33 0 56.5 23.5t23.5 56.5v519h100z" />
    <glyph glyph-name="uhungarumlaut" unicode="&#x171;" 
d="M413 752l-160 -152h-116l140 152h136zM453 600h-116l140 152h136zM420 177v333h100v-510h-100v56l-83 -56h-77q-74 0 -127 52.5t-53 127.5v330h100v-330q0 -33 23.5 -56.5t56.5 -23.5h46z" />
    <glyph glyph-name="Uogonek" unicode="&#x172;" 
d="M420 700h100v-519q0 -63 -39 -112.5t-99 -63.5q-33 -36 -42 -60.5t3 -35.5t27.5 -15t35.5 -4v-100h-64q-57 0 -89 35.5t-27 85.5t46 89h-12q-75 0 -127.5 53t-52.5 128v519h100v-519q0 -33 23.5 -56.5t56.5 -23.5h80q33 0 56.5 23.5t23.5 56.5v519z" />
    <glyph glyph-name="uogonek" unicode="&#x173;" 
d="M520 0q-32 -32 -45.5 -56.5t-11.5 -37.5t14 -21t25.5 -10.5t29.5 -2.5v-100h-64q-62 0 -94 40.5t-19.5 95.5t65.5 92v56l-83 -56h-77q-74 0 -127 52.5t-53 127.5v330h100v-330q0 -33 23.5 -56.5t56.5 -23.5h46l114 77v333h100v-510z" />
    <glyph glyph-name="Wcircumflex" unicode="&#x174;" 
d="M300 859l-67 -69h-116l130 152h106l130 -152h-116zM420 700h100v-230l-60 -470h-80l-80 299l-80 -299h-80l-60 470v230h100v-200l24 -295l55 315h82l55 -315l24 295v200z" />
    <glyph glyph-name="wcircumflex" unicode="&#x175;" 
d="M300 669l-67 -69h-116l130 152h106l130 -152h-116zM420 510h100v-230l-60 -280h-80l-80 239l-80 -239h-80l-60 280v230h100v-200l18 -121l61 231h82l61 -231l18 121v200z" />
    <glyph glyph-name="Ycircumflex" unicode="&#x176;" 
d="M300 859l-67 -69h-116l130 152h106l130 -152h-116zM420 700h100v-228l-170 -223v-249h-100v249l-170 211v240h100v-204l118 -147h2l120 157v194z" />
    <glyph glyph-name="ycircumflex" unicode="&#x177;" 
d="M300 669l-67 -69h-116l130 152h106l130 -152h-116zM413 510h107l-264 -720h-107l92 250l-161 470h106l109 -321z" />
    <glyph glyph-name="Ydieresis" unicode="&#x178;" 
d="M265 890v-100h-110v100h110zM445 890v-100h-110v100h110zM420 700h100v-228l-170 -223v-249h-100v249l-170 211v240h100v-204l118 -147h2l120 157v194z" />
    <glyph glyph-name="Zacute" unicode="&#x179;" 
d="M528 942l-160 -152h-116l140 152h136zM80 600v100h440v-100l-321 -500h321v-100h-440v100l322 500h-322z" />
    <glyph glyph-name="zacute" unicode="&#x17a;" 
d="M528 752l-160 -152h-116l140 152h136zM80 410v100h440v-100l-301 -310h301v-100h-440v100l301 310h-301z" />
    <glyph glyph-name="Zdotaccent" unicode="&#x17b;" 
d="M355 890v-100h-110v100h110zM520 700v-100l-321 -500h321v-100h-440v100l322 500h-322v100h440z" />
    <glyph glyph-name="zdotaccent" unicode="&#x17c;" 
d="M355 700v-100h-110v100h110zM520 510v-100l-301 -310h301v-100h-440v100l301 310h-301v100h440z" />
    <glyph glyph-name="Zcaron" unicode="&#x17d;" 
d="M353 790h-106l-130 152h116l67 -69l67 69h116zM520 700v-100l-321 -500h321v-100h-440v100l322 500h-322v100h440z" />
    <glyph glyph-name="zcaron" unicode="&#x17e;" 
d="M353 600h-106l-130 152h116l67 -69l67 69h116zM520 510v-100l-301 -310h301v-100h-440v100l301 310h-301v100h440z" />
    <glyph glyph-name="Scommaaccent" unicode="&#x218;" 
d="M80 226h100v-40q0 -35 25.5 -60.5t60.5 -25.5h67q38 0 62.5 21.5t24.5 54.5q0 32 -24.5 61.5t-61 50.5t-79.5 47.5t-79.5 52t-61 64t-24.5 82.5q0 73 52 119.5t134 46.5h47q77 0 132 -54.5t55 -131.5v-30h-100v30q0 36 -25.5 61t-61.5 25h-47q-40 0 -63 -17.5t-23 -48.5
q0 -29 34 -57t82.5 -55t97 -58.5t82.5 -80t34 -107.5q0 -75 -53.5 -125.5t-133.5 -50.5h-67q-77 0 -131.5 54.5t-54.5 131.5v40zM231 -310h-44l72 210h100l-24 -73z" />
    <glyph glyph-name="scommaaccent" unicode="&#x219;" 
d="M80 168h100v-20q0 -21 18.5 -34.5t50.5 -13.5h101q70 0 70 41q0 31 -34.5 48.5t-83.5 27.5t-97.5 23.5t-83 47t-34.5 87.5q0 61 44.5 98t115.5 37h96q68 0 114 -43t46 -106v-9h-100v9q0 21 -17 35t-43 14h-96q-60 0 -60 -35q0 -22 34.5 -35.5t83.5 -24t97.5 -26.5
t83 -53.5t34.5 -94.5q0 -63 -47 -102t-123 -39h-101q-73 0 -121 42t-48 106v20zM231 -310h-44l72 210h100l-24 -73z" />
    <glyph glyph-name="uni021A" unicode="&#x21a;" 
d="M520 700v-100h-170v-600h-100v600h-170v100h440zM187 -310l72 210h100l-24 -73l-104 -137h-44z" />
    <glyph glyph-name="uni021B" unicode="&#x21b;" 
d="M520 410h-185v-230q0 -34 23 -57t57 -23h105v-100h-105q-75 0 -127.5 52.5t-52.5 127.5v230h-155v100h155v130h100v-130h185v-100zM265 -310l72 210h100l-24 -73l-104 -137h-44z" />
    <glyph glyph-name="circumflex" unicode="&#x2c6;" 
d="M483 600h-116l-67 69l-67 -69h-116l130 152h106z" />
    <glyph glyph-name="caron" unicode="&#x2c7;" 
d="M367 752h116l-130 -152h-106l-130 152h116l67 -69z" />
    <glyph glyph-name="breve" unicode="&#x2d8;" 
d="M353 754v1h100v-1q0 -64 -45 -109t-108 -45q-64 0 -109 45t-45 109v1h100v-1q0 -22 16 -38t38 -16t37.5 16t15.5 38z" />
    <glyph glyph-name="dotaccent" unicode="&#x2d9;" 
d="M245 700h110v-100h-110v100z" />
    <glyph glyph-name="ring" unicode="&#x2da;" 
d="M301 600q-53 0 -90 36.5t-37 89.5t37 89.5t90 36.5q52 0 89 -37t37 -89t-37 -89t-89 -37zM301 700q11 0 18.5 8t7.5 18q0 11 -7.5 18.5t-18.5 7.5q-12 0 -19.5 -7.5t-7.5 -18.5t7.5 -18.5t19.5 -7.5z" />
    <glyph glyph-name="ogonek" unicode="&#x2db;" 
d="M406 -110v-100h-64q-62 0 -94 40.5t-19.5 95.5t65.5 92h100q-32 -32 -45.5 -56.5t-11.5 -37.5t14 -21t25.5 -10.5t29.5 -2.5z" />
    <glyph glyph-name="tilde" unicode="&#x2dc;" 
d="M194 587l-94 32q19 54 57 78.5t99 22.5l109 -46q18 1 26 7.5t15 25.5l94 -32q-19 -54 -57 -78.5t-99 -22.5l-109 46q-18 -1 -26 -7.5t-15 -25.5z" />
    <glyph glyph-name="hungarumlaut" unicode="&#x2dd;" 
d="M277 752h136l-160 -152h-116zM477 752h136l-160 -152h-116z" />
    <glyph glyph-name="gravecomb" unicode="&#x300;" horiz-adv-x="0" 
d="M-367 752l140 -152h-116l-160 152h136z" />
    <glyph glyph-name="acutecomb" unicode="&#x301;" horiz-adv-x="0" 
d="M-223 752h136l-160 -152h-116z" />
    <glyph glyph-name="uni0302" unicode="&#x302;" horiz-adv-x="0" 
d="M-117 600h-116l-67 69l-67 -69h-116l130 152h106z" />
    <glyph glyph-name="tildecomb" unicode="&#x303;" horiz-adv-x="0" 
d="M-406 587l-94 32q19 54 57 78.5t99 22.5l109 -46q18 1 26 7.5t15 25.5l94 -32q-19 -54 -57 -78.5t-99 -22.5l-109 46q-18 -1 -26 -7.5t-15 -25.5z" />
    <glyph glyph-name="uni0304" unicode="&#x304;" horiz-adv-x="0" 
d="M-480 700h360v-100h-360v100z" />
    <glyph glyph-name="uni0306" unicode="&#x306;" horiz-adv-x="0" 
d="M-247 754v1h100v-1q0 -64 -45 -109t-108 -45q-64 0 -109 45t-45 109v1h100v-1q0 -22 16 -38t38 -16t37.5 16t15.5 38z" />
    <glyph glyph-name="uni0307" unicode="&#x307;" horiz-adv-x="0" 
d="M-355 700h110v-100h-110v100z" />
    <glyph glyph-name="uni0308" unicode="&#x308;" horiz-adv-x="0" 
d="M-445 700h110v-100h-110v100zM-265 700h110v-100h-110v100z" />
    <glyph glyph-name="uni030A" unicode="&#x30a;" horiz-adv-x="0" 
d="M-299 600q-53 0 -90 36.5t-37 89.5t37 89.5t90 36.5q52 0 89 -37t37 -89t-37 -89t-89 -37zM-299 700q11 0 18.5 8t7.5 18q0 11 -7.5 18.5t-18.5 7.5q-12 0 -19.5 -7.5t-7.5 -18.5t7.5 -18.5t19.5 -7.5z" />
    <glyph glyph-name="uni030B" unicode="&#x30b;" horiz-adv-x="0" 
d="M-353 752h136l-160 -152h-116zM-153 752h136l-160 -152h-116z" />
    <glyph glyph-name="uni030C" unicode="&#x30c;" horiz-adv-x="0" 
d="M-233 752h116l-130 -152h-106l-130 152h116l67 -69z" />
    <glyph glyph-name="uni0312" unicode="&#x312;" horiz-adv-x="0" 
d="M-242 810h44l-72 -210h-100l24 73z" />
    <glyph glyph-name="uni0326" unicode="&#x326;" horiz-adv-x="0" 
d="M-379 -310h-44l72 210h100l-24 -73z" />
    <glyph glyph-name="uni0327" unicode="&#x327;" horiz-adv-x="0" 
d="M-244 -24q52 0 89 -38t37 -91q0 -52 -37 -89.5t-89 -37.5h-114v100h114q10 0 18 8.5t8 18.5q0 12 -7.5 20.5t-18.5 8.5h-76l-43 81l14 43v33h100v-33l-4 -24h9z" />
    <glyph glyph-name="uni0328" unicode="&#x328;" horiz-adv-x="0" 
d="M-194 -110v-100h-64q-62 0 -94 40.5t-19.5 95.5t65.5 92h100q-32 -32 -45.5 -56.5t-11.5 -37.5t14 -21t25.5 -10.5t29.5 -2.5z" />
    <glyph glyph-name="uni0335" unicode="&#x335;" horiz-adv-x="0" 
d="M-480 317h360v-100h-360v100z" />
    <glyph glyph-name="uni0336" unicode="&#x336;" horiz-adv-x="0" 
d="M-590 317v-100h580v100h-580z" />
    <glyph glyph-name="uni0337" unicode="&#x337;" horiz-adv-x="0" 
d="M-222 605h107l-262 -700h-107z" />
    <glyph glyph-name="uni0338" unicode="&#x338;" horiz-adv-x="0" 
d="M-183 805h107l-341 -910h-107z" />
    <glyph glyph-name="Wgrave" unicode="&#x1e80;" 
d="M338 790h-116l-160 152h136zM420 700h100v-230l-60 -470h-80l-80 299l-80 -299h-80l-60 470v230h100v-200l24 -295l55 315h82l55 -315l24 295v200z" />
    <glyph glyph-name="wgrave" unicode="&#x1e81;" 
d="M373 600h-116l-160 152h136zM420 510h100v-230l-60 -280h-80l-80 239l-80 -239h-80l-60 280v230h100v-200l18 -121l61 231h82l61 -231l18 121v200z" />
    <glyph glyph-name="Wacute" unicode="&#x1e82;" 
d="M528 942l-160 -152h-116l140 152h136zM420 500v200h100v-230l-60 -470h-80l-80 299l-80 -299h-80l-60 470v230h100v-200l24 -295l55 315h82l55 -315z" />
    <glyph glyph-name="wacute" unicode="&#x1e83;" 
d="M513 752l-160 -152h-116l140 152h136zM420 510h100v-230l-60 -280h-80l-80 239l-80 -239h-80l-60 280v230h100v-200l18 -121l61 231h82l61 -231l18 121v200z" />
    <glyph glyph-name="Wdieresis" unicode="&#x1e84;" 
d="M265 890v-100h-110v100h110zM445 890v-100h-110v100h110zM420 700h100v-230l-60 -470h-80l-80 299l-80 -299h-80l-60 470v230h100v-200l24 -295l55 315h82l55 -315l24 295v200z" />
    <glyph glyph-name="wdieresis" unicode="&#x1e85;" 
d="M265 700v-100h-110v100h110zM445 700v-100h-110v100h110zM420 510h100v-230l-60 -280h-80l-80 239l-80 -239h-80l-60 280v230h100v-200l18 -121l61 231h82l61 -231l18 121v200z" />
    <glyph glyph-name="Ygrave" unicode="&#x1ef2;" 
d="M338 790h-116l-160 152h136zM420 700h100v-228l-170 -223v-249h-100v249l-170 211v240h100v-204l118 -147h2l120 157v194z" />
    <glyph glyph-name="ygrave" unicode="&#x1ef3;" 
d="M373 600h-116l-160 152h136zM413 510h107l-264 -720h-107l92 250l-161 470h106l109 -321z" />
    <glyph glyph-name="endash" unicode="&#x2013;" 
d="M60 317h480v-100h-480v100z" />
    <glyph glyph-name="emdash" unicode="&#x2014;" 
d="M10 317v-100h580v100h-580z" />
    <glyph glyph-name="quoteleft" unicode="&#x2018;" 
d="M352 711h44l-72 -210h-100l24 73z" />
    <glyph glyph-name="quoteright" unicode="&#x2019;" 
d="M248 500h-44l72 210h100l-24 -73z" />
    <glyph glyph-name="quotesinglbase" unicode="&#x201a;" 
d="M248 -110h-44l72 210h100l-24 -73z" />
    <glyph glyph-name="quotedblleft" unicode="&#x201c;" 
d="M272 711h44l-72 -210h-100l24 73zM441 711h44l-72 -210h-100l24 73z" />
    <glyph glyph-name="quotedblright" unicode="&#x201d;" 
d="M158 500h-44l72 210h100l-24 -73zM327 500h-44l72 210h100l-24 -73z" />
    <glyph glyph-name="quotedblbase" unicode="&#x201e;" 
d="M276 100h100l-24 -73l-104 -137h-44z" />
    <glyph glyph-name="dagger" unicode="&#x2020;" 
d="M500 580v-100h-150v-300h-100v300h-150v100h150v120h100v-120h150z" />
    <glyph glyph-name="daggerdbl" unicode="&#x2021;" 
d="M500 480h-150v-80h150v-100h-150v-120h-100v120h-150v100h150v80h-150v100h150v120h100v-120h150v-100z" />
    <glyph glyph-name="bullet" unicode="&#x2022;" 
d="M215 380h100l70 -30v-80l-70 -30h-100v140z" />
    <glyph glyph-name="ellipsis" unicode="&#x2026;" 
d="M80 100h110v-100h-110v100zM245 100h110v-100h-110v100zM410 100h110v-100h-110v100z" />
    <glyph glyph-name="perthousand" unicode="&#x2030;" horiz-adv-x="1200" 
d="M153 434q-55 0 -94 39t-39 94t39 94t94 39t93.5 -39t38.5 -94t-38.5 -94t-93.5 -39zM180 0h-100v160l340 416v124h100v-160l-340 -416v-124zM153 534q13 0 22.5 9.5t9.5 23.5t-9.5 23.5t-22.5 9.5t-23 -10t-10 -23t10 -23t23 -10zM448 0q-56 0 -94.5 39t-38.5 94t38.5 94
t94.5 39q55 0 93.5 -39t38.5 -94t-38.5 -94t-93.5 -39zM753 0q-55 0 -94 39t-39 94t39 94t94 39t93.5 -39t38.5 -94t-38.5 -94t-93.5 -39zM448 100q13 0 22.5 9.5t9.5 23.5t-9.5 23.5t-22.5 9.5q-14 0 -23.5 -10t-9.5 -23t9.5 -23t23.5 -10zM753 100q13 0 22.5 9.5t9.5 23.5
t-9.5 23.5t-22.5 9.5t-23 -10t-10 -23t10 -23t23 -10z" />
    <glyph glyph-name="guilsinglleft" unicode="&#x2039;" 
d="M445 135v-100h-90l-200 170v100l200 170h90v-100h-53l-140 -119v-2l140 -119h53z" />
    <glyph glyph-name="guilsinglright" unicode="&#x203a;" 
d="M155 135h53l140 119v2l-140 119h-53v100h90l200 -170v-100l-200 -170h-90v100z" />
    <glyph glyph-name="fraction" unicode="&#x2044;" 
d="M180 0h-100v160l340 416v124h100v-160l-340 -416v-124z" />
    <glyph glyph-name="Euro" unicode="&#x20ac;" 
d="M520 510h-100v10q0 34 -23 57t-57 23h-20q-34 0 -57 -23.5t-23 -56.5v-84h135v-100h-135v-40h135v-100h-135v-15q0 -33 23.5 -56.5t56.5 -23.5h20q33 0 56.5 23.5t23.5 56.5v10h100v-10q0 -75 -52.5 -128t-127.5 -53h-20q-74 0 -127 53.5t-53 127.5v15h-60v100h60v40h-60
v100h60v84q0 75 53 127.5t127 52.5h20q75 0 127.5 -52.5t52.5 -127.5v-10z" />
    <glyph glyph-name="trademark" unicode="&#x2122;" horiz-adv-x="1200" 
d="M370 700v-70h-110v-270h-70v270h-110v70h290zM680 700h80v-340h-70v217l-73 -147h-54l-73 147v-217h-70v340h80l90 -183z" />
    <glyph glyph-name="arrowleft" unicode="&#x2190;" 
d="M560 315v-100h-365l82 -70h53v-100h-90l-200 170v100l200 170h90v-100h-53l-82 -70h365z" />
    <glyph glyph-name="arrowup" unicode="&#x2191;" 
d="M350 520l170 -200v-90h-100v53l-70 82v-365h-100v365l-70 -82v-53h-100v90l170 200h100z" />
    <glyph glyph-name="arrowright" unicode="&#x2192;" 
d="M360 485l200 -170v-100l-200 -170h-90v100h53l82 70h-365v100h365l-82 70h-53v100h90z" />
    <glyph glyph-name="arrowdown" unicode="&#x2193;" 
d="M420 290h100v-90l-170 -200h-100l-170 200v90h100v-53l70 -82v365h100v-365l70 82v53z" />
    <glyph glyph-name="arrowboth" unicode="&#x2194;" 
d="M390 493l200 -170v-100l-200 -170l-37 100l82 70h-270l82 -70l-37 -100l-200 170v100l200 170l37 -100l-82 -70h270l-82 70z" />
    <glyph glyph-name="arrowupdn" unicode="&#x2195;" 
d="M349 155l70 82l100 -37l-170 -200h-100l-170 200l100 37l70 -82v270l-70 -82l-100 37l170 200h100l170 -200l-100 -37l-70 82v-270z" />
    <glyph glyph-name="uni2196" unicode="&#x2196;" 
d="M518 111l-70 -70l-259 258l9 -108l37 -37l-70 -71l-64 64l-21 261l71 71l261 -21l64 -64l-71 -71l-37 38l-108 9z" />
    <glyph glyph-name="uni2197" unicode="&#x2197;" 
d="M448 479l71 -71l-21 -261l-64 -64l-70 71l37 37l9 108l-259 -258l-70 70l258 259l-108 -9l-37 -38l-71 71l64 64z" />
    <glyph glyph-name="uni2198" unicode="&#x2198;" 
d="M498 375l21 -261l-71 -71l-261 21l-64 64l71 71l37 -38l108 -9l-258 259l70 70l259 -258l-9 108l-37 37l70 71z" />
    <glyph glyph-name="uni2199" unicode="&#x2199;" 
d="M368 161l37 38l71 -71l-64 -64l-261 -21l-71 71l21 261l64 64l70 -71l-37 -37l-9 -108l259 258l70 -70l-258 -259z" />
    <glyph glyph-name="partialdiff" unicode="&#x2202;" 
 />
    <glyph glyph-name="emptyset" unicode="&#x2205;" 
d="M420 433q44 -29 69.5 -76t25.5 -101q0 -89 -63 -152.5t-152 -63.5q-10 0 -26 2l-16 -42h-107l29 77q-44 30 -69.5 77.5t-25.5 101.5q0 88 63 151t152 63q10 0 26 -2l16 42h107zM185 256q0 -46 32 -80l72 194q-44 -5 -74 -38t-30 -76zM311 140q44 5 74 38t30 78
q0 46 -32 78z" />
    <glyph glyph-name="product" unicode="&#x220f;" 
 />
    <glyph glyph-name="summation" unicode="&#x2211;" 
 />
    <glyph glyph-name="minus" unicode="&#x2212;" 
d="M120 317h360v-100h-360v100z" />
    <glyph glyph-name="radical" unicode="&#x221a;" 
 />
    <glyph glyph-name="infinity" unicode="&#x221e;" 
d="M374 462q79 11 137.5 -40t58.5 -129t-58.5 -129t-137.5 -40l-74 90l-74 -90q-79 -11 -137.5 40t-58.5 129t58.5 129t137.5 40l74 -90zM180 225l55 68l-55 68q-22 -7 -36 -25.5t-14 -42.5t14 -42.5t36 -25.5zM420 225q22 7 36 25.5t14 42.5t-14 42.5t-36 25.5l-55 -68z
" />
    <glyph glyph-name="integral" unicode="&#x222b;" 
 />
    <glyph glyph-name="approxequal" unicode="&#x2248;" 
d="M172 317l-94 32q19 54 57 78.5t99 22.5l109 -46q18 1 26 7.5t15 25.5l94 -32q-19 -54 -57 -78.5t-99 -22.5l-109 46q-18 -1 -26 -7.5t-15 -25.5zM172 108l-94 32q19 54 57 78.5t99 22.5l109 -46q18 1 26 7.5t15 25.5l94 -32q-19 -54 -57 -78.5t-99 -22.5l-109 46
q-18 -1 -26 -7.5t-15 -25.5z" />
    <glyph glyph-name="notequal" unicode="&#x2260;" 
d="M480 323h-109l-34 -91h143v-100h-181l-34 -91h-107l34 91h-72v100h110l34 91h-144v100h181l33 87h107l-33 -87h72v-100z" />
    <glyph glyph-name="lessequal" unicode="&#x2264;" 
d="M480 310v-100h-90l-270 130v100l270 130h90v-100h-67l-166 -79v-2l166 -79h67zM480 160v-100h-360v100h360z" />
    <glyph glyph-name="greaterequal" unicode="&#x2265;" 
d="M120 310h67l166 79v2l-166 79h-67v100h90l270 -130v-100l-270 -130h-90v100zM120 160h360v-100h-360v100z" />
    <glyph glyph-name="lozenge" unicode="&#x25ca;" 
d="M350 545l170 -200v-180l-170 -200h-100l-170 200v180l170 200h100zM420 202v106l-119 140h-2l-119 -140v-106l119 -140h2z" />
    <glyph glyph-name="i.loclTRK" 
d="M355 700v-100h-110v100h110zM345 100h175v-100h-275h-165v100h165v310h-165v100h265v-410z" />
  </font>
</defs>
</svg>
