<?xml version="1.0" standalone="no"?>
<!DOCTYPE svg PUBLIC "-//W3C//DTD SVG 1.1//EN" "http://www.w3.org/Graphics/SVG/1.1/DTD/svg11.dtd" >
<svg xmlns="http://www.w3.org/2000/svg" xmlns:xlink="http://www.w3.org/1999/xlink" version="1.1">
<metadata>
Created by FontForge 20170731 at Mon Dec 12 02:00:36 2016
 By Aleksey,,,
Copyright (c) 2016 by Mathieu Desjardins. All rights reserved.
</metadata>
<defs>
<font id="Supply-UltraLight" horiz-adv-x="520" >
  <font-face 
    font-family="Supply UltraLight"
    font-weight="250"
    font-stretch="normal"
    units-per-em="1000"
    panose-1="0 0 3 0 0 0 0 0 0 0"
    ascent="800"
    descent="-200"
    x-height="510"
    cap-height="700"
    bbox="-590 -320 745 1002"
    underline-thickness="30"
    underline-position="-160"
    unicode-range="U+0020-25CA"
  />
<missing-glyph horiz-adv-x="460" 
d="M377 710v-920h-291v920h291zM306 648h-151v-30h59v-34h-60v-30h152v30h-60v34h60v30zM246 530h-92v-96h152v31h-60v65zM214 498v-33h-30v33h30zM306 409h-152v-30h60v-34h-60v-31h92v65h60v30zM306 354h-30v-61h-122v-31h152v92zM306 242h-92v-52h32v21h30v-43h-92v74
h-30v-104h152v104zM306 83h-152v-104h152v104zM276 52v-43h-92v43h92zM306 -43h-152v-30h64l-64 -43v-31h152v31h-93l64 43h29v30z" />
    <glyph glyph-name=".notdef" horiz-adv-x="460" 
d="M377 710v-920h-291v920h291zM306 648h-151v-30h59v-34h-60v-30h152v30h-60v34h60v30zM246 530h-92v-96h152v31h-60v65zM214 498v-33h-30v33h30zM306 409h-152v-30h60v-34h-60v-31h92v65h60v30zM306 354h-30v-61h-122v-31h152v92zM306 242h-92v-52h32v21h30v-43h-92v74
h-30v-104h152v104zM306 83h-152v-104h152v104zM276 52v-43h-92v43h92zM306 -43h-152v-30h64l-64 -43v-31h152v31h-93l64 43h29v30z" />
    <glyph glyph-name=".null" horiz-adv-x="0" 
 />
    <glyph glyph-name="nonmarkingreturn" horiz-adv-x="333" 
 />
    <glyph glyph-name="space" unicode=" " 
 />
    <glyph glyph-name="exclam" unicode="!" 
d="M250 700h20v-527h-20v527zM235 50h50v-50h-50v50z" />
    <glyph glyph-name="quotedbl" unicode="&#x22;" 
d="M210 710h20v-220h-20v220zM290 710h20v-220h-20v220z" />
    <glyph glyph-name="numbersign" unicode="#" 
d="M438 440h-73l-27 -190h82l-2 -20h-83l-33 -230h-19l32 230h-143l-33 -230h-19l32 230h-72l2 20h73l27 190h-82l2 20h82l34 240h21l-34 -240h142l34 240h21l-34 -240h72zM318 250l27 190h-143l-27 -190h143z" />
    <glyph glyph-name="dollar" unicode="$" 
d="M275 370q38 -31 62 -53t50.5 -52.5t39.5 -62.5t13 -66q0 -58 -42 -97t-105 -39h-18v-100h-20v100h-29q-60 0 -103 43t-43 103v50h20v-50q0 -52 37 -89t89 -37h29v340q-44 36 -62.5 52t-48.5 47t-42 58.5t-12 56.5q0 57 40.5 91.5t105.5 34.5h19v100h20v-100h8
q61 0 104 -42.5t43 -103.5v-30h-20v30q0 52 -37 89t-90 37h-8v-310zM110 574q0 -24 10.5 -47.5t35 -50t43.5 -43t56 -47.5v294h-19q-57 0 -91.5 -29t-34.5 -77zM293 20q55 0 91 33t36 83q0 55 -37.5 102.5t-107.5 105.5v-324h18z" />
    <glyph glyph-name="percent" unicode="%" 
d="M133 514q-39 0 -66 27t-27 66t27 66t66 27q38 0 65 -27t27 -66t-27 -66t-65 -27zM100 0h-20v146l340 416v138h20v-146l-340 -416v-138zM133 534q30 0 51 21.5t21 51.5t-21 51.5t-51 21.5t-51.5 -21.5t-21.5 -51.5t21.5 -51.5t51.5 -21.5zM388 0q-39 0 -66 27t-27 66
t27 66t66 27q38 0 65 -27t27 -66t-27 -66t-65 -27zM388 20q30 0 51 21.5t21 51.5t-21 51.5t-51 21.5t-51.5 -21.5t-21.5 -51.5t21.5 -51.5t51.5 -21.5z" />
    <glyph glyph-name="ampersand" unicode="&#x26;" 
d="M466 260v-40q0 -63 -36 -115q36 -64 36 -105h-20q0 35 -29 88q-33 -41 -83 -64.5t-104 -23.5q-77 0 -126.5 49t-49.5 132l158 189q-91 125 -91 180q0 66 37 108t95 42q59 0 96 -43.5t36 -111.5l-147 -175q16 -22 59 -76.5t72 -94.5t50 -75q27 44 27 96v40h20zM141 550
q0 -50 85 -164l140 168q-2 57 -33.5 91.5t-79.5 34.5q-50 0 -81 -36t-31 -94zM230 20q51 0 98.5 23.5t78.5 63.5q-20 34 -49.5 74t-72 94t-60.5 79l-152 -181q4 -70 46.5 -111.5t110.5 -41.5z" />
    <glyph glyph-name="quotesingle" unicode="'" 
d="M250 710h20v-220h-20v220z" />
    <glyph glyph-name="parenleft" unicode="(" 
d="M380 -101h-100q-58 0 -99 41.5t-41 99.5v620q0 58 41 99t99 41h100v-20h-100q-50 0 -85 -35t-35 -85v-620q0 -50 35 -85t85 -35h100v-21z" />
    <glyph glyph-name="parenright" unicode=")" 
d="M140 -101v21h100q50 0 85 35t35 85v620q0 50 -35 85t-85 35h-100v20h100q58 0 99 -41t41 -99v-620q0 -58 -41 -99.5t-99 -41.5h-100z" />
    <glyph glyph-name="asterisk" unicode="*" 
d="M281 570l71 -41l34 -20l-10 -18l-34 20l-72 41v-122h-20v122l-72 -41l-34 -20l-10 18l34 20l71 41l-71 41l-34 20l10 18l34 -20l72 -41v122h20v-122l72 41l34 20l10 -18l-34 -20z" />
    <glyph glyph-name="plus" unicode="+" 
d="M400 277v-20h-130v-130h-20v130h-130v20h130v130h20v-130h130z" />
    <glyph glyph-name="comma" unicode="," 
d="M231 -120h-20l57 170h20l-8 -50z" />
    <glyph glyph-name="hyphen" unicode="-" 
d="M120 277h280v-20h-280v20z" />
    <glyph glyph-name="period" unicode="." 
d="M235 50h50v-50h-50v50z" />
    <glyph glyph-name="slash" unicode="/" 
d="M100 0h-20v146l340 416v138h20v-146l-340 -416v-138z" />
    <glyph glyph-name="zero" unicode="0" 
d="M300 700q58 0 99 -41t41 -99v-419q0 -58 -41 -99.5t-99 -41.5h-80q-58 0 -99 41.5t-41 99.5v419q0 58 41 99t99 41h80zM220 680q-36 0 -65.5 -19t-43.5 -50l306 -497q3 14 3 27v419q0 50 -35 85t-85 35h-80zM300 21q35 0 64.5 19t43.5 49l-305 497q-3 -12 -3 -26v-419
q0 -49 35 -84.5t85 -35.5h80z" />
    <glyph glyph-name="one" unicode="1" 
d="M270 20h170v-20h-190h-170v20h170v660l-170 -85v22l166 83h24v-680z" />
    <glyph glyph-name="two" unicode="2" 
d="M440 406l-340 -191v-195h340v-20h-360v228l340 191v141q0 50 -35 85t-85 35h-80q-50 0 -85 -35t-35 -85v5h-20q2 56 43 95.5t97 39.5h80q58 0 99 -41t41 -99v-154zM80 560v5v-5z" />
    <glyph glyph-name="three" unicode="3" 
d="M440 480q0 -44 -24 -79t-63 -51q39 -16 63 -51t24 -79v-80q0 -58 -41 -99t-99 -41h-80q-58 0 -99 41t-41 99v25h20v-25q0 -50 35 -85t85 -35h80q50 0 85 35t35 85v80q0 50 -35 85t-85 35h-60v20h60q50 0 85 35t35 85v80q0 50 -35 85t-85 35h-80q-50 0 -85 -35t-35 -85
v-25h-20v25q0 58 41 99t99 41h80q58 0 99 -41t41 -99v-80z" />
    <glyph glyph-name="four" unicode="4" 
d="M440 350v-20h-110v-330h-20v330h-230v370h20v-350h210v290h20v-290h110z" />
    <glyph glyph-name="five" unicode="5" 
d="M300 454q58 0 99 -41t41 -99v-174q0 -58 -41 -99t-99 -41h-80q-58 0 -99 41t-41 99v20h20v-20q0 -50 35 -85t85 -35h80q50 0 85 35t35 85v174q0 50 -35 85t-85 35h-58l-142 -96h-20v362h20h290v-20h-290v-317l135 91h65z" />
    <glyph glyph-name="six" unicode="6" 
d="M440 530h-20v30q0 50 -35 85t-85 35h-80q-50 0 -85 -35t-35 -85v-229l135 93h65q58 0 99 -41t41 -99v-144q0 -58 -41 -99t-99 -41h-80q-58 0 -99 41t-41 99v420q0 58 41 99t99 41h80q58 0 99 -41t41 -99v-30zM242 404l-142 -98v-166q0 -50 35 -85t85 -35h80q50 0 85 35
t35 85v144q0 50 -35 85t-85 35h-58z" />
    <glyph glyph-name="seven" unicode="7" 
d="M140 0h-20v179l300 310v191h-320v-130h-20v150h360v-219l-300 -310v-171z" />
    <glyph glyph-name="eight" unicode="8" 
d="M347 372q41 -15 67 -50.5t26 -81.5v-99q0 -58 -41 -99.5t-99 -41.5h-80q-58 0 -99 41.5t-41 99.5v99q0 45 26 81.5t68 50.5q-37 17 -60.5 52t-23.5 77v59q0 58 41 99t99 41h60q58 0 99 -41t41 -99v-59q0 -43 -23 -77.5t-60 -51.5zM110 501q0 -50 34.5 -85t82.5 -36h63
q50 0 85 35.5t35 85.5v59q0 50 -35 85t-85 35h-60q-50 0 -85 -35t-35 -85v-59zM420 141v99q0 50 -35 85t-85 35h-70h-10q-50 0 -85 -35t-35 -85v-99q0 -51 35.5 -86.5t84.5 -34.5h80q50 0 85 35.5t35 85.5z" />
    <glyph glyph-name="nine" unicode="9" 
d="M300 700q58 0 99 -41t41 -99v-420q0 -58 -41 -99t-99 -41h-80q-58 0 -99 41t-41 99v30h20v-30q0 -50 35 -85t85 -35h80q50 0 85 35t35 85v229l-135 -93h-65q-58 0 -99 41t-41 99v144q0 58 41 99t99 41h80zM278 296l142 98v166q0 50 -35 85t-85 35h-80q-50 0 -85 -35
t-35 -85v-144q0 -50 35 -85t85 -35h58z" />
    <glyph glyph-name="colon" unicode=":" 
d="M235 330h50v-50h-50v50zM235 50h50v-50h-50v50z" />
    <glyph glyph-name="semicolon" unicode=";" 
d="M256 330h50v-50h-50v50zM219 -120h-20l57 170h20l-8 -50z" />
    <glyph glyph-name="less" unicode="&#x3c;" 
d="M385 95v-20h-75l-175 148v64l175 148h75v-20h-68l-162 -137v-46l162 -137h68z" />
    <glyph glyph-name="equal" unicode="=" 
d="M120 373h280v-20h-280v20zM120 202h280v-20h-280v20z" />
    <glyph glyph-name="greater" unicode="&#x3e;" 
d="M135 95h68l162 137v46l-162 137h-68v20h75l175 -148v-64l-175 -148h-75v20z" />
    <glyph glyph-name="question" unicode="?" 
d="M250 173v146l170 107v134q0 50 -35 85t-85 35h-80q-50 0 -85 -35t-35 -85v-55h-20v55q0 58 41 99t99 41h80q58 0 99 -41t41 -99v-145l-170 -107v-135h-20zM235 50h50v-50h-50v50z" />
    <glyph glyph-name="at" unicode="@" 
d="M320 660q58 0 99 -41t41 -99v-105v-336h-20v79l-115 -79h-19q-58 0 -99 41t-41 99v90q0 58 41 99t99 41h19l115 -78v54v95q0 50 -35 85t-85 35h-120q-50 0 -85 -35t-35 -85v-512q0 -50 35 -85t85 -35h169v-21h-169q-58 0 -99 41.5t-41 99.5v512q0 58 41 99t99 41h120z
M319 100l121 82v165l-121 81q-54 6 -93.5 -30t-39.5 -89v-90q0 -53 39.5 -89t93.5 -30z" />
    <glyph glyph-name="A" unicode="A" 
d="M282 700l158 -473v-227h-20v209h-320v-209h-20v227l158 473h44zM252 680l-150 -451h316l-150 451h-16z" />
    <glyph glyph-name="B" unicode="B" 
d="M341 374q44 -14 71.5 -50.5t27.5 -83.5v-100q0 -58 -41 -99t-99 -41h-204h-16v700h20h180q58 0 99 -41t41 -99v-60q0 -41 -21.5 -75t-57.5 -51zM280 680h-180v-300h180q50 0 85 35t35 85v60q0 50 -35 85t-85 35zM420 140v100q0 50 -35 85t-85 35h-200v-340h200
q50 0 85 35t35 85z" />
    <glyph glyph-name="C" unicode="C" 
d="M420 505v55q0 50 -35 85t-85 35h-80q-50 0 -85 -35t-35 -85v-419q0 -49 35 -84.5t85 -35.5h80q50 0 85 35.5t35 84.5v55h20v-55q0 -58 -41 -99.5t-99 -41.5h-80q-58 0 -99 41.5t-41 99.5v419q0 58 41 99t99 41h80q58 0 99 -41t41 -99v-55h-20z" />
    <glyph glyph-name="D" unicode="D" 
d="M300 700q58 0 99 -41t41 -99v-419q0 -58 -41 -99.5t-99 -41.5h-220v700h220zM420 141v419q0 50 -35 85t-85 35h-200v-659h200q50 0 85 35.5t35 84.5z" />
    <glyph glyph-name="E" unicode="E" 
d="M440 680h-340v-293h300v-20h-300v-347h340v-20h-360v367v313v20h360v-20z" />
    <glyph glyph-name="F" unicode="F" 
d="M440 680h-340v-313h300v-20h-300v-347h-20v367v333h360v-20z" />
    <glyph glyph-name="G" unicode="G" 
d="M440 505h-20v55q0 50 -35 85t-85 35h-80q-50 0 -85 -35t-35 -85v-419q0 -49 35 -84.5t85 -35.5h80q50 0 85 35.5t35 84.5v185h-150v20h170v-150v-55q0 -58 -41 -99.5t-99 -41.5h-80q-58 0 -99 41.5t-41 99.5v419q0 58 41 99t99 41h80q58 0 99 -41t41 -99v-55z" />
    <glyph glyph-name="H" unicode="H" 
d="M420 700h20v-350v-350h-20v350h-320v-350h-20v370v330h20v-330h320v330z" />
    <glyph glyph-name="I" unicode="I" 
d="M440 680h-170v-660h170v-20h-190h-170v20h170v660h-170v20h190h170v-20z" />
    <glyph glyph-name="J" unicode="J" 
d="M160 700h280v-20v-539q0 -58 -41 -99.5t-99 -41.5h-80q-58 0 -99 41.5t-41 99.5v45h20v-45q0 -49 35 -84.5t85 -35.5h80q50 0 85 35.5t35 84.5v539h-260v20z" />
    <glyph glyph-name="K" unicode="K" 
d="M440 700l-215 -350l215 -350h-24l-209 340h-107v-340h-20v700h20v-340h107l209 340h24z" />
    <glyph glyph-name="L" unicode="L" 
d="M100 20h340v-20h-360v700h20v-680z" />
    <glyph glyph-name="M" unicode="M" 
d="M251 329l-134 351h-17v-680h-20v700h51l129 -339l129 339h51v-700h-20v680h-17l-134 -351h-18z" />
    <glyph glyph-name="N" unicode="N" 
d="M420 700h20v-700h-77l-220 680h-43v-680h-20v700h77l220 -680h43v680z" />
    <glyph glyph-name="O" unicode="O" 
d="M300 0h-80q-58 0 -99 41.5t-41 99.5v419q0 58 41 99t99 41h80q58 0 99 -41t41 -99v-419q0 -58 -41 -99.5t-99 -41.5zM300 21q50 0 85 35.5t35 84.5v419q0 50 -35 85t-85 35h-80q-50 0 -85 -35t-35 -85v-419q0 -49 35 -84.5t85 -35.5h80z" />
    <glyph glyph-name="P" unicode="P" 
d="M300 700q58 0 99 -41t41 -99v-60q0 -58 -41 -99t-99 -41h-200v-360h-20v700h220zM420 500v60q0 50 -35 85t-85 35h-200v-300h200q50 0 85 35t35 85z" />
    <glyph glyph-name="Q" unicode="Q" 
d="M440 141q0 -39 -19 -71.5t-51 -50.5l70 -114l-18 -10l-71 115q-23 -10 -51 -10h-80q-58 0 -99 41.5t-41 99.5v419q0 58 41 99t99 41h80q58 0 99 -41t41 -99v-419zM300 21q50 0 85 35.5t35 84.5v419q0 50 -35 85t-85 35h-80q-50 0 -85 -35t-35 -85v-419q0 -49 35 -84.5
t85 -35.5h80z" />
    <glyph glyph-name="R" unicode="R" 
d="M440 500q0 -58 -41 -99t-99 -41h-24l164 -360h-22l-164 360h-154v-360h-20v700h220q58 0 99 -41t41 -99v-60zM100 680v-300h200q50 0 85 35t35 85v60q0 50 -35 85t-85 35h-200z" />
    <glyph glyph-name="S" unicode="S" 
d="M80 196h20v-50q0 -52 37 -89t89 -37h67q55 0 91 33t36 83q0 41 -24.5 82.5t-61 73.5t-79.5 68t-79.5 67t-61 70t-24.5 77q0 57 40.5 91.5t105.5 34.5h47q61 0 104 -42.5t43 -103.5v-30h-20v30q0 52 -37 89t-90 37h-47q-57 0 -91.5 -29t-34.5 -77q0 -41 34 -83.5
t82.5 -81.5t97 -79.5t82.5 -91t34 -102.5q0 -58 -42 -97t-105 -39h-67q-60 0 -103 43t-43 103v50z" />
    <glyph glyph-name="T" unicode="T" 
d="M440 700v-20h-170v-680h-20v680h-170v20h190h170z" />
    <glyph glyph-name="U" unicode="U" 
d="M440 700v-559q0 -58 -41 -99.5t-99 -41.5h-80q-58 0 -99 41.5t-41 99.5v559h20v-559q0 -49 35 -84.5t85 -35.5h80q50 0 85 35.5t35 84.5v559h20z" />
    <glyph glyph-name="V" unicode="V" 
d="M420 700h20v-227l-158 -473h-44l-158 473v227h20v-223l152 -457h16l152 457v223z" />
    <glyph glyph-name="W" unicode="W" 
d="M274 470l83 -450h10l53 456v224h20v-227l-55 -473h-44l-81 436l-81 -436h-44l-55 473v227h20v-224l53 -456h10l83 450h28z" />
    <glyph glyph-name="X" unicode="X" 
d="M440 700l-169 -350l169 -350h-22l-158 327l-158 -327h-22l169 350l-169 350h22l158 -327l158 327h22z" />
    <glyph glyph-name="Y" unicode="Y" 
d="M420 700h20v-215l-170 -223v-262h-20v262l-170 211v227h20v-219l159 -199h1l160 209v209z" />
    <glyph glyph-name="Z" unicode="Z" 
d="M440 700v-20l-336 -660h336v-20h-360v20l338 660h-338v20h360z" />
    <glyph glyph-name="bracketleft" unicode="[" 
d="M380 780h-220v-860h220v-20h-240v880v20h240v-20z" />
    <glyph glyph-name="backslash" unicode="\" 
d="M420 0v138l-340 416v146h20v-138l340 -416v-146h-20z" />
    <glyph glyph-name="bracketright" unicode="]" 
d="M380 800v-880v-20h-240v20h220v860h-220v20h240z" />
    <glyph glyph-name="asciicircum" unicode="^" 
d="M380 390v104l-105 196h-30l-105 -196v-104h-20v109l113 211h54l113 -211v-109h-20z" />
    <glyph glyph-name="underscore" unicode="_" 
d="M10 -73v-20h500v20h-500z" />
    <glyph glyph-name="grave" unicode="`" 
d="M167 752l132 -152h-20l-142 152h30z" />
    <glyph glyph-name="a" unicode="a" 
d="M420 510h20v-510h-20v78l-115 -78h-85q-58 0 -99 41t-41 99v230q0 58 41 99t99 41h85l115 -78v78zM298 20l122 83v304l-122 83h-78q-50 0 -85 -35t-35 -85v-230q0 -50 35 -85t85 -35h78z" />
    <glyph glyph-name="b" unicode="b" 
d="M300 510q58 0 99 -41t41 -99v-230q0 -58 -41 -99t-99 -41h-85l-115 78v-78h-20v710h20v-278l115 78h85zM420 140v230q0 50 -35 85t-85 35h-78l-122 -83v-304l122 -83h78q50 0 85 35t35 85z" />
    <glyph glyph-name="c" unicode="c" 
d="M420 370q0 50 -35 85t-85 35h-80q-50 0 -85 -35t-35 -85v-229q0 -49 35 -84.5t85 -35.5h80q50 0 85 35.5t35 84.5v20h20v-20q0 -58 -41 -99.5t-99 -41.5h-80q-58 0 -99 41.5t-41 99.5v229q0 58 41 99t99 41h80q58 0 99 -41t41 -99v-20h-20v20z" />
    <glyph glyph-name="d" unicode="d" 
d="M420 710h20v-710h-20v78l-115 -78h-85q-58 0 -99 41t-41 99v230q0 58 41 99t99 41h85l115 -78v278zM298 20l122 83v304l-122 83h-78q-50 0 -85 -35t-35 -85v-230q0 -50 35 -85t85 -35h78z" />
    <glyph glyph-name="e" unicode="e" 
d="M300 510q58 0 99 -41t41 -99v-20v-77h-10v-1h-330v-131q0 -49 35 -84.5t85 -35.5h80q50 0 85 35.5t35 84.5v20h20v-20q0 -58 -41 -99.5t-99 -41.5h-80q-58 0 -99 41.5t-41 99.5v229q0 58 41 99t99 41h80zM420 370q0 50 -35 85t-85 35h-80q-50 0 -85 -35t-35 -85v-78h320
v78z" />
    <glyph glyph-name="f" unicode="f" 
d="M385 690q-50 0 -85 -35t-35 -85v-110h175v-20h-175v-440h-20v440h-165v20h165v110q0 58 40.5 99t99.5 41h55v-20h-55z" />
    <glyph glyph-name="g" unicode="g" 
d="M420 510h20v-579q0 -58 -41 -99.5t-99 -41.5h-80q-58 0 -99 41.5t-41 99.5h20q0 -49 35 -84.5t85 -35.5h80q50 0 85 35.5t35 84.5v147l-115 -78h-85q-58 0 -99 41t-41 99v230q0 58 41 99t99 41h85l115 -78v78zM298 20l122 83v304l-122 83h-78q-50 0 -85 -35t-35 -85v-230
q0 -50 35 -85t85 -35h78z" />
    <glyph glyph-name="h" unicode="h" 
d="M300 510q58 0 99 -41t41 -99v-370h-20v370q0 50 -35 85t-85 35h-78l-122 -84v-406h-20v710h20v-279l115 79h85z" />
    <glyph glyph-name="i" unicode="i" 
d="M265 680v-50h-50v50h50zM265 20h175v-20h-195h-165v20h165v470h-165v20h185v-490z" />
    <glyph glyph-name="j" unicode="j" 
d="M390 680h50v-50h-50v50zM185 510h255v-579q0 -58 -41 -99.5t-99 -41.5h-80q-58 0 -99 41.5t-41 99.5v69h20v-69q0 -49 35 -84.5t85 -35.5h80q50 0 85 35.5t35 84.5v559h-235v20z" />
    <glyph glyph-name="k" unicode="k" 
d="M440 510l-169 -255l169 -255h-24l-162 245h-154v-245h-20v710h20v-445h154l162 245h24z" />
    <glyph glyph-name="l" unicode="l" 
d="M265 20h175v-20h-195h-165v20h165v670h-165v20h185v-690z" />
    <glyph glyph-name="m" unicode="m" 
d="M342 510q55 0 86.5 -40t31.5 -100v-370h-20v370q0 52 -26 86t-72 34h-8l-69 -77q5 -23 5 -43v-370h-20v370q0 52 -26 86t-72 34h-8l-64 -72v-418h-20v510h20v-62l55 62h17q77 0 106 -75l67 75h17z" />
    <glyph glyph-name="n" unicode="n" 
d="M300 510q58 0 99 -41t41 -99v-370h-20v370q0 50 -35 85t-85 35h-78l-122 -84v-406h-20v510h20v-79l115 79h85z" />
    <glyph glyph-name="o" unicode="o" 
d="M300 0h-80q-58 0 -99 41.5t-41 99.5v229q0 58 41 99t99 41h80q58 0 99 -41t41 -99v-229q0 -58 -41 -99.5t-99 -41.5zM300 21q50 0 85 35.5t35 84.5v229q0 50 -35 85t-85 35h-80q-50 0 -85 -35t-35 -85v-229q0 -49 35 -84.5t85 -35.5h80z" />
    <glyph glyph-name="p" unicode="p" 
d="M300 510q58 0 99 -41t41 -99v-230q0 -58 -41 -99t-99 -41h-85l-115 78v-288h-20v720h20v-78l115 78h85zM420 140v230q0 50 -35 85t-85 35h-78l-122 -83v-304l122 -83h78q50 0 85 35t35 85z" />
    <glyph glyph-name="q" unicode="q" 
d="M420 510h20v-720h-20v288l-115 -78h-85q-58 0 -99 41t-41 99v230q0 58 41 99t99 41h85l115 -78v78zM298 20l122 83v304l-122 83h-78q-50 0 -85 -35t-35 -85v-230q0 -50 35 -85t85 -35h78z" />
    <glyph glyph-name="r" unicode="r" 
d="M300 510q58 0 99 -41t41 -99v-30h-20v30q0 50 -35 85t-85 35h-22l-178 -118v-372h-20v510h20v-115l171 115h29z" />
    <glyph glyph-name="s" unicode="s" 
d="M80 158h20v-50q0 -34 36 -61t83 -27h81q57 0 88.5 26.5t31.5 74.5q0 53 -34 85t-82.5 46t-97 26.5t-82.5 40.5t-34 76q0 52 37.5 83.5t99.5 31.5h63q53 0 91.5 -32.5t38.5 -76.5v-29h-20v29q0 36 -32.5 62.5t-77.5 26.5h-63q-53 0 -85 -26t-32 -69q0 -41 34 -65.5
t82.5 -36.5t97 -26.5t82.5 -50.5t34 -95q0 -56 -37.5 -88.5t-102.5 -32.5h-81q-55 0 -97 32.5t-42 75.5v50z" />
    <glyph glyph-name="t" unicode="t" 
d="M440 490h-185v-350q0 -50 35 -85t85 -35h65v-20h-65q-59 0 -99.5 41t-40.5 99v350h-155v20h155v110h20v-110h185v-20z" />
    <glyph glyph-name="u" unicode="u" 
d="M420 510h20v-510h-20v79l-115 -79h-85q-58 0 -99 41t-41 99v370h20v-370q0 -50 35 -85t85 -35h78l122 84v406z" />
    <glyph glyph-name="v" unicode="v" 
d="M420 510h20v-219l-153 -291h-54l-153 291v219h20v-214l145 -276h30l145 276v214z" />
    <glyph glyph-name="w" unicode="w" 
d="M272 407l91 -387h8l49 273v217h20v-219l-52 -291h-41l-87 371l-87 -371h-41l-52 291v219h20v-217l49 -273h8l91 387h24z" />
    <glyph glyph-name="x" unicode="x" 
d="M440 510l-168 -255l168 -255h-24l-156 237l-156 -237h-24l168 255l-168 255h24l156 -237l156 237h24z" />
    <glyph glyph-name="y" unicode="y" 
d="M418 510h22l-264 -720h-22l89 243l-163 477h21l152 -449z" />
    <glyph glyph-name="z" unicode="z" 
d="M440 510v-20l-334 -470h334v-20h-360v20h1l335 470h-336v20h360z" />
    <glyph glyph-name="braceleft" unicode="{" 
d="M230 474q0 -40 -20 -72.5t-54 -50.5q34 -18 54 -51t20 -73v-174q0 -50 35 -85t85 -35h40v-20h-40q-58 0 -99 40.5t-41 99.5v174q0 39 -22 70t-58 43v21q36 12 58 43t22 70v186q0 58 41 99t99 41h40v-20h-40q-50 0 -85 -35t-35 -85v-186z" />
    <glyph glyph-name="bar" unicode="|" 
d="M270 800v-900h-20v900h20z" />
    <glyph glyph-name="braceright" unicode="}" 
d="M310 474q0 -39 22 -70t58 -43v-21q-36 -12 -58 -43t-22 -70v-174q0 -59 -41 -99.5t-99 -40.5h-40v20h40q50 0 85 35t35 85v174q0 40 20 73t54 51q-34 18 -54 50.5t-20 72.5v186q0 50 -35 85t-85 35h-40v20h40q58 0 99 -41t41 -99v-186z" />
    <glyph glyph-name="asciitilde" unicode="~" 
d="M136 266l-20 6q25 50 91 48l110 -46q47 -2 67 34l20 -6q-25 -50 -91 -48l-110 46q-47 2 -67 -34z" />
    <glyph glyph-name="exclamdown" unicode="&#xa1;" 
d="M235 460v50h50v-50h-50zM250 -190v527h20v-527h-20z" />
    <glyph glyph-name="cent" unicode="&#xa2;" 
d="M440 350h-20v20q0 50 -35 85t-85 35h-30v-469h30q50 0 85 35.5t35 84.5v20h20v-20q0 -58 -41 -99.5t-99 -41.5h-30v-100h-20v100h-30q-58 0 -99 41.5t-41 99.5v229q0 58 41 99t99 41h30v100h20v-100h30q58 0 99 -41t41 -99v-20zM250 21v469h-30q-50 0 -85 -35t-35 -85
v-229q0 -49 35 -84.5t85 -35.5h30z" />
    <glyph glyph-name="sterling" unicode="&#xa3;" 
d="M360 680q-50 0 -85 -35t-35 -85v-269h145v-20h-145v-131q0 -38 -18 -70t-49 -50h267v-20h-360v20h20q50 0 85 35t35 85v131h-110v20h110v269q0 58 41 99t99 41h80v-20h-80z" />
    <glyph glyph-name="currency" unicode="&#xa4;" 
d="M351 373q28 -33 28 -76t-28 -76l50 -51l-14 -14l-50 51q-32 -29 -75.5 -29t-77.5 28l-51 -50l-14 14l51 51q-29 33 -29 76t29 76l-51 51l14 14l51 -51q34 29 77.5 29t75.5 -29l50 51l14 -14zM330 227q29 29 29 70t-29 70q-28 29 -70 29t-70 -29q-29 -29 -29 -70t29 -70
q28 -29 70 -29t70 29z" />
    <glyph glyph-name="yen" unicode="&#xa5;" 
d="M440 700v-215l-167 -219h145v-20h-148v-100h148v-20h-148v-126h-20v126h-147v20h147v100h-147v20h144l-167 207v227h20v-219l159 -199h1l160 209v209h20z" />
    <glyph glyph-name="brokenbar" unicode="&#xa6;" 
d="M270 800v-307h-20v307h20zM270 207v-307h-20v307h20z" />
    <glyph glyph-name="section" unicode="&#xa7;" horiz-adv-x="600" 
 />
    <glyph glyph-name="dieresis" unicode="&#xa8;" 
d="M155 680h50v-50h-50v50zM315 680h50v-50h-50v50z" />
    <glyph glyph-name="copyright" unicode="&#xa9;" 
d="M55 390q0 86 58 142t147 56t146.5 -56t57.5 -142v-167q0 -86 -57.5 -142t-146.5 -56q-90 0 -147.5 56t-57.5 142v167zM75 390v-167q0 -78 52 -128t133 -50q80 0 132 50t52 128v167q0 78 -52 128t-132 50q-81 0 -133 -50t-52 -128zM330 261v6h20v-6q0 -41 -26 -69t-64 -28
t-64 27.5t-26 69.5v92q0 42 26 69.5t64 27.5t64 -28t26 -69v-6h-20v6q0 33 -20 55t-50 22t-50 -22t-20 -55v-92q0 -33 20 -55t50 -22t50 22t20 55z" />
    <glyph glyph-name="guillemotleft" unicode="&#xab;" 
d="M310 95v-20h-75l-175 148v64l175 148h75v-20h-68l-162 -137v-46l162 -137h68zM460 114h-32l-129 109v64l129 109h32v-20h-25l-116 -98v-46l116 -98h25v-20z" />
    <glyph glyph-name="logicalnot" unicode="&#xac;" 
d="M120 277h280v-20v-113h-20v113h-260v20z" />
    <glyph glyph-name="registered" unicode="&#xae;" 
d="M260 665q91 0 154 -63.5t63 -153.5q0 -91 -63.5 -154t-153.5 -63q-91 0 -154 63.5t-63 153.5q0 91 63.5 154t153.5 63zM260 251q82 0 139.5 57.5t57.5 139.5t-57.5 139.5t-139.5 57.5t-139.5 -57.5t-57.5 -139.5t57.5 -139.5t139.5 -57.5zM343 487q0 -23 -13.5 -41.5
t-35.5 -25.5l45 -74h-23l-42 70h-3h-55v-70h-20v212h20h55q30 0 51 -20.5t21 -50.5zM271 436q22 0 37 15t15 36q0 22 -15 36.5t-37 14.5h-55v-102h55z" />
    <glyph glyph-name="macron" unicode="&#xaf;" 
d="M120 660h280v-20h-280v20z" />
    <glyph glyph-name="degree" unicode="&#xb0;" 
d="M260 524q-39 0 -66 27t-27 66t27 66t66 27q38 0 65 -27t27 -66t-27 -66t-65 -27zM260 544q30 0 51 21.5t21 51.5t-21 51.5t-51 21.5t-51.5 -21.5t-21.5 -51.5t21.5 -51.5t51.5 -21.5z" />
    <glyph glyph-name="plusminus" unicode="&#xb1;" 
d="M270 420h130v-20h-130v-130h-20v130h-130v20h130v130h20v-130zM120 120v20h280v-20h-280z" />
    <glyph glyph-name="acute" unicode="&#xb4;" 
d="M403 752h30l-142 -152h-20z" />
    <glyph glyph-name="paragraph" unicode="&#xb6;" 
d="M350 700v-700h-20v330h-70q-75 0 -127.5 52.5t-52.5 127.5v10q0 75 52.5 127.5t127.5 52.5h90zM420 700h20v-700h-20v700z" />
    <glyph glyph-name="periodcentered" unicode="&#xb7;" 
d="M235 330h50v-50h-50v50z" />
    <glyph glyph-name="cedilla" unicode="&#xb8;" 
d="M279 0v19h20v-24l-19 -34l14 -25h20q35 0 60.5 -26t25.5 -63q0 -35 -25.5 -61t-60.5 -26h-74v20h74q27 0 46.5 20t19.5 47q0 29 -19 49t-47 20h-32l-25 45z" />
    <glyph glyph-name="guillemotright" unicode="&#xbb;" horiz-adv-x="600" 
d="M290 95h68l162 137v46l-162 137h-68v20h75l175 -148v-64l-175 -148h-75v20zM140 114v20h25l116 98v46l-116 98h-25v20h32l129 -109v-64l-129 -109h-32z" />
    <glyph glyph-name="questiondown" unicode="&#xbf;" horiz-adv-x="600" 
d="M365 460h-50v50h50v-50zM350 337v-146l-170 -107v-134q0 -50 35 -85t85 -35h80q50 0 85 35t35 85v55h20v-55q0 -58 -41 -99t-99 -41h-80q-58 0 -99 41t-41 99v145l170 107v135h20z" />
    <glyph glyph-name="Agrave" unicode="&#xc0;" 
d="M264 790h-20l-142 152h30zM282 700l158 -473v-227h-20v209h-320v-209h-20v227l158 473h44zM252 680l-150 -451h316l-150 451h-16z" />
    <glyph glyph-name="Aacute" unicode="&#xc1;" 
d="M408 942l-142 -152h-20l132 152h30zM282 700l158 -473v-227h-20v209h-320v-209h-20v227l158 473h44zM252 680l-150 -451h316l-150 451h-16z" />
    <glyph glyph-name="Acircumflex" unicode="&#xc2;" 
d="M260 925l-100 -135h-25l112 152h26l112 -152h-25zM282 700l158 -473v-227h-20v209h-320v-209h-20v227l158 473h44zM252 680l-150 -451h316l-150 451h-16z" />
    <glyph glyph-name="Atilde" unicode="&#xc3;" 
d="M205 850q-47 2 -67 -34l-20 6q25 50 91 48l110 -46q47 -2 67 34l20 -6q-25 -50 -91 -48zM282 700l158 -473v-227h-20v209h-320v-209h-20v227l158 473h44zM252 680l-150 -451h316l-150 451h-16z" />
    <glyph glyph-name="Adieresis" unicode="&#xc4;" 
d="M205 870v-50h-50v50h50zM365 870v-50h-50v50h50zM282 700l158 -473v-227h-20v209h-320v-209h-20v227l158 473h44zM252 680l-150 -451h316l-150 451h-16z" />
    <glyph glyph-name="Aring" unicode="&#xc5;" 
d="M260 790q-45 0 -76 31t-31 75t31 75t76 31q44 0 75 -31t31 -75t-31 -75t-75 -31zM260 982q-37 0 -62 -24.5t-25 -61.5q0 -36 25 -61t62 -25q35 0 60.5 25.5t25.5 60.5q0 36 -25 61t-61 25zM282 700l158 -473v-227h-20v209h-320v-209h-20v227l158 473h44zM252 680
l-150 -451h316l-150 451h-16z" />
    <glyph glyph-name="AE" unicode="&#xc6;" 
d="M309 680v-303h161v-20h-161v-337h181v-20h-201v202h-239v-202h-20v227l158 473h121h181v-20h-181zM289 680h-87l-152 -457v-1h239v458z" />
    <glyph glyph-name="Ccedilla" unicode="&#xc7;" 
d="M440 505h-20v55q0 50 -35 85t-85 35h-80q-50 0 -85 -35t-35 -85v-419q0 -49 35 -84.5t85 -35.5h80q50 0 85 35.5t35 84.5v55h20v-55q0 -58 -41 -99.5t-99 -41.5h-1v-5l-19 -34l14 -25h20q35 0 60.5 -26t25.5 -63q0 -35 -25.5 -61t-60.5 -26h-74v20h74q27 0 46.5 20
t19.5 47q0 29 -19 49t-47 20h-32l-25 45l22 39h-59q-58 0 -99 41.5t-41 99.5v419q0 58 41 99t99 41h80q58 0 99 -41t41 -99v-55z" />
    <glyph glyph-name="Egrave" unicode="&#xc8;" 
d="M264 790h-20l-142 152h30zM440 680h-340v-293h300v-20h-300v-347h340v-20h-360v367v313v20h360v-20z" />
    <glyph glyph-name="Eacute" unicode="&#xc9;" 
d="M408 942l-142 -152h-20l132 152h30zM440 680h-340v-293h300v-20h-300v-347h340v-20h-360v367v313v20h360v-20z" />
    <glyph glyph-name="Ecircumflex" unicode="&#xca;" 
d="M260 925l-100 -135h-25l112 152h26l112 -152h-25zM440 680h-340v-293h300v-20h-300v-347h340v-20h-360v367v313v20h360v-20z" />
    <glyph glyph-name="Edieresis" unicode="&#xcb;" 
d="M205 870v-50h-50v50h50zM365 870v-50h-50v50h50zM440 680h-340v-293h300v-20h-300v-347h340v-20h-360v367v313v20h360v-20z" />
    <glyph glyph-name="Igrave" unicode="&#xcc;" 
d="M264 790h-20l-142 152h30zM440 680h-170v-660h170v-20h-190h-170v20h170v660h-170v20h190h170v-20z" />
    <glyph glyph-name="Iacute" unicode="&#xcd;" 
d="M408 942l-142 -152h-20l132 152h30zM440 680h-170v-660h170v-20h-190h-170v20h170v660h-170v20h190h170v-20z" />
    <glyph glyph-name="Icircumflex" unicode="&#xce;" 
d="M260 925l-100 -135h-25l112 152h26l112 -152h-25zM440 680h-170v-660h170v-20h-190h-170v20h170v660h-170v20h190h170v-20z" />
    <glyph glyph-name="Idieresis" unicode="&#xcf;" 
d="M205 870v-50h-50v50h50zM365 870v-50h-50v50h50zM440 680h-170v-660h170v-20h-190h-170v20h170v660h-170v20h190h170v-20z" />
    <glyph glyph-name="Eth" unicode="&#xd0;" 
d="M300 700q58 0 99 -41t41 -99v-419q0 -58 -41 -99.5t-99 -41.5h-220v382h-60v20h60v298h220zM420 141v419q0 50 -35 85t-85 35h-200v-278h180v-20h-180v-361h200q50 0 85 35.5t35 84.5z" />
    <glyph glyph-name="Ntilde" unicode="&#xd1;" 
d="M138 816l-20 6q25 50 91 48l110 -46q47 -2 67 34l20 -6q-25 -50 -91 -48l-110 46q-47 2 -67 -34zM420 700h20v-700h-77l-220 680h-43v-680h-20v700h77l220 -680h43v680z" />
    <glyph glyph-name="Ograve" unicode="&#xd2;" 
d="M132 942l132 -152h-20l-142 152h30zM300 0h-80q-58 0 -99 41.5t-41 99.5v419q0 58 41 99t99 41h80q58 0 99 -41t41 -99v-419q0 -58 -41 -99.5t-99 -41.5zM300 21q50 0 85 35.5t35 84.5v419q0 50 -35 85t-85 35h-80q-50 0 -85 -35t-35 -85v-419q0 -49 35 -84.5t85 -35.5
h80z" />
    <glyph glyph-name="Oacute" unicode="&#xd3;" 
d="M378 942h30l-142 -152h-20zM300 0h-80q-58 0 -99 41.5t-41 99.5v419q0 58 41 99t99 41h80q58 0 99 -41t41 -99v-419q0 -58 -41 -99.5t-99 -41.5zM300 21q50 0 85 35.5t35 84.5v419q0 50 -35 85t-85 35h-80q-50 0 -85 -35t-35 -85v-419q0 -49 35 -84.5t85 -35.5h80z" />
    <glyph glyph-name="Ocircumflex" unicode="&#xd4;" 
d="M260 925l-100 -135h-25l112 152h26l112 -152h-25zM300 700q58 0 99 -41t41 -99v-419q0 -58 -41 -99.5t-99 -41.5h-80q-58 0 -99 41.5t-41 99.5v419q0 58 41 99t99 41h80zM420 141v419q0 50 -35 85t-85 35h-80q-50 0 -85 -35t-35 -85v-419q0 -49 35 -84.5t85 -35.5h80
q50 0 85 35.5t35 84.5z" />
    <glyph glyph-name="Otilde" unicode="&#xd5;" 
d="M138 816l-20 6q25 50 91 48l110 -46q47 -2 67 34l20 -6q-25 -50 -91 -48l-110 46q-47 2 -67 -34zM300 0h-80q-58 0 -99 41.5t-41 99.5v419q0 58 41 99t99 41h80q58 0 99 -41t41 -99v-419q0 -58 -41 -99.5t-99 -41.5zM300 21q50 0 85 35.5t35 84.5v419q0 50 -35 85t-85 35
h-80q-50 0 -85 -35t-35 -85v-419q0 -49 35 -84.5t85 -35.5h80z" />
    <glyph glyph-name="Odieresis" unicode="&#xd6;" 
d="M155 870h50v-50h-50v50zM315 870h50v-50h-50v50zM300 0h-80q-58 0 -99 41.5t-41 99.5v419q0 58 41 99t99 41h80q58 0 99 -41t41 -99v-419q0 -58 -41 -99.5t-99 -41.5zM300 21q50 0 85 35.5t35 84.5v419q0 50 -35 85t-85 35h-80q-50 0 -85 -35t-35 -85v-419
q0 -49 35 -84.5t85 -35.5h80z" />
    <glyph glyph-name="multiply" unicode="&#xd7;" 
d="M367 362l-92 -92l92 -92l-15 -14l-91 92l-92 -92l-14 15l91 91l-91 92l14 14l92 -92l92 92z" />
    <glyph glyph-name="Oslash" unicode="&#xd8;" 
d="M389 668q51 -41 51 -108v-419q0 -58 -41 -99.5t-99 -41.5h-80q-37 0 -72 20l-47 -125h-21l51 137q-51 43 -51 109v419q0 58 41 99t99 41h80q40 0 72 -20l47 125h21zM100 141q0 -52 39 -88l226 608q-29 19 -65 19h-80q-50 0 -85 -35t-35 -85v-419zM420 141v419
q0 53 -38 88l-227 -608q30 -19 65 -19h80q50 0 85 35.5t35 84.5z" />
    <glyph glyph-name="Ugrave" unicode="&#xd9;" 
d="M132 942l132 -152h-20l-142 152h30zM440 700v-559q0 -58 -41 -99.5t-99 -41.5h-80q-58 0 -99 41.5t-41 99.5v559h20v-559q0 -49 35 -84.5t85 -35.5h80q50 0 85 35.5t35 84.5v559h20z" />
    <glyph glyph-name="Uacute" unicode="&#xda;" 
d="M378 942h30l-142 -152h-20zM440 700v-559q0 -58 -41 -99.5t-99 -41.5h-80q-58 0 -99 41.5t-41 99.5v559h20v-559q0 -49 35 -84.5t85 -35.5h80q50 0 85 35.5t35 84.5v559h20z" />
    <glyph glyph-name="Ucircumflex" unicode="&#xdb;" 
d="M260 925l-100 -135h-25l112 152h26l112 -152h-25zM420 700h20v-559q0 -58 -41 -99.5t-99 -41.5h-80q-58 0 -99 41.5t-41 99.5v559h20v-559q0 -49 35 -84.5t85 -35.5h80q50 0 85 35.5t35 84.5v559z" />
    <glyph glyph-name="Udieresis" unicode="&#xdc;" 
d="M155 870h50v-50h-50v50zM315 870h50v-50h-50v50zM440 700v-559q0 -58 -41 -99.5t-99 -41.5h-80q-58 0 -99 41.5t-41 99.5v559h20v-559q0 -49 35 -84.5t85 -35.5h80q50 0 85 35.5t35 84.5v559h20z" />
    <glyph glyph-name="Yacute" unicode="&#xdd;" 
d="M408 942l-142 -152h-20l132 152h30zM420 700h20v-215l-170 -223v-262h-20v262l-170 211v227h20v-219l159 -199h1l160 209v209z" />
    <glyph glyph-name="Thorn" unicode="&#xde;" 
d="M300 530q58 0 99 -41t41 -99v-60q0 -58 -41 -99t-99 -41h-200v-190h-20v700h20v-170h200zM420 330v60q0 50 -35 85t-85 35h-200v-300h200q50 0 85 35t35 85z" />
    <glyph glyph-name="germandbls" unicode="&#xdf;" horiz-adv-x="600" 
d="M360 359q51 -8 85.5 -47t34.5 -92v-80q0 -58 -41 -99t-99 -41h-100v20h100q50 0 85 35t35 85v80q0 50 -35 85t-85 35h-100v20h50q50 0 85 35t35 85v80q0 50 -35 85t-85 35h-30q-50 0 -85 -35t-35 -85v-560h-20v560q0 58 41 99t99 41h30q58 0 99 -41t41 -99v-80
q0 -38 -19 -70.5t-51 -50.5z" />
    <glyph glyph-name="agrave" unicode="&#xe0;" 
d="M284 600h-20l-142 152h30zM420 510h20v-510h-20v78l-115 -78h-85q-58 0 -99 41t-41 99v230q0 58 41 99t99 41h85l115 -78v78zM298 20l122 83v304l-122 83h-78q-50 0 -85 -35t-35 -85v-230q0 -50 35 -85t85 -35h78z" />
    <glyph glyph-name="aacute" unicode="&#xe1;" 
d="M428 752l-142 -152h-20l132 152h30zM420 510h20v-510h-20v78l-115 -78h-85q-58 0 -99 41t-41 99v230q0 58 41 99t99 41h85l115 -78v78zM298 20l122 83v304l-122 83h-78q-50 0 -85 -35t-35 -85v-230q0 -50 35 -85t85 -35h78z" />
    <glyph glyph-name="acircumflex" unicode="&#xe2;" 
d="M280 735l-100 -135h-25l112 152h26l112 -152h-25zM420 510h20v-510h-20v78l-115 -78h-85q-58 0 -99 41t-41 99v230q0 58 41 99t99 41h85l115 -78v78zM298 20l122 83v304l-122 83h-78q-50 0 -85 -35t-35 -85v-230q0 -50 35 -85t85 -35h78z" />
    <glyph glyph-name="atilde" unicode="&#xe3;" 
d="M225 660q-47 2 -67 -34l-20 6q25 50 91 48l110 -46q47 -2 67 34l20 -6q-25 -50 -91 -48zM420 510h20v-510h-20v78l-115 -78h-85q-58 0 -99 41t-41 99v230q0 58 41 99t99 41h85l115 -78v78zM298 20l122 83v304l-122 83h-78q-50 0 -85 -35t-35 -85v-230q0 -50 35 -85
t85 -35h78z" />
    <glyph glyph-name="adieresis" unicode="&#xe4;" 
d="M225 680v-50h-50v50h50zM385 680v-50h-50v50h50zM420 510h20v-510h-20v78l-115 -78h-85q-58 0 -99 41t-41 99v230q0 58 41 99t99 41h85l115 -78v78zM298 20l122 83v304l-122 83h-78q-50 0 -85 -35t-35 -85v-230q0 -50 35 -85t85 -35h78z" />
    <glyph glyph-name="aring" unicode="&#xe5;" 
d="M280 600q-45 0 -76 31t-31 75t31 75t76 31q44 0 75 -31t31 -75t-31 -75t-75 -31zM280 792q-37 0 -62 -24.5t-25 -61.5q0 -36 25 -61t62 -25q35 0 60.5 25.5t25.5 60.5q0 36 -25 61t-61 25zM420 510h20v-510h-20v78l-115 -78h-85q-58 0 -99 41t-41 99v230q0 58 41 99
t99 41h85l115 -78v78zM298 20l122 83v304l-122 83h-78q-50 0 -85 -35t-35 -85v-230q0 -50 35 -85t85 -35h78z" />
    <glyph glyph-name="ae" unicode="&#xe6;" 
d="M375 510q56 0 90.5 -39t34.5 -101v-96v-12h-230v-121q0 -53 29 -86.5t76 -33.5t76 33.5t29 86.5h20q0 -62 -35 -101.5t-90 -39.5q-70 0 -105 61v-61h-20v51l-75 -51h-15q-58 0 -99 41t-41 99v230q0 58 41 99t99 41h15l75 -51v51h20v-60q36 60 105 60zM168 20l82 55v295
v64l-82 56h-8q-50 0 -85 -35t-35 -85v-230q0 -50 35 -85t85 -35h8zM270 282h210v88q0 54 -28.5 87t-76.5 33t-76.5 -33t-28.5 -87v-88z" />
    <glyph glyph-name="ccedilla" unicode="&#xe7;" 
d="M440 350h-20v20q0 50 -35 85t-85 35h-80q-50 0 -85 -35t-35 -85v-229q0 -49 35 -84.5t85 -35.5h80q50 0 85 35.5t35 84.5v20h20v-20q0 -58 -41 -99.5t-99 -41.5h-21v-5l-19 -34l14 -25h20q35 0 60.5 -26t25.5 -63q0 -35 -25.5 -61t-60.5 -26h-74v20h74q27 0 46.5 20
t19.5 47q0 29 -19 49t-47 20h-32l-25 45l22 39h-39q-58 0 -99 41.5t-41 99.5v229q0 58 41 99t99 41h80q58 0 99 -41t41 -99v-20z" />
    <glyph glyph-name="egrave" unicode="&#xe8;" 
d="M299 600h-20l-142 152h30zM300 510q58 0 99 -41t41 -99v-20v-77h-10v-1h-330v-131q0 -49 35 -84.5t85 -35.5h80q50 0 85 35.5t35 84.5v20h20v-20q0 -58 -41 -99.5t-99 -41.5h-80q-58 0 -99 41.5t-41 99.5v229q0 58 41 99t99 41h80zM420 370q0 50 -35 85t-85 35h-80
q-50 0 -85 -35t-35 -85v-78h320v78z" />
    <glyph glyph-name="eacute" unicode="&#xe9;" 
d="M433 752l-142 -152h-20l132 152h30zM300 510q58 0 99 -41t41 -99v-20v-77h-10v-1h-330v-131q0 -49 35 -84.5t85 -35.5h80q50 0 85 35.5t35 84.5v20h20v-20q0 -58 -41 -99.5t-99 -41.5h-80q-58 0 -99 41.5t-41 99.5v229q0 58 41 99t99 41h80zM420 370q0 50 -35 85t-85 35
h-80q-50 0 -85 -35t-35 -85v-78h320v78z" />
    <glyph glyph-name="ecircumflex" unicode="&#xea;" 
d="M260 735l-100 -135h-25l112 152h26l112 -152h-25zM300 510q58 0 99 -41t41 -99v-20v-77h-10v-1h-330v-131q0 -49 35 -84.5t85 -35.5h80q50 0 85 35.5t35 84.5v20h20v-20q0 -58 -41 -99.5t-99 -41.5h-80q-58 0 -99 41.5t-41 99.5v229q0 58 41 99t99 41h80zM420 370
q0 50 -35 85t-85 35h-80q-50 0 -85 -35t-35 -85v-78h320v78z" />
    <glyph glyph-name="edieresis" unicode="&#xeb;" 
d="M205 680v-50h-50v50h50zM365 680v-50h-50v50h50zM300 510q58 0 99 -41t41 -99v-20v-77h-10v-1h-330v-131q0 -49 35 -84.5t85 -35.5h80q50 0 85 35.5t35 84.5v20h20v-20q0 -58 -41 -99.5t-99 -41.5h-80q-58 0 -99 41.5t-41 99.5v229q0 58 41 99t99 41h80zM420 370
q0 50 -35 85t-85 35h-80q-50 0 -85 -35t-35 -85v-78h320v78z" />
    <glyph glyph-name="igrave" unicode="&#xec;" 
d="M259 600h-20l-142 152h30zM265 20h175v-20h-195h-165v20h165v470h-165v20h185v-490z" />
    <glyph glyph-name="iacute" unicode="&#xed;" 
d="M403 752l-142 -152h-20l132 152h30zM265 20h175v-20h-195h-165v20h165v470h-165v20h185v-490z" />
    <glyph glyph-name="icircumflex" unicode="&#xee;" 
d="M255 735l-100 -135h-25l112 152h26l112 -152h-25zM265 20h175v-20h-195h-165v20h165v470h-165v20h185v-490z" />
    <glyph glyph-name="idieresis" unicode="&#xef;" 
d="M200 680v-50h-50v50h50zM360 680v-50h-50v50h50zM265 20h175v-20h-195h-165v20h165v470h-165v20h185v-490z" />
    <glyph glyph-name="ntilde" unicode="&#xf1;" 
d="M203 660q-47 2 -67 -34l-20 6q25 50 91 48l110 -46q47 -2 67 34l20 -6q-25 -50 -91 -48zM300 510q58 0 99 -41t41 -99v-370h-20v370q0 50 -35 85t-85 35h-78l-122 -84v-406h-20v510h20v-79l115 79h85z" />
    <glyph glyph-name="ograve" unicode="&#xf2;" 
d="M167 752l132 -152h-20l-142 152h30zM300 0h-80q-58 0 -99 41.5t-41 99.5v229q0 58 41 99t99 41h80q58 0 99 -41t41 -99v-229q0 -58 -41 -99.5t-99 -41.5zM300 21q50 0 85 35.5t35 84.5v229q0 50 -35 85t-85 35h-80q-50 0 -85 -35t-35 -85v-229q0 -49 35 -84.5t85 -35.5
h80z" />
    <glyph glyph-name="oacute" unicode="&#xf3;" 
d="M403 752h30l-142 -152h-20zM300 0h-80q-58 0 -99 41.5t-41 99.5v229q0 58 41 99t99 41h80q58 0 99 -41t41 -99v-229q0 -58 -41 -99.5t-99 -41.5zM300 21q50 0 85 35.5t35 84.5v229q0 50 -35 85t-85 35h-80q-50 0 -85 -35t-35 -85v-229q0 -49 35 -84.5t85 -35.5h80z" />
    <glyph glyph-name="ocircumflex" unicode="&#xf4;" 
d="M260 735l-100 -135h-25l112 152h26l112 -152h-25zM300 510q58 0 99 -41t41 -99v-229q0 -58 -41 -99.5t-99 -41.5h-80q-58 0 -99 41.5t-41 99.5v229q0 58 41 99t99 41h80zM420 141v229q0 50 -35 85t-85 35h-80q-50 0 -85 -35t-35 -85v-229q0 -49 35 -84.5t85 -35.5h80
q50 0 85 35.5t35 84.5z" />
    <glyph glyph-name="otilde" unicode="&#xf5;" 
d="M136 626l-20 6q25 50 91 48l110 -46q47 -2 67 34l20 -6q-25 -50 -91 -48l-110 46q-47 2 -67 -34zM300 0h-80q-58 0 -99 41.5t-41 99.5v229q0 58 41 99t99 41h80q58 0 99 -41t41 -99v-229q0 -58 -41 -99.5t-99 -41.5zM300 21q50 0 85 35.5t35 84.5v229q0 50 -35 85t-85 35
h-80q-50 0 -85 -35t-35 -85v-229q0 -49 35 -84.5t85 -35.5h80z" />
    <glyph glyph-name="odieresis" unicode="&#xf6;" 
d="M155 680h50v-50h-50v50zM315 680h50v-50h-50v50zM300 0h-80q-58 0 -99 41.5t-41 99.5v229q0 58 41 99t99 41h80q58 0 99 -41t41 -99v-229q0 -58 -41 -99.5t-99 -41.5zM300 21q50 0 85 35.5t35 84.5v229q0 50 -35 85t-85 35h-80q-50 0 -85 -35t-35 -85v-229
q0 -49 35 -84.5t85 -35.5h80z" />
    <glyph glyph-name="divide" unicode="&#xf7;" 
d="M235 427h50v-50h-50v50zM120 277h280v-20h-280v20zM235 157h50v-50h-50v50z" />
    <glyph glyph-name="oslash" unicode="&#xf8;" 
d="M361 496q36 -17 57.5 -51t21.5 -75v-229q0 -58 -41 -99.5t-99 -41.5h-80q-24 0 -42 7l-38 -102h-21l41 109q-36 18 -58 52t-22 75v229q0 58 41 99t99 41h80q23 0 43 -7l38 102h21zM100 141q0 -35 18.5 -64t48.5 -44l169 452q-18 5 -36 5h-80q-50 0 -85 -35t-35 -85v-229z
M420 141v229q0 35 -18 64t-48 43l-169 -451q18 -5 35 -5h80q50 0 85 35.5t35 84.5z" />
    <glyph glyph-name="ugrave" unicode="&#xf9;" 
d="M299 600h-20l-142 152h30zM420 510h20v-510h-20v79l-115 -79h-85q-58 0 -99 41t-41 99v370h20v-370q0 -50 35 -85t85 -35h78l122 84v406z" />
    <glyph glyph-name="uacute" unicode="&#xfa;" 
d="M433 752l-142 -152h-20l132 152h30zM420 510h20v-510h-20v79l-115 -79h-85q-58 0 -99 41t-41 99v370h20v-370q0 -50 35 -85t85 -35h78l122 84v406z" />
    <glyph glyph-name="ucircumflex" unicode="&#xfb;" 
d="M260 735l-100 -135h-25l112 152h26l112 -152h-25zM420 510h20v-510h-20v79l-115 -79h-85q-58 0 -99 41t-41 99v370h20v-370q0 -50 35 -85t85 -35h78l122 84v406z" />
    <glyph glyph-name="udieresis" unicode="&#xfc;" 
d="M205 680v-50h-50v50h50zM365 680v-50h-50v50h50zM420 510h20v-510h-20v79l-115 -79h-85q-58 0 -99 41t-41 99v370h20v-370q0 -50 35 -85t85 -35h78l122 84v406z" />
    <glyph glyph-name="yacute" unicode="&#xfd;" 
d="M433 752l-142 -152h-20l132 152h30zM418 510h22l-264 -720h-22l89 243l-163 477h21l152 -449z" />
    <glyph glyph-name="thorn" unicode="&#xfe;" 
d="M300 510q58 0 99 -41t41 -99v-230q0 -58 -41 -99t-99 -41h-85l-115 78v-288h-20v920h20v-278l115 78h85zM420 140v230q0 50 -35 85t-85 35h-78l-122 -83v-304l122 -83h78q50 0 85 35t35 85z" />
    <glyph glyph-name="ydieresis" unicode="&#xff;" 
d="M205 680v-50h-50v50h50zM365 680v-50h-50v50h50zM418 510h22l-264 -720h-22l89 243l-163 477h21l152 -449z" />
    <glyph glyph-name="Amacron" unicode="&#x100;" 
d="M400 850v-20h-280v20h280zM282 700l158 -473v-227h-20v209h-320v-209h-20v227l158 473h44zM252 680l-150 -451h316l-150 451h-16z" />
    <glyph glyph-name="amacron" unicode="&#x101;" 
d="M420 660v-20h-280v20h280zM420 510h20v-510h-20v78l-115 -78h-85q-58 0 -99 41t-41 99v230q0 58 41 99t99 41h85l115 -78v78zM298 20l122 83v304l-122 83h-78q-50 0 -85 -35t-35 -85v-230q0 -50 35 -85t85 -35h78z" />
    <glyph glyph-name="Abreve" unicode="&#x102;" 
d="M260 790q-47 0 -80.5 33.5t-33.5 80.5v10h20v-10q0 -39 27.5 -66.5t66.5 -27.5q38 0 65.5 27.5t27.5 66.5v10h20v-10q0 -47 -33 -80.5t-80 -33.5zM282 700l158 -473v-227h-20v209h-320v-209h-20v227l158 473h44zM252 680l-150 -451h316l-150 451h-16z" />
    <glyph glyph-name="abreve" unicode="&#x103;" 
d="M280 600q-47 0 -80.5 33.5t-33.5 80.5v10h20v-10q0 -39 27.5 -66.5t66.5 -27.5q38 0 65.5 27.5t27.5 66.5v10h20v-10q0 -47 -33 -80.5t-80 -33.5zM420 510h20v-510h-20v78l-115 -78h-85q-58 0 -99 41t-41 99v230q0 58 41 99t99 41h85l115 -78v78zM298 20l122 83v304
l-122 83h-78q-50 0 -85 -35t-35 -85v-230q0 -50 35 -85t85 -35h78z" />
    <glyph glyph-name="Aogonek" unicode="&#x104;" 
d="M433 0q-48 -50 -60 -97.5t20.5 -79t108.5 -31.5v-20h-14q-83 0 -119.5 37t-22.5 90t67 101h7v209h-320v-209h-20v227l158 473h44l158 -473v-227h-7zM252 680l-150 -451h316l-150 451h-16z" />
    <glyph glyph-name="aogonek" unicode="&#x105;" 
d="M433 0q-48 -50 -60 -97.5t20.5 -79t108.5 -31.5v-20h-14q-83 0 -119.5 37t-22.5 90t67 101h7v78l-115 -78h-85q-58 0 -99 41t-41 99v230q0 58 41 99t99 41h85l115 -78v78h20v-510h-7zM298 20l122 83v304l-122 83h-78q-50 0 -85 -35t-35 -85v-230q0 -50 35 -85t85 -35h78z
" />
    <glyph glyph-name="Cacute" unicode="&#x106;" 
d="M378 942h30l-142 -152h-20zM420 505v55q0 50 -35 85t-85 35h-80q-50 0 -85 -35t-35 -85v-419q0 -49 35 -84.5t85 -35.5h80q50 0 85 35.5t35 84.5v55h20v-55q0 -58 -41 -99.5t-99 -41.5h-80q-58 0 -99 41.5t-41 99.5v419q0 58 41 99t99 41h80q58 0 99 -41t41 -99v-55h-20z
" />
    <glyph glyph-name="cacute" unicode="&#x107;" 
d="M378 752h30l-142 -152h-20zM420 370q0 50 -35 85t-85 35h-80q-50 0 -85 -35t-35 -85v-229q0 -49 35 -84.5t85 -35.5h80q50 0 85 35.5t35 84.5v20h20v-20q0 -58 -41 -99.5t-99 -41.5h-80q-58 0 -99 41.5t-41 99.5v229q0 58 41 99t99 41h80q58 0 99 -41t41 -99v-20h-20v20z
" />
    <glyph glyph-name="Cdotaccent" unicode="&#x10a;" 
d="M235 870h50v-50h-50v50zM420 505v55q0 50 -35 85t-85 35h-80q-50 0 -85 -35t-35 -85v-419q0 -49 35 -84.5t85 -35.5h80q50 0 85 35.5t35 84.5v55h20v-55q0 -58 -41 -99.5t-99 -41.5h-80q-58 0 -99 41.5t-41 99.5v419q0 58 41 99t99 41h80q58 0 99 -41t41 -99v-55h-20z
" />
    <glyph glyph-name="cdotaccent" unicode="&#x10b;" 
d="M235 680h50v-50h-50v50zM420 370q0 50 -35 85t-85 35h-80q-50 0 -85 -35t-35 -85v-229q0 -49 35 -84.5t85 -35.5h80q50 0 85 35.5t35 84.5v20h20v-20q0 -58 -41 -99.5t-99 -41.5h-80q-58 0 -99 41.5t-41 99.5v229q0 58 41 99t99 41h80q58 0 99 -41t41 -99v-20h-20v20z
" />
    <glyph glyph-name="Ccaron" unicode="&#x10c;" 
d="M273 790h-26l-112 152h25l100 -135l100 135h25zM440 505h-20v55q0 50 -35 85t-85 35h-80q-50 0 -85 -35t-35 -85v-419q0 -49 35 -84.5t85 -35.5h80q50 0 85 35.5t35 84.5v55h20v-55q0 -58 -41 -99.5t-99 -41.5h-80q-58 0 -99 41.5t-41 99.5v419q0 58 41 99t99 41h80
q58 0 99 -41t41 -99v-55z" />
    <glyph glyph-name="ccaron" unicode="&#x10d;" 
d="M273 600h-26l-112 152h25l100 -135l100 135h25zM440 350h-20v20q0 50 -35 85t-85 35h-80q-50 0 -85 -35t-35 -85v-229q0 -49 35 -84.5t85 -35.5h80q50 0 85 35.5t35 84.5v20h20v-20q0 -58 -41 -99.5t-99 -41.5h-80q-58 0 -99 41.5t-41 99.5v229q0 58 41 99t99 41h80
q58 0 99 -41t41 -99v-20z" />
    <glyph glyph-name="Dcaron" unicode="&#x10e;" 
d="M253 790h-26l-112 152h25l100 -135l100 135h25zM300 700q58 0 99 -41t41 -99v-419q0 -58 -41 -99.5t-99 -41.5h-220v700h220zM420 141v419q0 50 -35 85t-85 35h-200v-659h200q50 0 85 35.5t35 84.5z" />
    <glyph glyph-name="dcaron" unicode="&#x10f;" horiz-adv-x="600" 
d="M420 432v278h20v-710h-20v78l-115 -78h-85q-58 0 -99 41t-41 99v230q0 58 41 99t99 41h85zM600 710h20v-220h-20v220zM298 20l122 83v304l-122 83h-78q-50 0 -85 -35t-35 -85v-230q0 -50 35 -85t85 -35h78z" />
    <glyph glyph-name="Dcroat" unicode="&#x110;" 
d="M300 700q58 0 99 -41t41 -99v-419q0 -58 -41 -99.5t-99 -41.5h-220v382h-60v20h60v298h220zM420 141v419q0 50 -35 85t-85 35h-200v-278h180v-20h-180v-361h200q50 0 85 35.5t35 84.5z" />
    <glyph glyph-name="dcroat" unicode="&#x111;" horiz-adv-x="600" 
d="M490 622v-20h-50v-602h-20v78l-115 -78h-85q-58 0 -99 41t-41 99v230q0 58 41 99t99 41h85l115 -78v170h-210v20h210v88h20v-88h50zM298 20l122 83v304l-122 83h-78q-50 0 -85 -35t-35 -85v-230q0 -50 35 -85t85 -35h78z" />
    <glyph glyph-name="Emacron" unicode="&#x112;" 
d="M400 801v-20h-280v20h280zM440 680h-340v-293h300v-20h-300v-347h340v-20h-360v367v313v20h360v-20z" />
    <glyph glyph-name="emacron" unicode="&#x113;" 
d="M400 660v-20h-280v20h280zM300 510q58 0 99 -41t41 -99v-20v-77h-10v-1h-330v-131q0 -49 35 -84.5t85 -35.5h80q50 0 85 35.5t35 84.5v20h20v-20q0 -58 -41 -99.5t-99 -41.5h-80q-58 0 -99 41.5t-41 99.5v229q0 58 41 99t99 41h80zM420 370q0 50 -35 85t-85 35h-80
q-50 0 -85 -35t-35 -85v-78h320v78z" />
    <glyph glyph-name="Edotaccent" unicode="&#x116;" 
d="M285 870v-50h-50v50h50zM440 680h-340v-293h300v-20h-300v-347h340v-20h-360v367v313v20h360v-20z" />
    <glyph glyph-name="edotaccent" unicode="&#x117;" 
d="M285 680v-50h-50v50h50zM300 510q58 0 99 -41t41 -99v-20v-77h-10v-1h-330v-131q0 -49 35 -84.5t85 -35.5h80q50 0 85 35.5t35 84.5v20h20v-20q0 -58 -41 -99.5t-99 -41.5h-80q-58 0 -99 41.5t-41 99.5v229q0 58 41 99t99 41h80zM420 370q0 50 -35 85t-85 35h-80
q-50 0 -85 -35t-35 -85v-78h320v78z" />
    <glyph glyph-name="Eogonek" unicode="&#x118;" 
d="M440 680h-340v-293h300v-20h-300v-347h340v-20h-109q-39 -48 -45.5 -91t26.5 -71t104 -28v-20h-14q-78 0 -115 33t-29.5 81t51.5 96h-229v367v313v20h360v-20z" />
    <glyph glyph-name="eogonek" unicode="&#x119;" 
d="M300 510q58 0 99 -41t41 -99v-20v-77h-10v-1h-330v-131q0 -49 35 -84.5t85 -35.5h80q50 0 85 35.5t35 84.5v20h20v-20q0 -49 -29.5 -87t-75.5 -50q-41 -48 -49 -92t25 -73t105 -29v-20h-14q-78 0 -115.5 33.5t-29.5 81.5t52 95h-9h-80q-58 0 -99 41.5t-41 99.5v229
q0 58 41 99t99 41h80zM420 370q0 50 -35 85t-85 35h-80q-50 0 -85 -35t-35 -85v-78h320v78z" />
    <glyph glyph-name="Ecaron" unicode="&#x11a;" 
d="M273 790h-26l-112 152h25l100 -135l100 135h25zM440 680h-340v-293h300v-20h-300v-347h340v-20h-360v367v313v20h360v-20z" />
    <glyph glyph-name="ecaron" unicode="&#x11b;" 
d="M273 600h-26l-112 152h25l100 -135l100 135h25zM300 510q58 0 99 -41t41 -99v-20v-77h-10v-1h-330v-131q0 -49 35 -84.5t85 -35.5h80q50 0 85 35.5t35 84.5v20h20v-20q0 -58 -41 -99.5t-99 -41.5h-80q-58 0 -99 41.5t-41 99.5v229q0 58 41 99t99 41h80zM420 370
q0 50 -35 85t-85 35h-80q-50 0 -85 -35t-35 -85v-78h320v78z" />
    <glyph glyph-name="Gbreve" unicode="&#x11e;" 
d="M260 790q-47 0 -80.5 33.5t-33.5 80.5v10h20v-10q0 -39 27.5 -66.5t66.5 -27.5q38 0 65.5 27.5t27.5 66.5v10h20v-10q0 -47 -33 -80.5t-80 -33.5zM440 505h-20v55q0 50 -35 85t-85 35h-80q-50 0 -85 -35t-35 -85v-419q0 -49 35 -84.5t85 -35.5h80q50 0 85 35.5t35 84.5
v185h-150v20h170v-150v-55q0 -58 -41 -99.5t-99 -41.5h-80q-58 0 -99 41.5t-41 99.5v419q0 58 41 99t99 41h80q58 0 99 -41t41 -99v-55z" />
    <glyph glyph-name="gbreve" unicode="&#x11f;" 
d="M260 600q-47 0 -80.5 33.5t-33.5 80.5v10h20v-10q0 -39 27.5 -66.5t66.5 -27.5q38 0 65.5 27.5t27.5 66.5v10h20v-10q0 -47 -33 -80.5t-80 -33.5zM420 510h20v-579q0 -58 -41 -99.5t-99 -41.5h-80q-58 0 -99 41.5t-41 99.5h20q0 -49 35 -84.5t85 -35.5h80q50 0 85 35.5
t35 84.5v147l-115 -78h-85q-58 0 -99 41t-41 99v230q0 58 41 99t99 41h85l115 -78v78zM298 20l122 83v304l-122 83h-78q-50 0 -85 -35t-35 -85v-230q0 -50 35 -85t85 -35h78z" />
    <glyph glyph-name="Gdotaccent" unicode="&#x120;" 
d="M285 870v-50h-50v50h50zM440 505h-20v55q0 50 -35 85t-85 35h-80q-50 0 -85 -35t-35 -85v-419q0 -49 35 -84.5t85 -35.5h80q50 0 85 35.5t35 84.5v185h-150v20h170v-150v-55q0 -58 -41 -99.5t-99 -41.5h-80q-58 0 -99 41.5t-41 99.5v419q0 58 41 99t99 41h80q58 0 99 -41
t41 -99v-55z" />
    <glyph glyph-name="gdotaccent" unicode="&#x121;" 
d="M285 680v-50h-50v50h50zM420 510h20v-579q0 -58 -41 -99.5t-99 -41.5h-80q-58 0 -99 41.5t-41 99.5h20q0 -49 35 -84.5t85 -35.5h80q50 0 85 35.5t35 84.5v147l-115 -78h-85q-58 0 -99 41t-41 99v230q0 58 41 99t99 41h85l115 -78v78zM298 20l122 83v304l-122 83h-78
q-50 0 -85 -35t-35 -85v-230q0 -50 35 -85t85 -35h78z" />
    <glyph glyph-name="Gcommaaccent" unicode="&#x122;" 
d="M440 505h-20v55q0 50 -35 85t-85 35h-80q-50 0 -85 -35t-35 -85v-419q0 -49 35 -84.5t85 -35.5h80q50 0 85 35.5t35 84.5v185h-150v20h170v-150v-55q0 -58 -41 -99.5t-99 -41.5h-80q-58 0 -99 41.5t-41 99.5v419q0 58 41 99t99 41h80q58 0 99 -41t41 -99v-55zM194 -320
l57 170h20l-8 -50l-49 -120h-20z" />
    <glyph glyph-name="gcommaaccent" unicode="&#x123;" 
d="M325 820l-57 -170h-20l8 50l49 120h20zM420 510h20v-579q0 -58 -41 -99.5t-99 -41.5h-80q-58 0 -99 41.5t-41 99.5h20q0 -49 35 -84.5t85 -35.5h80q50 0 85 35.5t35 84.5v147l-115 -78h-85q-58 0 -99 41t-41 99v230q0 58 41 99t99 41h85l115 -78v78zM298 20l122 83v304
l-122 83h-78q-50 0 -85 -35t-35 -85v-230q0 -50 35 -85t85 -35h78z" />
    <glyph glyph-name="Hbar" unicode="&#x126;" 
d="M490 570v-20h-50v-200v-350h-20v350h-320v-350h-20v370v180h-50v20h50v130h20v-130h320v130h20v-130h50zM420 370v180h-320v-180h320z" />
    <glyph glyph-name="hbar" unicode="&#x127;" 
d="M300 510q58 0 99 -41t41 -99v-370h-20v370q0 50 -35 85t-85 35h-78l-122 -84v-406h-20v602h-50v20h50v88h20v-88h210v-20h-210v-171l115 79h85z" />
    <glyph glyph-name="Imacron" unicode="&#x12a;" 
d="M400 802v-20h-280v20h280zM440 680h-170v-660h170v-20h-190h-170v20h170v660h-170v20h190h170v-20z" />
    <glyph glyph-name="imacron" unicode="&#x12b;" 
d="M400 660v-20h-280v20h280zM265 20h175v-20h-195h-165v20h165v470h-165v20h185v-490z" />
    <glyph glyph-name="Iogonek" unicode="&#x12e;" 
d="M381 0q-48 -50 -60 -97.5t20.5 -79t108.5 -31.5v-20h-14q-83 0 -119.5 37t-22.5 90t67 101h-111h-170v20h170v660h-170v20h190h170v-20h-170v-660h170v-20h-59z" />
    <glyph glyph-name="iogonek" unicode="&#x12f;" 
d="M280 680v-50h-50v50h50zM440 0h-109q-39 -48 -45.5 -91t26.5 -71t104 -28v-20h-14q-78 0 -115 33t-29.5 81t51.5 96h-64h-165v20h165v470h-165v20h185v-490h175v-20z" />
    <glyph glyph-name="Idotaccent" unicode="&#x130;" 
d="M285 870v-50h-50v50h50zM440 680h-170v-660h170v-20h-190h-170v20h170v660h-170v20h190h170v-20z" />
    <glyph glyph-name="dotlessi" unicode="&#x131;" 
d="M265 20h175v-20h-195h-165v20h165v470h-165v20h185v-490z" />
    <glyph glyph-name="Kcommaaccent" unicode="&#x136;" 
d="M440 700l-215 -350l215 -350h-24l-209 340h-107v-340h-20v700h20v-340h107l209 340h24zM184 -320l57 170h20l-8 -50l-49 -120h-20z" />
    <glyph glyph-name="kcommaaccent" unicode="&#x137;" 
d="M440 510l-169 -255l169 -255h-24l-162 245h-154v-245h-20v710h20v-445h154l162 245h24zM184 -320l57 170h20l-8 -50l-49 -120h-20z" />
    <glyph glyph-name="Lacute" unicode="&#x139;" 
d="M238 942l-142 -152h-20l132 152h30zM100 20h340v-20h-360v700h20v-680z" />
    <glyph glyph-name="lacute" unicode="&#x13a;" 
d="M433 942l-142 -152h-20l132 152h30zM265 20h175v-20h-195h-165v20h165v670h-165v20h185v-690z" />
    <glyph glyph-name="Lcommaaccent" unicode="&#x13b;" 
d="M100 20h340v-20h-360v700h20v-680zM194 -320l57 170h20l-8 -50l-49 -120h-20z" />
    <glyph glyph-name="lcommaaccent" unicode="&#x13c;" 
d="M265 20h175v-20h-195h-165v20h165v670h-165v20h185v-690zM194 -320l57 170h20l-8 -50l-49 -120h-20z" />
    <glyph glyph-name="Lcaron" unicode="&#x13d;" 
d="M387 660l-49 -120h-20l57 170h20zM100 20h340v-20h-360v700h20v-680z" />
    <glyph glyph-name="lcaron" unicode="&#x13e;" 
d="M265 20h175v-20h-195h-165v20h165v670h-165v20h185v-690zM425 710h20v-220h-20v220z" />
    <glyph glyph-name="Lslash" unicode="&#x141;" 
d="M100 20h340v-20h-360v339l-60 -22v21l60 22v340h20v-332l188 70v-21l-188 -70v-327z" />
    <glyph glyph-name="lslash" unicode="&#x142;" 
d="M265 20h175v-20h-195h-165v20h165v341l-119 -44v21l119 44v308h-165v20h185v-320l129 48v-21l-129 -48v-349z" />
    <glyph glyph-name="Nacute" unicode="&#x143;" 
d="M378 942h30l-142 -152h-20zM420 700h20v-700h-77l-220 680h-43v-680h-20v700h77l220 -680h43v680z" />
    <glyph glyph-name="nacute" unicode="&#x144;" 
d="M418 752l-142 -152h-20l132 152h30zM300 510q58 0 99 -41t41 -99v-370h-20v370q0 50 -35 85t-85 35h-78l-122 -84v-406h-20v510h20v-79l115 79h85z" />
    <glyph glyph-name="Ncommaaccent" unicode="&#x145;" 
d="M420 700h20v-700h-77l-220 680h-43v-680h-20v700h77l220 -680h43v680zM214 -320h-20l57 170h20l-8 -50z" />
    <glyph glyph-name="ncommaaccent" unicode="&#x146;" 
d="M300 510q58 0 99 -41t41 -99v-370h-20v370q0 50 -35 85t-85 35h-78l-122 -84v-406h-20v510h20v-79l115 79h85zM194 -320l57 170h20l-8 -50l-49 -120h-20z" />
    <glyph glyph-name="Ncaron" unicode="&#x147;" 
d="M273 790h-26l-112 152h25l100 -135l100 135h25zM420 700h20v-700h-77l-220 680h-43v-680h-20v700h77l220 -680h43v680z" />
    <glyph glyph-name="ncaron" unicode="&#x148;" 
d="M273 600h-26l-112 152h25l100 -135l100 135h25zM300 510q58 0 99 -41t41 -99v-370h-20v370q0 50 -35 85t-85 35h-78l-122 -84v-406h-20v510h20v-79l115 79h85z" />
    <glyph glyph-name="Eng" unicode="&#x14a;" 
d="M420 700h20v-770q0 -58 -41 -99t-99 -41h-40v20h40q50 0 85 35t35 85v70h-57l-220 680h-43v-680h-20v700h77l220 -680h43v680z" />
    <glyph glyph-name="eng" unicode="&#x14b;" 
d="M300 510q58 0 99 -41t41 -99v-400q0 -85 -39.5 -132.5t-100.5 -47.5h-80v20h80q53 0 86.5 41.5t33.5 118.5v400q0 50 -35 85t-85 35h-78l-122 -84v-406h-20v510h20v-79l115 79h85z" />
    <glyph glyph-name="Omacron" unicode="&#x14c;" 
d="M120 850h280v-20h-280v20zM300 0h-80q-58 0 -99 41.5t-41 99.5v419q0 58 41 99t99 41h80q58 0 99 -41t41 -99v-419q0 -58 -41 -99.5t-99 -41.5zM300 21q50 0 85 35.5t35 84.5v419q0 50 -35 85t-85 35h-80q-50 0 -85 -35t-35 -85v-419q0 -49 35 -84.5t85 -35.5h80z" />
    <glyph glyph-name="omacron" unicode="&#x14d;" 
d="M120 660h280v-20h-280v20zM300 0h-80q-58 0 -99 41.5t-41 99.5v229q0 58 41 99t99 41h80q58 0 99 -41t41 -99v-229q0 -58 -41 -99.5t-99 -41.5zM300 21q50 0 85 35.5t35 84.5v229q0 50 -35 85t-85 35h-80q-50 0 -85 -35t-35 -85v-229q0 -49 35 -84.5t85 -35.5h80z" />
    <glyph glyph-name="Ohungarumlaut" unicode="&#x150;" 
d="M328 942h30l-142 -152h-20zM468 942h30l-142 -152h-20zM300 0h-80q-58 0 -99 41.5t-41 99.5v419q0 58 41 99t99 41h80q58 0 99 -41t41 -99v-419q0 -58 -41 -99.5t-99 -41.5zM300 21q50 0 85 35.5t35 84.5v419q0 50 -35 85t-85 35h-80q-50 0 -85 -35t-35 -85v-419
q0 -49 35 -84.5t85 -35.5h80z" />
    <glyph glyph-name="ohungarumlaut" unicode="&#x151;" 
d="M343 752h30l-142 -152h-20zM483 752h30l-142 -152h-20zM300 0h-80q-58 0 -99 41.5t-41 99.5v229q0 58 41 99t99 41h80q58 0 99 -41t41 -99v-229q0 -58 -41 -99.5t-99 -41.5zM300 21q50 0 85 35.5t35 84.5v229q0 50 -35 85t-85 35h-80q-50 0 -85 -35t-35 -85v-229
q0 -49 35 -84.5t85 -35.5h80z" />
    <glyph glyph-name="OE" unicode="&#x152;" 
d="M310 680v-303h160v-20h-160v-337h180v-20h-200v68q-19 -31 -50.5 -49.5t-69.5 -18.5q-58 0 -99 41.5t-41 99.5v419q0 58 41 99t99 41q38 0 70 -18t50 -49v67h200v-20h-180zM290 560q0 50 -35 85t-85 35t-85 -35t-35 -85v-419q0 -49 35 -84.5t85 -35.5t85 35.5t35 84.5
v419z" />
    <glyph glyph-name="oe" unicode="&#x153;" 
d="M375 510q56 0 90.5 -39t34.5 -101v-96v-12h-230v-121q0 -53 29 -86.5t76 -33.5t76 33.5t29 86.5h20q0 -62 -35 -101.5t-90 -39.5q-40 0 -70.5 22t-44.5 60q-14 -38 -44.5 -60t-70.5 -22q-55 0 -90 39.5t-35 101.5v229q0 61 35 100.5t90 39.5q41 0 71 -21.5t44 -59.5
q14 37 44.5 59t70.5 22zM145 21q47 0 76 33.5t29 86.5v229q0 54 -28.5 87t-76.5 33t-76.5 -33t-28.5 -87v-229q0 -53 29 -86.5t76 -33.5zM270 282h210v88q0 54 -28.5 87t-76.5 33t-76.5 -33t-28.5 -87v-88z" />
    <glyph glyph-name="Racute" unicode="&#x154;" 
d="M388 942l-142 -152h-20l132 152h30zM440 500q0 -58 -41 -99t-99 -41h-24l164 -360h-22l-164 360h-154v-360h-20v700h220q58 0 99 -41t41 -99v-60zM100 680v-300h200q50 0 85 35t35 85v60q0 50 -35 85t-85 35h-200z" />
    <glyph glyph-name="racute" unicode="&#x155;" 
d="M408 752l-142 -152h-20l132 152h30zM300 510q58 0 99 -41t41 -99v-30h-20v30q0 50 -35 85t-85 35h-22l-178 -118v-372h-20v510h20v-115l171 115h29z" />
    <glyph glyph-name="Rcommaaccent" unicode="&#x156;" 
d="M440 500q0 -58 -41 -99t-99 -41h-24l164 -360h-22l-164 360h-154v-360h-20v700h220q58 0 99 -41t41 -99v-60zM100 680v-300h200q50 0 85 35t35 85v60q0 50 -35 85t-85 35h-200zM174 -320l57 170h20l-8 -50l-49 -120h-20z" />
    <glyph glyph-name="rcommaaccent" unicode="&#x157;" 
d="M300 510q58 0 99 -41t41 -99v-30h-20v30q0 50 -35 85t-85 35h-22l-178 -118v-372h-20v510h20v-115l171 115h29zM24 -320l57 170h20l-8 -50l-49 -120h-20z" />
    <glyph glyph-name="Rcaron" unicode="&#x158;" 
d="M253 790h-26l-112 152h25l100 -135l100 135h25zM440 500q0 -58 -41 -99t-99 -41h-24l164 -360h-22l-164 360h-154v-360h-20v700h220q58 0 99 -41t41 -99v-60zM100 680v-300h200q50 0 85 35t35 85v60q0 50 -35 85t-85 35h-200z" />
    <glyph glyph-name="rcaron" unicode="&#x159;" 
d="M273 600h-26l-112 152h25l100 -135l100 135h25zM300 510q58 0 99 -41t41 -99v-30h-20v30q0 50 -35 85t-85 35h-22l-178 -118v-372h-20v510h20v-115l171 115h29z" />
    <glyph glyph-name="Sacute" unicode="&#x15a;" 
d="M378 942h30l-142 -152h-20zM80 196h20v-50q0 -52 37 -89t89 -37h67q55 0 91 33t36 83q0 41 -24.5 82.5t-61 73.5t-79.5 68t-79.5 67t-61 70t-24.5 77q0 57 40.5 91.5t105.5 34.5h47q61 0 104 -42.5t43 -103.5v-30h-20v30q0 52 -37 89t-90 37h-47q-57 0 -91.5 -29
t-34.5 -77q0 -41 34 -83.5t82.5 -81.5t97 -79.5t82.5 -91t34 -102.5q0 -58 -42 -97t-105 -39h-67q-60 0 -103 43t-43 103v50z" />
    <glyph glyph-name="sacute" unicode="&#x15b;" 
d="M378 752h30l-142 -152h-20zM80 158h20v-50q0 -34 36 -61t83 -27h81q57 0 88.5 26.5t31.5 74.5q0 53 -34 85t-82.5 46t-97 26.5t-82.5 40.5t-34 76q0 52 37.5 83.5t99.5 31.5h63q53 0 91.5 -32.5t38.5 -76.5v-29h-20v29q0 36 -32.5 62.5t-77.5 26.5h-63q-53 0 -85 -26
t-32 -69q0 -41 34 -65.5t82.5 -36.5t97 -26.5t82.5 -50.5t34 -95q0 -56 -37.5 -88.5t-102.5 -32.5h-81q-55 0 -97 32.5t-42 75.5v50z" />
    <glyph glyph-name="Scedilla" unicode="&#x15e;" 
d="M257 0v-5l-19 -34l14 -25h20q35 0 60.5 -26t25.5 -63q0 -35 -25.5 -61t-60.5 -26h-74v20h74q27 0 46.5 20t19.5 47q0 29 -19 49t-47 20h-32l-25 45l22 39h-11q-60 0 -103 43t-43 103v50h20v-50q0 -52 37 -89t89 -37h67q55 0 91 33t36 83q0 41 -24.5 82.5t-61 73.5
t-79.5 68t-79.5 67t-61 70t-24.5 77q0 57 40.5 91.5t105.5 34.5h47q61 0 104 -42.5t43 -103.5v-30h-20v30q0 52 -37 89t-90 37h-47q-57 0 -91.5 -29t-34.5 -77q0 -41 34 -83.5t82.5 -81.5t97 -79.5t82.5 -91t34 -102.5q0 -58 -42 -97t-105 -39h-36z" />
    <glyph glyph-name="scedilla" unicode="&#x15f;" 
d="M257 0v-5l-19 -34l14 -25h20q35 0 60.5 -26t25.5 -63q0 -35 -25.5 -61t-60.5 -26h-74v20h74q27 0 46.5 20t19.5 47q0 29 -19 49t-47 20h-32l-25 45l22 39h-18q-55 0 -97 32.5t-42 75.5v50h20v-50q0 -34 36 -61t83 -27h81q57 0 88.5 26.5t31.5 74.5q0 53 -34 85t-82.5 46
t-97 26.5t-82.5 40.5t-34 76q0 52 37.5 83.5t99.5 31.5h63q53 0 91.5 -32.5t38.5 -76.5v-29h-20v29q0 36 -32.5 62.5t-77.5 26.5h-63q-53 0 -85 -26t-32 -69q0 -41 34 -65.5t82.5 -36.5t97 -26.5t82.5 -50.5t34 -95q0 -56 -37.5 -88.5t-102.5 -32.5h-43z" />
    <glyph glyph-name="Scaron" unicode="&#x160;" 
d="M273 790h-26l-112 152h25l100 -135l100 135h25zM110 574q0 -41 34 -83.5t82.5 -81.5t97 -79.5t82.5 -91t34 -102.5q0 -58 -42 -97t-105 -39h-67q-60 0 -103 43t-43 103v50h20v-50q0 -52 37 -89t89 -37h67q55 0 91 33t36 83q0 41 -24.5 82.5t-61 73.5t-79.5 68t-79.5 67
t-61 70t-24.5 77q0 57 40.5 91.5t105.5 34.5h47q61 0 104 -42.5t43 -103.5v-30h-20v30q0 52 -37 89t-90 37h-47q-57 0 -91.5 -29t-34.5 -77z" />
    <glyph glyph-name="scaron" unicode="&#x161;" 
d="M273 600h-26l-112 152h25l100 -135l100 135h25zM110 395q0 -41 34 -65.5t82.5 -36.5t97 -26.5t82.5 -50.5t34 -95q0 -56 -37.5 -88.5t-102.5 -32.5h-81q-55 0 -97 32.5t-42 75.5v50h20v-50q0 -34 36 -61t83 -27h81q57 0 88.5 26.5t31.5 74.5q0 53 -34 85t-82.5 46
t-97 26.5t-82.5 40.5t-34 76q0 52 37.5 83.5t99.5 31.5h63q53 0 91.5 -32.5t38.5 -76.5v-29h-20v29q0 36 -32.5 62.5t-77.5 26.5h-63q-53 0 -85 -26t-32 -69z" />
    <glyph glyph-name="uni0162" unicode="&#x162;" 
d="M257 0v-5l-19 -34l14 -25h20q35 0 60.5 -26t25.5 -63q0 -35 -25.5 -61t-60.5 -26h-74v20h74q27 0 46.5 20t19.5 47q0 29 -19 49t-47 20h-32l-25 45l22 39v19h13v661h-170v20h190h170v-20h-170v-680h-13z" />
    <glyph glyph-name="uni0163" unicode="&#x163;" 
d="M440 490h-185v-350q0 -50 35 -85t85 -35h65v-20h-65q-21 0 -40 6v-11l-19 -34l14 -25h20q35 0 60.5 -26t25.5 -63q0 -35 -25.5 -61t-60.5 -26h-74v20h74q27 0 46.5 20t19.5 47q0 29 -19 49t-47 20h-32l-25 45l22 39v13q-36 17 -58 51t-22 76v350h-155v20h155v110h20v-110
h185v-20z" />
    <glyph glyph-name="Tcaron" unicode="&#x164;" 
d="M273 790h-26l-112 152h25l100 -135l100 135h25zM440 700v-20h-170v-680h-20v680h-170v20h190h170z" />
    <glyph glyph-name="tcaron" unicode="&#x165;" 
d="M362 580h-20v220h20v-220zM440 490h-185v-350q0 -50 35 -85t85 -35h65v-20h-65q-59 0 -99.5 41t-40.5 99v350h-155v20h155v110h20v-110h185v-20z" />
    <glyph glyph-name="Tbar" unicode="&#x166;" 
d="M440 680h-170v-403h130v-20h-130v-257h-20v257h-130v20h130v403h-170v20h190h170v-20z" />
    <glyph glyph-name="tbar" unicode="&#x167;" 
d="M440 490h-185v-213h145v-20h-145v-117q0 -50 35 -85t85 -35h65v-20h-65q-59 0 -99.5 41t-40.5 99v117h-115v20h115v213h-155v20h155v110h20v-110h185v-20z" />
    <glyph glyph-name="Umacron" unicode="&#x16a;" 
d="M120 850h280v-20h-280v20zM440 700v-559q0 -58 -41 -99.5t-99 -41.5h-80q-58 0 -99 41.5t-41 99.5v559h20v-559q0 -49 35 -84.5t85 -35.5h80q50 0 85 35.5t35 84.5v559h20z" />
    <glyph glyph-name="umacron" unicode="&#x16b;" 
d="M400 660v-20h-280v20h280zM420 510h20v-510h-20v79l-115 -79h-85q-58 0 -99 41t-41 99v370h20v-370q0 -50 35 -85t85 -35h78l122 84v406z" />
    <glyph glyph-name="Uring" unicode="&#x16e;" 
d="M260 790q-45 0 -76 31t-31 75t31 75t76 31q44 0 75 -31t31 -75t-31 -75t-75 -31zM260 810q35 0 60.5 25.5t25.5 60.5q0 36 -25 61t-61 25q-37 0 -62 -24.5t-25 -61.5q0 -36 25 -61t62 -25zM440 700v-559q0 -58 -41 -99.5t-99 -41.5h-80q-58 0 -99 41.5t-41 99.5v559h20
v-559q0 -49 35 -84.5t85 -35.5h80q50 0 85 35.5t35 84.5v559h20z" />
    <glyph glyph-name="uring" unicode="&#x16f;" 
d="M260 600q-45 0 -76 31t-31 75t31 75t76 31q44 0 75 -31t31 -75t-31 -75t-75 -31zM260 792q-37 0 -62 -24.5t-25 -61.5q0 -36 25 -61t62 -25q35 0 60.5 25.5t25.5 60.5q0 36 -25 61t-61 25zM420 510h20v-510h-20v79l-115 -79h-85q-58 0 -99 41t-41 99v370h20v-370
q0 -50 35 -85t85 -35h78l122 84v406z" />
    <glyph glyph-name="Uhungarumlaut" unicode="&#x170;" 
d="M328 942h30l-142 -152h-20zM468 942h30l-142 -152h-20zM440 700v-559q0 -58 -41 -99.5t-99 -41.5h-80q-58 0 -99 41.5t-41 99.5v559h20v-559q0 -49 35 -84.5t85 -35.5h80q50 0 85 35.5t35 84.5v559h20z" />
    <glyph glyph-name="uhungarumlaut" unicode="&#x171;" 
d="M373 752l-142 -152h-20l132 152h30zM371 600h-20l132 152h30zM420 104v406h20v-510h-20v79l-115 -79h-85q-58 0 -99 41t-41 99v370h20v-370q0 -50 35 -85t85 -35h78z" />
    <glyph glyph-name="Uogonek" unicode="&#x172;" 
d="M440 141q0 -48 -30 -86.5t-75 -50.5q-41 -48 -49 -92t25 -73t105 -29v-20h-14q-78 0 -115.5 33.5t-29.5 81.5t52 95h-9h-80q-58 0 -99 41.5t-41 99.5v559h20v-559q0 -49 35 -84.5t85 -35.5h80q50 0 85 35.5t35 84.5v559h20v-559z" />
    <glyph glyph-name="uogonek" unicode="&#x173;" 
d="M443 0q-48 -50 -60 -97.5t20.5 -79t108.5 -31.5v-20h-14q-83 0 -119.5 37t-22.5 90t67 101h-3v79l-115 -79h-85q-58 0 -99 41t-41 99v370h20v-370q0 -50 35 -85t85 -35h78l122 84v406h20v-510h3z" />
    <glyph glyph-name="Wcircumflex" unicode="&#x174;" 
d="M260 925l-100 -135h-25l112 152h26l112 -152h-25zM420 700h20v-227l-55 -473h-44l-81 436l-81 -436h-44l-55 473v227h20v-224l53 -456h10l83 450h28l83 -450h10l53 456v224z" />
    <glyph glyph-name="wcircumflex" unicode="&#x175;" 
d="M260 735l-100 -135h-25l112 152h26l112 -152h-25zM420 510h20v-219l-52 -291h-41l-87 371l-87 -371h-41l-52 291v219h20v-217l49 -273h8l91 387h24l91 -387h8l49 273v217z" />
    <glyph glyph-name="Ycircumflex" unicode="&#x176;" 
d="M260 925l-100 -135h-25l112 152h26l112 -152h-25zM420 700h20v-215l-170 -223v-262h-20v262l-170 211v227h20v-219l159 -199h1l160 209v209z" />
    <glyph glyph-name="ycircumflex" unicode="&#x177;" 
d="M260 735l-100 -135h-25l112 152h26l112 -152h-25zM418 510h22l-264 -720h-22l89 243l-163 477h21l152 -449z" />
    <glyph glyph-name="Ydieresis" unicode="&#x178;" 
d="M205 870v-50h-50v50h50zM365 870v-50h-50v50h50zM420 700h20v-215l-170 -223v-262h-20v262l-170 211v227h20v-219l159 -199h1l160 209v209z" />
    <glyph glyph-name="Zacute" unicode="&#x179;" 
d="M408 942l-142 -152h-20l132 152h30zM440 700v-20l-336 -660h336v-20h-360v20l338 660h-338v20h360z" />
    <glyph glyph-name="zacute" unicode="&#x17a;" 
d="M408 752l-142 -152h-20l132 152h30zM440 510v-20l-334 -470h334v-20h-360v20h1l335 470h-336v20h360z" />
    <glyph glyph-name="Zdotaccent" unicode="&#x17b;" 
d="M285 870v-50h-50v50h50zM440 700v-20l-336 -660h336v-20h-360v20l338 660h-338v20h360z" />
    <glyph glyph-name="zdotaccent" unicode="&#x17c;" 
d="M285 680v-50h-50v50h50zM440 510v-20l-334 -470h334v-20h-360v20h1l335 470h-336v20h360z" />
    <glyph glyph-name="Zcaron" unicode="&#x17d;" 
d="M273 790h-26l-112 152h25l100 -135l100 135h25zM440 700v-20l-336 -660h336v-20h-360v20l338 660h-338v20h360z" />
    <glyph glyph-name="zcaron" unicode="&#x17e;" 
d="M273 600h-26l-112 152h25l100 -135l100 135h25zM440 510v-20l-334 -470h334v-20h-360v20h1l335 470h-336v20h360z" />
    <glyph glyph-name="Scommaaccent" unicode="&#x218;" 
d="M80 196h20v-50q0 -52 37 -89t89 -37h67q55 0 91 33t36 83q0 41 -24.5 82.5t-61 73.5t-79.5 68t-79.5 67t-61 70t-24.5 77q0 57 40.5 91.5t105.5 34.5h47q61 0 104 -42.5t43 -103.5v-30h-20v30q0 52 -37 89t-90 37h-47q-57 0 -91.5 -29t-34.5 -77q0 -41 34 -83.5
t82.5 -81.5t97 -79.5t82.5 -91t34 -102.5q0 -58 -42 -97t-105 -39h-67q-60 0 -103 43t-43 103v50zM214 -320h-20l57 170h20l-8 -50z" />
    <glyph glyph-name="scommaaccent" unicode="&#x219;" 
d="M80 158h20v-50q0 -34 36 -61t83 -27h81q57 0 88.5 26.5t31.5 74.5q0 53 -34 85t-82.5 46t-97 26.5t-82.5 40.5t-34 76q0 52 37.5 83.5t99.5 31.5h63q53 0 91.5 -32.5t38.5 -76.5v-29h-20v29q0 36 -32.5 62.5t-77.5 26.5h-63q-53 0 -85 -26t-32 -69q0 -41 34 -65.5
t82.5 -36.5t97 -26.5t82.5 -50.5t34 -95q0 -56 -37.5 -88.5t-102.5 -32.5h-81q-55 0 -97 32.5t-42 75.5v50zM214 -320h-20l57 170h20l-8 -50z" />
    <glyph glyph-name="uni021A" unicode="&#x21a;" 
d="M440 700v-20h-170v-680h-20v680h-170v20h360zM194 -320l57 170h20l-8 -50l-49 -120h-20z" />
    <glyph glyph-name="uni021B" unicode="&#x21b;" 
d="M440 490h-185v-350q0 -50 35 -85t85 -35h65v-20h-65q-59 0 -99.5 41t-40.5 99v350h-155v20h155v110h20v-110h185v-20zM272 -320l57 170h20l-8 -50l-49 -120h-20z" />
    <glyph glyph-name="circumflex" unicode="&#x2c6;" 
d="M385 600h-25l-100 135l-100 -135h-25l112 152h26z" />
    <glyph glyph-name="caron" unicode="&#x2c7;" 
d="M360 752h25l-112 -152h-26l-112 152h25l100 -135z" />
    <glyph glyph-name="breve" unicode="&#x2d8;" 
d="M353 714v10h20v-10q0 -47 -33 -80.5t-80 -33.5t-80.5 33.5t-33.5 80.5v10h20v-10q0 -39 27.5 -66.5t66.5 -27.5q38 0 65.5 27.5t27.5 66.5z" />
    <glyph glyph-name="dotaccent" unicode="&#x2d9;" 
d="M235 680h50v-50h-50v50z" />
    <glyph glyph-name="ring" unicode="&#x2da;" 
d="M261 600q-45 0 -76 31t-31 75t31 75t76 31q44 0 75 -31t31 -75t-31.5 -75t-74.5 -31zM261 620q35 0 60.5 25.5t25.5 60.5q0 36 -25 61t-61 25q-37 0 -62 -24.5t-25 -61.5q0 -36 25 -61t62 -25z" />
    <glyph glyph-name="ogonek" unicode="&#x2db;" 
d="M416 -190v-20h-14q-83 0 -119.5 37t-22.5 90t67 101h20q-48 -50 -60 -97.5t20.5 -79t108.5 -31.5z" />
    <glyph glyph-name="tilde" unicode="&#x2dc;" 
d="M136 626l-20 6q25 50 91 48l110 -46q47 -2 67 34l20 -6q-25 -50 -91 -48l-110 46q-47 2 -67 -34z" />
    <glyph glyph-name="hungarumlaut" unicode="&#x2dd;" 
d="M343 752h30l-142 -152h-20zM483 752h30l-142 -152h-20z" />
    <glyph glyph-name="gravecomb" unicode="&#x300;" horiz-adv-x="0" 
d="M-353 752l132 -152h-20l-142 152h30z" />
    <glyph glyph-name="acutecomb" unicode="&#x301;" horiz-adv-x="0" 
d="M-157 752h30l-142 -152h-20z" />
    <glyph glyph-name="uni0302" unicode="&#x302;" horiz-adv-x="0" 
d="M-135 600h-25l-100 135l-100 -135h-25l112 152h26z" />
    <glyph glyph-name="tildecomb" unicode="&#x303;" horiz-adv-x="0" 
d="M-384 626l-20 6q25 50 91 48l110 -46q47 -2 67 34l20 -6q-25 -50 -91 -48l-110 46q-47 2 -67 -34z" />
    <glyph glyph-name="uni0304" unicode="&#x304;" horiz-adv-x="0" 
d="M-400 660h280v-20h-280v20z" />
    <glyph glyph-name="uni0306" unicode="&#x306;" horiz-adv-x="0" 
d="M-167 714v10h20v-10q0 -47 -33 -80.5t-80 -33.5t-80.5 33.5t-33.5 80.5v10h20v-10q0 -39 27.5 -66.5t66.5 -27.5q38 0 65.5 27.5t27.5 66.5z" />
    <glyph glyph-name="uni0307" unicode="&#x307;" horiz-adv-x="0" 
d="M-285 680h50v-50h-50v50z" />
    <glyph glyph-name="uni0308" unicode="&#x308;" horiz-adv-x="0" 
d="M-365 680h50v-50h-50v50zM-205 680h50v-50h-50v50z" />
    <glyph glyph-name="uni030A" unicode="&#x30a;" horiz-adv-x="0" 
d="M-259 600q-45 0 -76 31t-31 75t31 75t76 31q44 0 75 -31t31 -75t-31.5 -75t-74.5 -31zM-259 620q35 0 60.5 25.5t25.5 60.5q0 36 -25 61t-61 25q-37 0 -62 -24.5t-25 -61.5q0 -36 25 -61t62 -25z" />
    <glyph glyph-name="uni030B" unicode="&#x30b;" horiz-adv-x="0" 
d="M-217 752h30l-142 -152h-20zM-77 752h30l-142 -152h-20z" />
    <glyph glyph-name="uni030C" unicode="&#x30c;" horiz-adv-x="0" 
d="M-160 752h25l-112 -152h-26l-112 152h25l100 -135z" />
    <glyph glyph-name="uni0312" unicode="&#x312;" horiz-adv-x="0" 
d="M-225 820h20l-57 -170h-20l8 50z" />
    <glyph glyph-name="uni0326" unicode="&#x326;" horiz-adv-x="0" 
d="M-316 -320h-20l57 170h20l-8 -50z" />
    <glyph glyph-name="uni0327" unicode="&#x327;" horiz-adv-x="0" 
d="M-241 0v19h20v-24l-19 -34l14 -25h20q35 0 60.5 -26t25.5 -63q0 -35 -25.5 -61t-60.5 -26h-74v20h74q27 0 46.5 20t19.5 47q0 29 -19 49t-47 20h-32l-25 45z" />
    <glyph glyph-name="uni0328" unicode="&#x328;" horiz-adv-x="0" 
d="M-104 -190v-20h-14q-83 0 -119.5 37t-22.5 90t67 101h20q-48 -50 -60 -97.5t20.5 -79t108.5 -31.5z" />
    <glyph glyph-name="uni0335" unicode="&#x335;" horiz-adv-x="0" 
d="M-480 277h280v-20h-280v20z" />
    <glyph glyph-name="uni0336" unicode="&#x336;" horiz-adv-x="0" 
d="M-590 277v-20h500v20h-500z" />
    <glyph glyph-name="uni0337" unicode="&#x337;" horiz-adv-x="0" 
d="M-139 605h21l-262 -700h-21z" />
    <glyph glyph-name="uni0338" unicode="&#x338;" horiz-adv-x="0" 
d="M-101 805h21l-339 -910h-21z" />
    <glyph glyph-name="Wgrave" unicode="&#x1e80;" 
d="M132 942l132 -152h-20l-142 152h30zM274 470l83 -450h10l53 456v224h20v-227l-55 -473h-44l-81 436l-81 -436h-44l-55 473v227h20v-224l53 -456h10l83 450h28z" />
    <glyph glyph-name="wgrave" unicode="&#x1e81;" 
d="M167 752l132 -152h-20l-142 152h30zM272 407l91 -387h8l49 273v217h20v-219l-52 -291h-41l-87 371l-87 -371h-41l-52 291v219h20v-217l49 -273h8l91 387h24z" />
    <glyph glyph-name="Wacute" unicode="&#x1e82;" 
d="M378 942h30l-142 -152h-20zM274 470l83 -450h10l53 456v224h20v-227l-55 -473h-44l-81 436l-81 -436h-44l-55 473v227h20v-224l53 -456h10l83 450h28z" />
    <glyph glyph-name="wacute" unicode="&#x1e83;" 
d="M403 752h30l-142 -152h-20zM272 407l91 -387h8l49 273v217h20v-219l-52 -291h-41l-87 371l-87 -371h-41l-52 291v219h20v-217l49 -273h8l91 387h24z" />
    <glyph glyph-name="Wdieresis" unicode="&#x1e84;" 
d="M155 870h50v-50h-50v50zM315 870h50v-50h-50v50zM274 470l83 -450h10l53 456v224h20v-227l-55 -473h-44l-81 436l-81 -436h-44l-55 473v227h20v-224l53 -456h10l83 450h28z" />
    <glyph glyph-name="wdieresis" unicode="&#x1e85;" 
d="M155 680h50v-50h-50v50zM315 680h50v-50h-50v50zM272 407l91 -387h8l49 273v217h20v-219l-52 -291h-41l-87 371l-87 -371h-41l-52 291v219h20v-217l49 -273h8l91 387h24z" />
    <glyph glyph-name="Ygrave" unicode="&#x1ef2;" 
d="M264 790h-20l-142 152h30zM420 700h20v-215l-170 -223v-262h-20v262l-170 211v227h20v-219l159 -199h1l160 209v209z" />
    <glyph glyph-name="ygrave" unicode="&#x1ef3;" 
d="M299 600h-20l-142 152h30zM418 510h22l-264 -720h-22l89 243l-163 477h21l152 -449z" />
    <glyph glyph-name="endash" unicode="&#x2013;" 
d="M60 277h400v-20h-400v20z" />
    <glyph glyph-name="emdash" unicode="&#x2014;" 
d="M10 277v-20h500v20h-500z" />
    <glyph glyph-name="quoteleft" unicode="&#x2018;" 
d="M279 711h20l-57 -170h-20l8 50z" />
    <glyph glyph-name="quoteright" unicode="&#x2019;" 
d="M241 540h-20l57 170h20l-8 -50z" />
    <glyph glyph-name="quotesinglbase" unicode="&#x201a;" 
d="M241 -120h-20l57 170h20l-8 -50z" />
    <glyph glyph-name="quotedblleft" unicode="&#x201c;" 
d="M229 711h20l-57 -170h-20l8 50zM328 711h20l-57 -170h-20l8 50z" />
    <glyph glyph-name="quotedblright" unicode="&#x201d;" 
d="M192 540h-20l57 170h20l-8 -50zM291 540h-20l57 170h20l-8 -50z" />
    <glyph glyph-name="quotedblbase" unicode="&#x201e;" 
d="M268 50h20l-8 -50l-49 -120h-20z" />
    <glyph glyph-name="dagger" unicode="&#x2020;" horiz-adv-x="600" 
d="M460 540v-20h-150v-300h-20v300h-150v20h150v160h20v-160h150z" />
    <glyph glyph-name="daggerdbl" unicode="&#x2021;" horiz-adv-x="600" 
d="M460 520h-150v-130h150v-20h-150v-150h-20v150h-150v20h150v130h-150v20h150v160h20v-160h150v-20z" />
    <glyph glyph-name="bullet" unicode="&#x2022;" 
d="M215 340h40l50 -20v-20l-50 -20h-40v60z" />
    <glyph glyph-name="ellipsis" unicode="&#x2026;" 
d="M80 50h50v-50h-50v50zM235 50h50v-50h-50v50zM390 50h50v-50h-50v50z" />
    <glyph glyph-name="perthousand" unicode="&#x2030;" horiz-adv-x="1040" 
d="M133 514q-39 0 -66 27t-27 66t27 66t66 27q38 0 65 -27t27 -66t-27 -66t-65 -27zM100 0h-20v146l340 416v138h20v-146l-340 -416v-138zM133 534q30 0 51 21.5t21 51.5t-21 51.5t-51 21.5t-51.5 -21.5t-21.5 -51.5t21.5 -51.5t51.5 -21.5zM388 0q-39 0 -66 27t-27 66
t27 66t66 27q38 0 65 -27t27 -66t-27 -66t-65 -27zM653 0q-39 0 -66 27t-27 66t27 66t66 27q38 0 65 -27t27 -66t-27 -66t-65 -27zM388 20q30 0 51 21.5t21 51.5t-21 51.5t-51 21.5t-51.5 -21.5t-21.5 -51.5t21.5 -51.5t51.5 -21.5zM653 20q30 0 51 21.5t21 51.5t-21 51.5
t-51 21.5t-51.5 -21.5t-21.5 -51.5t21.5 -51.5t51.5 -21.5z" />
    <glyph glyph-name="guilsinglleft" unicode="&#x2039;" 
d="M385 95v-20h-75l-175 148v64l175 148h75v-20h-68l-162 -137v-46l162 -137h68z" />
    <glyph glyph-name="guilsinglright" unicode="&#x203a;" 
d="M135 95h68l162 137v46l-162 137h-68v20h75l175 -148v-64l-175 -148h-75v20z" />
    <glyph glyph-name="fraction" unicode="&#x2044;" horiz-adv-x="600" 
d="M100 0h-20v146l340 416v138h20v-146l-340 -416v-138z" />
    <glyph glyph-name="Euro" unicode="&#x20ac;" 
d="M440 530h-20v30q0 50 -35 85t-85 35h-20q-50 0 -85 -35t-35 -85v-174h135v-20h-135v-100h135v-20h-135v-105q0 -49 35 -84.5t85 -35.5h20q50 0 85 35.5t35 84.5v30h20v-30q0 -58 -41 -99.5t-99 -41.5h-20q-58 0 -99 41.5t-41 99.5v105h-60v20h60v100h-60v20h60v174
q0 58 41 99t99 41h20q58 0 99 -41t41 -99v-30z" />
    <glyph glyph-name="trademark" unicode="&#x2122;" horiz-adv-x="1040" 
d="M320 700v-20h-110v-295h-20v295h-110v20h240zM648 700h42v-315h-20v295h-9l-105 -225h-22l-105 225h-9v-295h-20v315h42l103 -222z" />
    <glyph glyph-name="arrowleft" unicode="&#x2190;" 
d="M480 275v-20h-422l164 -140h58v-20h-65l-175 148v32v12l175 148h65v-20h-58l-164 -140h422z" />
    <glyph glyph-name="arrowup" unicode="&#x2191;" 
d="M282 440l148 -175v-65h-20v58l-140 164v-422h-20v422l-140 -164v-58h-20v65l148 175h32h12z" />
    <glyph glyph-name="arrowright" unicode="&#x2192;" 
d="M305 435l175 -148v-32v-12l-175 -148h-65v20h58l164 140h-422v20h422l-164 140h-58v20h65z" />
    <glyph glyph-name="arrowdown" unicode="&#x2193;" 
d="M410 320h20v-65l-148 -175h-32h-12l-148 175v65h20v-58l140 -164v422h20v-422l140 164v58z" />
    <glyph glyph-name="arrowboth" unicode="&#x2194;" 
d="M368 454l142 -120v-32v-12l-142 -120l-8 20l132 112h-464l132 -112l-8 -20l-142 120v32v12l142 120l8 -20l-132 -112h464l-132 112z" />
    <glyph glyph-name="arrowupdn" unicode="&#x2195;" 
d="M270 18l112 132l20 -8l-120 -142h-32h-12l-120 142l20 8l112 -132v464l-112 -132l-20 8l120 142h32h12l120 -142l-20 -8l-112 132v-464z" />
    <glyph glyph-name="uni2196" unicode="&#x2196;" 
d="M426 111l-14 -14l-298 298l17 -214l41 -41l-14 -15l-46 46l-19 229l22 22l9 9l228 -19l46 -46l-14 -14l-41 41l-215 17v-1z" />
    <glyph glyph-name="uni2197" unicode="&#x2197;" 
d="M426 400l-19 -229l-46 -46l-14 15l41 41l17 214l-298 -298l-14 14l298 298v1l-215 -17l-41 -41l-14 14l46 46l228 19z" />
    <glyph glyph-name="uni2198" unicode="&#x2198;" 
d="M407 351l19 -229l-22 -22l-9 -9l-228 19l-46 46l14 14l41 -41l215 -17v1l-298 298l14 14l298 -298l-17 214l-41 41l14 15z" />
    <glyph glyph-name="uni2199" unicode="&#x2199;" 
d="M343 129l41 41l14 -14l-46 -46l-228 -19l-23 23l-8 8l19 229l46 46l14 -15l-41 -41l-17 -214l298 298l14 -14l-298 -298v-1z" />
    <glyph glyph-name="partialdiff" unicode="&#x2202;" horiz-adv-x="600" 
 />
    <glyph glyph-name="emptyset" unicode="&#x2205;" 
d="M330 415q47 -21 76 -63.5t29 -95.5q0 -73 -51 -124.5t-124 -51.5q-26 0 -52 8l-33 -88h-21l36 95q-47 21 -76 64.5t-29 96.5q0 72 51.5 123t123.5 51q26 0 52 -8l33 88h21zM105 256q0 -47 25.5 -85.5t66.5 -56.5l108 289q-20 7 -45 7q-64 0 -109.5 -45.5t-45.5 -108.5z
M260 100q64 0 109.5 46t45.5 110q0 46 -25.5 84t-66.5 56l-108 -289q20 -7 45 -7z" />
    <glyph glyph-name="product" unicode="&#x220f;" horiz-adv-x="600" 
 />
    <glyph glyph-name="summation" unicode="&#x2211;" horiz-adv-x="600" 
 />
    <glyph glyph-name="minus" unicode="&#x2212;" 
d="M120 277h280v-20h-280v20z" />
    <glyph glyph-name="radical" unicode="&#x221a;" horiz-adv-x="600" 
 />
    <glyph glyph-name="infinity" unicode="&#x221e;" 
d="M354 424q56 2 96 -36.5t40 -94.5t-40 -94.5t-96 -36.5l-94 115l-94 -115q-56 -2 -96 36.5t-40 94.5t40 94.5t96 36.5l94 -115zM156 182l91 111l-91 111q-45 -2 -75.5 -34.5t-30.5 -76.5t30.5 -76.5t75.5 -34.5zM364 182q45 2 75.5 34.5t30.5 76.5t-30.5 76.5t-75.5 34.5
l-91 -111z" />
    <glyph glyph-name="integral" unicode="&#x222b;" horiz-adv-x="600" 
 />
    <glyph glyph-name="approxequal" unicode="&#x2248;" 
d="M136 346l-20 6q25 50 91 48l110 -46q47 -2 67 34l20 -6q-25 -50 -91 -48l-110 46q-47 2 -67 -34zM136 177l-20 6q25 50 91 48l110 -46q47 -2 67 34l20 -6q-25 -50 -91 -48l-110 46q-47 2 -67 -34z" />
    <glyph glyph-name="notequal" unicode="&#x2260;" 
d="M400 353h-100l-57 -151h157v-20h-164l-38 -101h-21l38 101h-95v20h102l57 151h-159v20h167l36 97h21l-36 -97h92v-20z" />
    <glyph glyph-name="lessequal" unicode="&#x2264;" 
d="M400 250v-20h-41l-239 115v70l239 115h41v-20h-36l-224 -107v-46l224 -107h36zM400 120v-20h-280v20h280z" />
    <glyph glyph-name="greaterequal" unicode="&#x2265;" 
d="M120 250h36l224 107v46l-224 107h-36v20h41l239 -115v-70l-239 -115h-41v20zM120 120h280v-20h-280v20z" />
    <glyph glyph-name="lozenge" unicode="&#x25ca;" 
d="M292 505l148 -175v-150l-148 -175h-64l-148 175v150l148 175h64zM420 187v136l-137 162h-46l-137 -162v-136l137 -162h46z" />
    <glyph glyph-name="i.loclTRK" 
d="M280 680v-50h-50v50h50zM265 20h175v-20h-195h-165v20h165v470h-165v20h185v-490z" />
  </font>
</defs>
</svg>
